<?xml version="1.0" standalone="no"?><!DOCTYPE svg PUBLIC "-//W3C//DTD SVG 1.1//EN" "http://www.w3.org/Graphics/SVG/1.1/DTD/svg11.dtd"><svg t="1658731389708" class="icon" viewBox="0 0 19894 1024" version="1.1" xmlns="http://www.w3.org/2000/svg" p-id="4766" xmlns:xlink="http://www.w3.org/1999/xlink" width="3885.546875" height="200"><defs><style type="text/css">@font-face { font-family: feedback-iconfont; src: url("//at.alicdn.com/t/font_1031158_u69w8yhxdu.woff2?t=1630033759944") format("woff2"), url("//at.alicdn.com/t/font_1031158_u69w8yhxdu.woff?t=1630033759944") format("woff"), url("//at.alicdn.com/t/font_1031158_u69w8yhxdu.ttf?t=1630033759944") format("truetype"); }
</style></defs><path d="M73.142857 585.142857h438.857143a73.142857 73.142857 0 0 0 0-146.285714h-438.857143a73.142857 73.142857 0 0 0 0 146.285714z m877.714286 0h438.857143a73.142857 73.142857 0 0 0 0-146.285714h-438.857143a73.142857 73.142857 0 0 0 0 146.285714z m877.714286 0h438.857142a73.142857 73.142857 0 1 0 0-146.285714h-438.857142a73.142857 73.142857 0 1 0 0 146.285714z m877.714285 0h438.857143a73.142857 73.142857 0 1 0 0-146.285714h-438.857143a73.142857 73.142857 0 1 0 0 146.285714z m877.714286 0h438.857143a73.142857 73.142857 0 1 0 0-146.285714h-438.857143a73.142857 73.142857 0 1 0 0 146.285714z m877.714286 0h438.857143a73.142857 73.142857 0 1 0 0-146.285714h-438.857143a73.142857 73.142857 0 1 0 0 146.285714z m877.714285 0h438.857143a73.142857 73.142857 0 1 0 0-146.285714h-438.857143a73.142857 73.142857 0 1 0 0 146.285714z m877.714286 0h438.857143a73.142857 73.142857 0 1 0 0-146.285714h-438.857143a73.142857 73.142857 0 1 0 0 146.285714z m877.714286 0h438.857143a73.142857 73.142857 0 1 0 0-146.285714h-438.857143a73.142857 73.142857 0 1 0 0 146.285714z m877.714286 0h438.857142a73.142857 73.142857 0 1 0 0-146.285714h-438.857142a73.142857 73.142857 0 1 0 0 146.285714z m877.714285 0h438.857143a73.142857 73.142857 0 1 0 0-146.285714h-438.857143a73.142857 73.142857 0 1 0 0 146.285714z m877.714286 0h438.857143a73.142857 73.142857 0 1 0 0-146.285714h-438.857143a73.142857 73.142857 0 1 0 0 146.285714z m877.714286 0h438.857143a73.142857 73.142857 0 1 0 0-146.285714h-438.857143a73.142857 73.142857 0 1 0 0 146.285714z m877.714285 0h438.857143a73.142857 73.142857 0 1 0 0-146.285714h-438.857143a73.142857 73.142857 0 1 0 0 146.285714z m877.714286 0h438.857143a73.142857 73.142857 0 1 0 0-146.285714h-438.857143a73.142857 73.142857 0 1 0 0 146.285714z m877.714286 0h438.857143a73.142857 73.142857 0 1 0 0-146.285714h-438.857143a73.142857 73.142857 0 1 0 0 146.285714z m877.714286 0h438.857142a73.142857 73.142857 0 1 0 0-146.285714h-438.857142a73.142857 73.142857 0 1 0 0 146.285714z m877.714285 0h438.857143a73.142857 73.142857 0 0 0 0-146.285714h-438.857143a73.142857 73.142857 0 0 0 0 146.285714z m877.714286 0h438.857143a73.142857 73.142857 0 0 0 0-146.285714h-438.857143a73.142857 73.142857 0 0 0 0 146.285714z m877.714286 0h438.857143a73.142857 73.142857 0 0 0 0-146.285714h-438.857143a73.142857 73.142857 0 0 0 0 146.285714z m877.714285 0h438.857143a73.142857 73.142857 0 0 0 0-146.285714h-438.857143a73.142857 73.142857 0 0 0 0 146.285714z m877.714286 0h292.571429a73.142857 73.142857 0 0 0 0-146.285714h-292.571429a73.142857 73.142857 0 0 0 0 146.285714z" fill="#BCBCBC" p-id="4767"></path><path d="M19163.428571 950.857143v-877.714286l634.88 440.905143z" fill="#BCBCBC" p-id="4768"></path></svg>