<?xml version="1.0" standalone="no"?><!DOCTYPE svg PUBLIC "-//W3C//DTD SVG 1.1//EN" "http://www.w3.org/Graphics/SVG/1.1/DTD/svg11.dtd"><svg t="1657766305877" class="icon" viewBox="0 0 1024 1024" version="1.1" xmlns="http://www.w3.org/2000/svg" p-id="12585" xmlns:xlink="http://www.w3.org/1999/xlink" width="200" height="200"><defs><style type="text/css">@font-face { font-family: feedback-iconfont; src: url("//at.alicdn.com/t/font_1031158_u69w8yhxdu.woff2?t=1630033759944") format("woff2"), url("//at.alicdn.com/t/font_1031158_u69w8yhxdu.woff?t=1630033759944") format("woff"), url("//at.alicdn.com/t/font_1031158_u69w8yhxdu.ttf?t=1630033759944") format("truetype"); }
</style></defs><path d="M499.2 12.8v76.8a12.8 12.8 0 0 0 25.6 0v-76.8a12.8 12.8 0 0 0-25.6 0z m0 153.6v76.8a12.8 12.8 0 0 0 25.6 0v-76.8a12.8 12.8 0 0 0-25.6 0z m0 153.6v76.8a12.8 12.8 0 1 0 25.6 0v-76.8a12.8 12.8 0 1 0-25.6 0z m0 153.6v76.8a12.8 12.8 0 1 0 25.6 0v-76.8a12.8 12.8 0 1 0-25.6 0z m0 153.6v76.8a12.8 12.8 0 1 0 25.6 0v-76.8a12.8 12.8 0 1 0-25.6 0z m0 153.6v76.8a12.8 12.8 0 1 0 25.6 0v-76.8a12.8 12.8 0 1 0-25.6 0z" fill="#BCBCBC" p-id="12586"></path><path d="M448 908.8h128l-64.3072 92.5952z" fill="#BCBCBC" p-id="12587"></path></svg>