<?xml version="1.0" encoding="UTF-8"?>
<svg width="15px" height="15px" viewBox="0 0 15 15" version="1.1" xmlns="http://www.w3.org/2000/svg" xmlns:xlink="http://www.w3.org/1999/xlink">
    <title>修改</title>
    <g id="堡森三通智慧物流系统设计稿-员工端（已定稿）" stroke="none" stroke-width="1" fill="none" fill-rule="evenodd">
        <g id="L6-基础档案-设计稿(1920*1080)" transform="translate(-681.000000, -184.000000)">
            <g id="编组-377" transform="translate(461.000000, 114.000000)">
                <g id="编组-376" transform="translate(199.000000, 70.000000)">
                    <g id="修改" transform="translate(21.000000, 0.000000)">
                        <path d="M5.82175945,8.11313992 C5.81401486,8.12246437 5.80627028,8.13229151 5.80278987,8.14411674 L5.20498239,10.2175026 C5.17012513,10.338218 5.20583257,10.4682955 5.30029524,10.5599943 C5.37095294,10.6252907 5.46404736,10.6611811 5.56319928,10.6611811 C5.59594439,10.6611811 5.62875592,10.657474 5.66104936,10.6493559 L7.83723753,10.0878649 C7.84073124,10.0878649 7.84241829,10.0907552 7.84504853,10.0907552 C7.87004906,10.0907552 7.89461121,10.0821471 7.91315571,10.0642145 L13.7323668,4.56005493 C13.9052185,4.39632392 14,4.17329082 14,3.93062861 C14,3.65567008 13.8767243,3.38082466 13.6608457,3.17714422 L13.1112725,2.65641951 C12.895726,2.45219871 12.6047794,2.33536647 12.3142579,2.33536647 C12.0578099,2.33536647 11.8220584,2.42505472 11.6487683,2.58837105 L5.83042064,8.0940009 C5.8243764,8.09925376 5.82607675,8.10703253 5.82175945,8.11313992 M13.1629606,4.02099548 L12.5849463,4.5673813 L11.6479314,3.66689212 L12.2177495,3.12783266 C12.3077886,3.04219086 12.4823671,3.05468213 12.5858231,3.15290314 L13.1357682,3.67362785 C13.1931552,3.72782786 13.2258737,3.79998562 13.2258737,3.87133912 C13.2255283,3.92982435 13.2035034,3.98289335 13.1629606,4.02099548 M6.85666432,8.19962368 L11.0557166,4.22710127 L11.9931964,5.12819366 L7.80195519,9.09291214 L6.85666432,8.19962368 L6.85666432,8.19962368 Z M6.09162431,9.81017946 L6.39507118,8.7565278 L7.20449309,9.52231495 L6.09162431,9.81017946 L6.09162431,9.81017946 Z M13.2127093,6.20220329 C12.9924336,6.20220329 12.7985401,6.371627 12.7976899,6.58283486 L12.7976899,11.7333937 C12.7976899,12.0024962 12.5666675,12.2111907 12.2817518,12.2111907 L3.3311518,12.2111907 C3.04667452,12.2111907 2.83464827,12.0025214 2.83464827,11.7333937 L2.83464827,3.25696765 C2.83464827,2.98765155 3.04666123,2.78488848 3.3311518,2.78488848 L9.47378897,2.78488848 C9.69529998,2.78488848 9.87503283,2.59867571 9.87503283,2.38906381 C9.87503283,2.17986662 9.69528677,2 9.47378897,2 L3.26993903,2 C2.57640691,2 2,2.54299285 2,3.19946261 L2,11.791326 C2,12.4478209 2.57642021,13 3.26993903,13 L12.3424864,13 C13.0365233,13 13.6272238,12.4478209 13.6272238,11.791326 L13.6272238,6.58043463 C13.6263736,6.371627 13.4329318,6.20220329 13.2127093,6.20220329" id="形状" fill="#515151" fill-rule="nonzero"></path>
                        <rect id="矩形" x="0" y="0" width="15" height="15"></rect>
                    </g>
                </g>
            </g>
        </g>
    </g>
</svg>