<?xml version="1.0" encoding="UTF-8"?>
<svg width="15px" height="15px" viewBox="0 0 15 15" version="1.1" xmlns="http://www.w3.org/2000/svg" xmlns:xlink="http://www.w3.org/1999/xlink">
    <title>新增</title>
    <g id="堡森三通智慧物流系统设计稿-员工端（已定稿）" stroke="none" stroke-width="1" fill="none" fill-rule="evenodd">
        <g id="L6-基础档案-设计稿(1920*1080)" transform="translate(-660.000000, -184.000000)" fill-rule="nonzero">
            <g id="编组-377" transform="translate(461.000000, 114.000000)">
                <g id="新增" transform="translate(199.000000, 70.000000)">
                    <path d="M7.50018151,14 C3.90954281,14 1,11.0898433 1,7.5 C1,3.90943439 3.90954281,1 7.50018151,1 C11.0897311,1 14,3.90943438 14,7.5 C14,11.0905656 11.0908202,14 7.50018151,14 Z M7.50018151,1.86567953 C4.38877872,1.86567953 1.86661826,4.38795978 1.86661826,7.4992777 C1.86661826,10.6095121 4.38877872,13.1325147 7.50018151,13.1325147 C10.6112212,13.1325147 13.1326556,10.6105956 13.1333817,7.4992777 C13.1333817,4.38795978 10.6112212,1.86567953 7.50018151,1.86567953 Z M10.4917753,7.87884766 L7.94129637,7.87884766 L7.93004158,10.7828647 C7.93004158,10.8904879 7.95327726,11.351678 7.45225791,11.351678 C6.97665259,11.351678 7.02421312,11.0472275 7.02421312,10.8175353 L7.0253023,7.87956995 L4.22322449,7.87956995 C4.04024351,7.87956995 3.82277206,7.88065341 3.82277206,7.32411935 C3.82277206,6.91060118 4.33141563,6.95755084 4.33141563,6.95755084 L7.0253023,6.95755084 L7.0253023,4.15537838 C7.0253023,3.97191355 7.16725778,3.80867319 7.48275475,3.82709191 C7.79825171,3.84514947 7.9402072,3.97263586 7.9402072,4.15537838 L7.9402072,6.95755084 L10.4910492,6.95755084 C10.4910492,6.95755084 11.0723043,6.88207023 11.0665812,7.39671074 C11.0603234,7.91171241 10.6086799,7.87884764 10.4917753,7.87884766 L10.4917753,7.87884766 Z" id="形状" fill="#515151"></path>
                    <rect id="矩形" fill="#999999" opacity="0" x="0" y="0" width="15" height="15"></rect>
                </g>
            </g>
        </g>
    </g>
</svg>