<?xml version="1.0" encoding="UTF-8"?>
<svg width="15px" height="15px" viewBox="0 0 15 15" version="1.1" xmlns="http://www.w3.org/2000/svg" xmlns:xlink="http://www.w3.org/1999/xlink">
    <title>删除</title>
    <g id="堡森三通智慧物流系统设计稿-员工端（已定稿）" stroke="none" stroke-width="1" fill="none" fill-rule="evenodd">
        <g id="L6-基础档案-设计稿(1920*1080)" transform="translate(-702.000000, -184.000000)">
            <g id="编组-377" transform="translate(461.000000, 114.000000)">
                <g id="编组-376" transform="translate(199.000000, 70.000000)">
                    <g id="删除" transform="translate(42.000000, 0.000000)">
                        <g id="编组-374" transform="translate(2.000000, 2.000000)" fill="#515151" fill-rule="nonzero">
                            <path d="M7.61538462,0 C8.08270248,0 8.46153846,0.397969111 8.46153846,0.888888889 L8.46153846,1.77777778 L10.5416667,1.77777778 C10.7947972,1.77777778 11,2.0016354 11,2.27777778 C11,2.55392015 10.7947972,2.77777778 10.5416667,2.77777778 L10.119,2.777 L10.119408,2.77950231 L9.66372518,11.0827905 C9.63544209,11.5977173 9.23150157,12 8.74273592,12 L2.18190501,12 C1.69282723,12 1.28874249,11.5972202 1.26086931,11.0819386 L0.81324175,2.80680634 L0.813,2.777 L0.458333333,2.77777778 C0.205202823,2.77777778 0,2.55392015 0,2.27777778 C0,2.0016354 0.205202823,1.77777778 0.458333333,1.77777778 L2.53846154,1.77777778 L2.53846154,1.77777778 L2.53846154,0.888888889 C2.53846154,0.397969111 2.91729752,0 3.38461538,0 L7.61538462,0 Z M9.27,2.777 L1.659,2.777 L2.1056603,11.0315088 C2.10750799,11.0656664 2.1271901,11.0933639 2.15362694,11.1050778 L2.18190501,11.1111111 L8.74273592,11.1111111 C8.77242528,11.1111111 8.79905979,11.0919778 8.81157501,11.0632299 L8.81897402,11.0316297 L9.27,2.777 Z M3.88461538,4.88888889 C4.16075776,4.88888889 4.38461538,5.08787344 4.38461538,5.33333333 L4.38461538,8 C4.38461538,8.24545989 4.16075776,8.44444444 3.88461538,8.44444444 C3.60847301,8.44444444 3.38461538,8.24545989 3.38461538,8 L3.38461538,5.33333333 C3.38461538,5.08787344 3.60847301,4.88888889 3.88461538,4.88888889 Z M5.57692308,4.88888889 C5.85306545,4.88888889 6.07692308,5.08787344 6.07692308,5.33333333 L6.07692308,8 C6.07692308,8.24545989 5.85306545,8.44444444 5.57692308,8.44444444 C5.3007807,8.44444444 5.07692308,8.24545989 5.07692308,8 L5.07692308,5.33333333 C5.07692308,5.08787344 5.3007807,4.88888889 5.57692308,4.88888889 Z M7.26923077,4.88888889 C7.54537314,4.88888889 7.76923077,5.08787344 7.76923077,5.33333333 L7.76923077,8 C7.76923077,8.24545989 7.54537314,8.44444444 7.26923077,8.44444444 C6.99308839,8.44444444 6.76923077,8.24545989 6.76923077,8 L6.76923077,5.33333333 C6.76923077,5.08787344 6.99308839,4.88888889 7.26923077,4.88888889 Z M7.61538462,0.888888889 L3.38461538,0.888888889 L3.38461538,1.77777778 L7.61538462,1.77777778 L7.61538462,0.888888889 Z" id="形状结合"></path>
                        </g>
                        <rect id="矩形" x="0" y="0" width="15" height="15"></rect>
                    </g>
                </g>
            </g>
        </g>
    </g>
</svg>