<?xml version="1.0" encoding="UTF-8"?>
<svg width="50px" height="50px" viewBox="0 0 50 50" version="1.1" xmlns="http://www.w3.org/2000/svg" xmlns:xlink="http://www.w3.org/1999/xlink">
    <title>标签logo</title>
    <g id="图标素材等" stroke="none" stroke-width="1" fill="none" fill-rule="evenodd">
        <g id="各种图标" transform="translate(-938.000000, -518.000000)">
            <g id="标签logo" transform="translate(938.000000, 518.000000)">
                <rect id="矩形" x="0" y="0" width="50" height="50"></rect>
                <g id="编组" transform="translate(0.000000, 5.000000)">
                    <path d="M24.7626093,0 L24.3138314,0.0103299277 L24.2920237,0.0103299277 L24.2243053,0.0195120856 L24.1841334,0.0195120856 L24.1738035,0.0195120856 L23.4507085,0.049354099 L23.4507085,0.0573884872 L22.7850021,0.119368053 L22.7850021,0.80229105 L22.8538683,0.782778965 L23.2372233,0.676036379 L23.039807,0.851645149 L23.0283293,0.860827307 L22.8240262,1.06627809 L22.8033664,1.07775579 L22.7850021,1.0961201 L22.7850021,1.8398749 L22.9709408,1.6160598 L23.1660616,1.38880139 L23.3520003,1.20401046 L23.5585989,1.01807176 L23.7445376,0.882634932 L23.941954,0.752936951 L24.1451092,0.645046596 L24.1841334,0.577328181 L24.3907319,0.519939694 L24.5364987,0.488949911 L24.5364987,2.67200796 L24.5284643,2.67200796 L24.2816938,2.67200796 L24.1738035,2.66167803 L23.9201463,2.65134811 L23.6745236,2.64216595 L23.4311964,2.63183602 L23.1878692,2.61232394 L22.9422465,2.60314178 L22.9422465,2.59281185 L22.7850021,2.58362969 L22.7850021,3.06339744 L22.9032224,3.07372737 L23.1465495,3.08290953 L23.1568795,3.08290953 L23.4025022,3.10242162 L23.6458294,3.11160377 L23.9006343,3.1219337 L24.1554391,3.13111586 L24.2725117,3.14144579 L24.5284643,3.14144579 L24.5364987,3.14144579 L24.5364987,8.444142 L24.3035014,8.43381207 L23.9603183,8.42577768 L23.4885849,8.41429999 L23.0111127,8.39593567 L22.7850021,8.38675351 L22.7850021,8.85619134 L22.9904529,8.86652127 L23.4702206,8.88603335 L23.9499884,8.89636328 L24.2920237,8.91472759 L24.5364987,8.91472759 L24.5364987,10.9990774 L25.0162664,10.9990774 L25.0162664,8.91472759 L25.2607414,8.91472759 L25.2699236,8.91472759 L25.8885715,8.89636328 L26.3580093,8.88603335 L26.8354815,8.86652127 L27.2762251,8.84700918 L27.2762251,8.37642359 L26.8182649,8.39593567 L26.3465316,8.41429999 L25.8793893,8.42577768 L25.2607414,8.43381207 L25.0162664,8.444142 L25.0162664,3.14144579 L25.033483,3.14144579 L25.2917312,3.14144579 L25.6819729,3.13111586 L25.6911551,3.13111586 L25.93563,3.1219337 L26.1835483,3.11160377 L26.4349099,3.10242162 L26.6805326,3.08290953 L26.9341897,3.07372737 L26.9445196,3.07372737 L27.1878468,3.05306752 L27.1878468,3.04273759 L27.2762251,3.04273759 L27.2762251,2.56411761 L27.1488226,2.57444753 L26.9066432,2.59281185 L26.9066432,2.60314178 L26.6495428,2.61232394 L26.4073634,2.63183602 L26.1605929,2.64216595 L25.9161179,2.65134811 L25.6727907,2.66167803 L25.2802535,2.67200796 L25.033483,2.67200796 L25.0162664,2.67200796 L25.0162664,0.488949911 L25.1735109,0.519939694 L25.5052164,0.577328181 L25.701485,0.656524293 L25.8977536,0.752936951 L26.0928745,0.882634932 L26.2684832,1.01807176 L26.473934,1.20401046 L26.6702026,1.38880139 L26.8561413,1.60572987 L27.0501144,1.85020483 L27.2291665,2.09467978 L27.2762251,2.16354597 L27.2762251,1.3692893 L27.2291665,1.31190082 L27.2176888,1.30157089 L27.022568,1.07775579 L27.012238,1.06627809 L26.7976051,0.860827307 L26.7976051,0.851645149 L26.5933021,0.676036379 L26.9743616,0.772449037 L27.2762251,0.872305005 L27.2762251,0.676036379 L27.2762251,0.137732369 L27.1109462,0.119368053 L27.1006163,0.119368053 L26.3763736,0.0573884872 L26.3671914,0.049354099 L25.661313,0.0195120856 L25.6532787,0.0195120856 L25.6154023,0.0195120856 L25.5430928,0.0103299277 L25.5362061,0.0103299277 L24.8016335,0 L24.7626093,0 Z M22.735648,0.119368053 L22.7264658,0.119368053 L22.012553,0.205450784 L21.3078224,0.322523298 L21.2963447,0.322523298 L20.906103,0.40171941 L20.906103,1.0582437 L21.0920417,1.00774183 L21.0621997,1.01807176 L21.0541653,1.02840169 L20.906103,1.11448442 L20.906103,1.66426613 L20.9164329,1.6539362 L21.2779804,1.43930326 L21.6796998,1.23385247 L22.0607594,1.06627809 L22.461331,0.910181406 L22.461331,0.900999248 L22.7850021,0.80229105 L22.7850021,0.119368053 L22.735648,0.119368053 Z M27.2762251,0.676036379 L27.2762251,0.872305005 L27.3657511,0.900999248 L27.3657511,0.910181406 L27.7755049,1.06627809 L28.1473823,1.23385247 L28.1473823,0.263987041 L27.8260068,0.205450784 L27.8156769,0.205450784 L27.2762251,0.137732369 L27.2762251,0.676036379 Z M28.1473823,1.23385247 L28.1577122,1.23385247 L28.5387718,1.43930326 L28.9186836,1.66426613 L28.9301613,1.66426613 L28.9301613,1.11448442 L28.7843945,1.02840169 L28.7660302,1.01807176 L28.7453703,1.00774183 L28.9301613,1.0582437 L28.9301613,0.40171941 L28.5295896,0.322523298 L28.5192597,0.322523298 L28.1473823,0.263987041 L28.1473823,1.23385247 Z M28.9301613,1.0582437 L28.971481,1.06627809 L29.5178194,1.25336456 L30.0767832,1.44848542 L30.6047573,1.67344829 L31.1315836,1.91792324 L31.1522435,1.91792324 L30.9559749,1.96842511 L30.7298642,2.02696137 L30.5071969,2.07401993 L30.3614301,2.10500971 L30.3292926,2.07401993 L30.3201104,2.07401993 L29.948233,1.78133864 L29.948233,1.77215648 L29.5683212,1.50702167 L29.5579913,1.50702167 L29.1769318,1.26254672 L29.1654541,1.25336456 L28.9301613,1.11448442 L28.9301613,1.66426613 L29.2928565,1.88808123 L29.6647339,2.16354597 L29.7531122,2.22093445 L29.5579913,2.25995862 L29.3226985,2.2989828 L29.086258,2.33915474 L28.9301613,2.36899675 L28.9301613,2.84761673 L29.1551241,2.80859256 L29.1654541,2.80859256 L29.4018946,2.76956839 L29.4110768,2.76956839 L29.6440741,2.72136206 L29.8805146,2.68004235 L30.1261373,2.64216595 L30.1353195,2.63183602 L30.2317322,2.61232394 L30.367169,2.73054422 L30.7206821,3.06339744 L31.065013,3.40428506 L31.3886841,3.75779814 L31.7203895,4.14000546 L31.7490838,4.16869971 L31.7490838,3.43527484 L31.4070484,3.07372737 L31.0535353,2.73054422 L31.0535353,2.72136206 L30.8090603,2.48492149 L30.8400501,2.48492149 L31.0730474,2.42638524 L31.3071924,2.36899675 L31.5447807,2.30931272 L31.7490838,2.25995862 L31.7490838,1.69296037 L31.5918393,1.6160598 L31.7490838,1.67344829 L31.7490838,1.17302068 L31.269316,1.00774183 L31.2589861,1.00774183 L30.6047573,0.80229105 L30.5932796,0.80229105 L29.9195388,0.616352352 L29.9115044,0.616352352 L29.2228426,0.459107897 L28.9301613,0.40171941 L28.9301613,1.0582437 Z M20.6042396,0.459107897 L20.5927619,0.459107897 L19.919021,0.616352352 L19.9075433,0.616352352 L19.8099829,0.645046596 L19.8099829,1.42897333 L20.3092627,1.25336456 L20.8670788,1.06627809 L20.906103,1.0582437 L20.906103,0.40171941 L20.6042396,0.459107897 Z M19.2315069,0.80229105 L19.221177,0.80229105 L18.5669483,1.00774183 L18.5577661,1.00774183 L18.0883283,1.17302068 L18.0883283,1.67344829 L18.234095,1.6160598 L18.0883283,1.69296037 L18.0883283,2.25995862 L18.3029612,2.31964265 L18.5394018,2.37932668 L18.7712513,2.42638524 L19.0065441,2.48492149 L19.0283517,2.49525142 L18.7712513,2.72136206 L18.7712513,2.73054422 L18.4292159,3.07372737 L18.418886,3.07372737 L18.0883283,3.43527484 L18.0883283,4.16869971 L18.1158748,4.14000546 L18.4395458,3.74746821 L18.7643647,3.40428506 L19.1064,3.06339744 L19.4472877,2.74087415 L19.6045321,2.61232394 L19.7101269,2.64216595 L19.7216046,2.64216595 L19.8099829,2.65134811 L19.8099829,2.43671516 L19.8099829,2.44589732 L19.8099829,2.43671516 L19.8099829,1.8398749 L19.5058239,2.07401993 L19.4966418,2.07401993 L19.4679475,2.10500971 L19.3416928,2.07401993 L19.11673,2.02696137 L18.8894716,1.97760727 L18.6863163,1.91792324 L18.6943507,1.91792324 L19.2315069,1.67344829 L19.7525944,1.44848542 L19.8099829,1.42897333 L19.8099829,0.645046596 L19.2315069,0.80229105 Z M22.6093933,1.30157089 L22.6093933,1.31190082 L22.4027947,1.555228 L22.4027947,1.56555793 L22.2076739,1.83069274 L22.1984917,1.8398749 L22.012553,2.13370395 L22.0010753,2.13370395 L21.8174322,2.43671516 L21.8174322,2.44589732 L21.7979201,2.48492149 L21.7198717,2.47573934 L21.4731013,2.44589732 L21.2378085,2.41720308 L20.995629,2.37932668 L20.906103,2.36899675 L20.906103,2.84761673 L20.9256151,2.84761673 L21.1712378,2.88778867 L21.4053828,2.91648292 L21.4168605,2.91648292 L21.5534451,2.935995 L21.4547369,3.13111586 L21.444407,3.13111586 L21.269946,3.50414103 L21.269946,3.51332318 L21.1012239,3.89553051 L20.9347972,4.29610215 L20.9256151,4.30528431 L20.906103,4.36496833 L20.906103,5.79279389 L20.9164329,5.76409965 L21.0621997,5.31417391 L21.2205919,4.88146472 L21.3755408,4.47285869 L21.544263,4.08032144 L21.7095418,3.68893195 L21.8748207,3.34689657 L22.0504294,3.00371342 L22.0607594,2.99453126 L22.1502854,3.00371342 L22.3936126,3.0232255 L22.4027947,3.03240766 L22.6484175,3.05306752 L22.7850021,3.06339744 L22.7850021,2.58362969 L22.6862939,2.57444753 L22.4418189,2.55493545 L22.3144165,2.54460552 L22.4131247,2.38850884 L22.5990634,2.10500971 L22.7850021,1.8398749 L22.7850021,1.0961201 L22.6093933,1.30157089 Z M20.661628,1.25336456 L20.6501503,1.26254672 L20.2713863,1.50702167 L20.2599086,1.50702167 L19.8903268,1.78133864 L19.8788491,1.78133864 L19.8099829,1.8398749 L19.8099829,2.43671516 L19.8099829,2.65134811 L19.9568974,2.68004235 L20.2025201,2.73054422 L20.4458473,2.76956839 L20.6811401,2.80859256 L20.906103,2.84761673 L20.906103,2.36899675 L20.7591885,2.34948466 L20.5238957,2.2989828 L20.2817163,2.25995862 L20.0842999,2.22093445 L20.1703826,2.15321604 L20.5330778,1.89841116 L20.906103,1.66426613 L20.906103,1.11448442 L20.661628,1.25336456 Z M31.7490838,1.67344829 L31.7697436,1.68377821 L31.8948505,1.73198454 L31.8856684,1.73198454 L31.837462,1.7411667 L31.7490838,1.69296037 L31.7490838,2.25995862 L31.7789258,2.25077647 L32.1588376,2.45622725 L32.650083,2.75923846 L33.1298508,3.07372737 L33.1298508,2.50443358 L32.9152178,2.36899675 L32.9048879,2.35866682 L32.4228246,2.06483777 L32.4733265,2.05565561 L32.6087633,2.00630151 L33.0208126,2.18191028 L33.1298508,2.23126438 L33.1298508,1.71362023 L32.5812168,1.48750959 L32.5812168,1.47832743 L31.9350225,1.23385247 L31.9246925,1.23385247 L31.7490838,1.17302068 L31.7490838,1.67344829 Z M17.9023896,1.23385247 L17.5121479,1.37961923 L17.5121479,2.55493545 L17.6774267,2.45622725 L18.0493041,2.25077647 L18.0676684,2.25077647 L18.0883283,2.25995862 L18.0883283,1.69296037 L17.9907679,1.7411667 L17.9609258,1.7411667 L17.9299361,1.73198454 L18.0676684,1.67344829 L18.0883283,1.67344829 L18.0883283,1.17302068 L17.9023896,1.23385247 Z M27.2762251,2.16354597 L27.4128097,2.37932668 L27.5103701,2.54460552 L27.3955931,2.55493545 L27.2762251,2.56411761 L27.2762251,3.04273759 L27.4334695,3.0232255 L27.6894222,3.00371342 L27.7755049,2.99453126 L27.7846871,3.00371342 L27.9511137,3.33771441 L28.1267225,3.69811411 L28.1473823,3.75779814 L28.1473823,2.47573934 L28.1267225,2.47573934 L28.0406397,2.48492149 L28.0096499,2.44589732 L27.8260068,2.13370395 L27.8156769,2.13370395 L27.6308859,1.8398749 L27.620556,1.83069274 L27.4334695,1.56555793 L27.4231396,1.555228 L27.2762251,1.3692893 L27.2762251,2.16354597 Z M17.2561952,1.47832743 L17.2470131,1.48750959 L16.7098568,1.71362023 L16.7098568,2.23126438 L16.8154516,2.18191028 L17.2160233,2.00630151 L17.3847454,2.05565561 L17.4122919,2.06483777 L16.923342,2.35866682 L16.9130121,2.36899675 L16.7098568,2.50443358 L16.7098568,3.07372737 L17.1769991,2.75923846 L17.5121479,2.55493545 L17.5121479,1.37961923 L17.2561952,1.47832743 Z M33.1298508,2.23126438 L33.637165,2.46540941 L34.2259709,2.76956839 L34.4876624,2.91648292 L34.4876624,2.37932668 L34.4612637,2.35866682 L34.449786,2.34948466 L33.8437635,2.04532568 L33.2262634,1.75034886 L33.218229,1.75034886 L33.1298508,1.71362023 L33.1298508,2.23126438 Z M16.6180352,1.75034886 L16.6100008,1.75034886 L15.9936485,2.04532568 L15.9936485,2.57444753 L16.1876216,2.46540941 L16.7098568,2.23126438 L16.7098568,1.71362023 L16.6180352,1.75034886 Z M15.9856141,2.04532568 L15.3784439,2.34948466 L15.368114,2.35866682 L14.7712737,2.68004235 L14.759796,2.69152005 L14.1824678,3.03240766 L13.6154696,3.40428506 L13.6051397,3.40428506 L13.0496191,3.79567454 L12.7936665,3.98276101 L12.7936665,4.57041912 L13.3308227,4.17902963 L13.8806044,3.79567454 L14.4372727,3.43527484 L15.0157487,3.09323946 L15.602259,2.76956839 L15.9936485,2.57444753 L15.9936485,2.04532568 L15.9856141,2.04532568 Z M28.8429308,2.37932668 L28.6087857,2.41720308 L28.363163,2.44589732 L28.1473823,2.47573934 L28.1473823,3.75779814 L28.2942968,4.08032144 L28.4515413,4.47285869 L28.6087857,4.88146472 L28.7660302,5.32450384 L28.9186836,5.76409965 L28.9301613,5.79279389 L28.9301613,4.37415049 L28.901467,4.30528431 L28.8911371,4.29610215 L28.7350404,3.89553051 L28.5594316,3.50414103 L28.3838229,3.13111586 L28.2839669,2.935995 L28.4216993,2.91648292 L28.4320292,2.91648292 L28.6661742,2.88778867 L28.6753564,2.88778867 L28.9186836,2.84761673 L28.9301613,2.84761673 L28.9301613,2.36899675 L28.8429308,2.37932668 Z M34.4876624,2.91648292 L34.8228111,3.09323946 L35.4001393,3.43527484 L35.9464777,3.79567454 L36.5042938,4.17902963 L37.0334157,4.57041912 L37.5441732,4.98132069 L38.0514874,5.4209165 L38.3544986,5.69638124 L38.3544986,5.05822126 L37.8563666,4.62895537 L37.8563666,4.61977322 L37.3272447,4.20772388 L37.3272447,4.19854172 L36.7900885,3.79567454 L36.7797585,3.79567454 L36.2196469,3.40428506 L35.6537964,3.03240766 L35.6446143,3.03240766 L35.0672861,2.69152005 L35.0569562,2.68004235 L34.4876624,2.37932668 L34.4876624,2.91648292 Z M33.1298508,3.07372737 L33.1390329,3.09323946 L33.1482151,3.09323946 L33.6279828,3.42494491 L34.0779086,3.77616245 L34.4876624,4.12164115 L34.4876624,3.50414103 L34.3912497,3.42494491 L34.3832153,3.41576276 L33.9103342,3.05306752 L33.9022998,3.04273759 L33.4122021,2.70184998 L33.1298508,2.50443358 L33.1298508,3.07372737 Z M16.4137322,2.70184998 L15.9936485,2.99453126 L15.9936485,3.59022376 L16.2186114,3.42494491 L16.678867,3.09323946 L16.7098568,3.07372737 L16.7098568,2.50443358 L16.4137322,2.70184998 Z M15.9247823,3.04273759 L15.9144524,3.05306752 L15.4461623,3.41576276 L15.4461623,3.42494491 L14.9755767,3.80600447 L14.9755767,3.81748217 L14.5279465,4.20772388 L14.5176166,4.21805381 L14.0757253,4.63813753 L13.6544938,5.07888111 L13.6453116,5.07888111 L13.2332623,5.52880685 L13.2332623,5.53913678 L12.8315429,6.00857461 L12.8235085,6.00857461 L12.7936665,6.04874655 L12.7936665,7.04501068 L13.0783133,7.14257111 L13.0886433,7.14257111 L13.4983971,7.27112132 L13.508727,7.27112132 L13.9196286,7.38934161 L14.3408601,7.51559628 L14.3500422,7.51559628 L14.7793081,7.63266879 L15.2108695,7.74055915 L15.3199077,7.76925339 L15.1718454,8.07341237 L15.1718454,8.08259453 L14.9468825,8.62204631 L14.9468825,8.63122847 L14.7219196,9.17871464 L14.7219196,9.18904456 L14.5176166,9.75719059 L14.3190524,10.3345188 L14.3190524,10.3437009 L14.1331137,10.9302113 L14.5945172,11.0679436 L14.7712737,10.4802855 L14.9652468,9.9121395 L15.1718454,9.35432341 L15.3864783,8.79650731 L15.6114412,8.26853323 L15.7881977,7.87714375 L15.9936485,7.92764562 L15.9936485,6.42062394 L15.93626,6.52736653 L15.93626,6.53654869 L15.6711252,7.02664637 L15.661943,7.03582853 L15.5253584,7.32850981 L15.327942,7.28030348 L14.8975284,7.17356089 L14.4762969,7.06681831 L14.0562132,6.93712033 L13.6453116,6.82119558 L13.2240801,6.69264537 L12.9692752,6.60656264 L13.1953859,6.31273359 L13.5948097,5.85133015 L14.0080068,5.40140441 L14.4177606,4.97213853 L14.8481743,4.56008919 L15.2889179,4.16869971 L15.7491735,3.77616245 L15.9936485,3.59022376 L15.9936485,2.99453126 L15.9247823,3.04273759 Z M31.7490838,4.16869971 L32.0337307,4.53024718 L32.3355941,4.94344428 L32.6397531,5.37385794 L32.9232522,5.81230598 L33.1298508,6.1451592 L33.1298508,5.25563765 L33.0403247,5.11905305 L33.0311426,5.10872313 L32.7373135,4.66797955 L32.7269836,4.66797955 L32.4147902,4.24789582 L32.4044603,4.23756589 L32.0911191,3.83584648 L32.081937,3.83584648 L31.7594137,3.444457 L31.7490838,3.444457 L31.7490838,3.43527484 L31.7490838,4.16869971 Z M18.0779984,3.444457 L18.0676684,3.444457 L17.7462929,3.83584648 L17.5121479,4.12852777 L17.5121479,4.9124545 L17.7944992,4.53024718 L18.0883283,4.16869971 L18.0883283,3.43527484 L18.0779984,3.444457 Z M34.4876624,4.12164115 L34.539312,4.15836978 L34.98809,4.56008919 L35.4185036,4.97213853 L35.8294052,5.40140441 L36.2311246,5.84214799 L36.6316962,6.31273359 L36.866989,6.60656264 L36.5823421,6.69264537 L36.1737361,6.82119558 L35.7628346,6.94745026 L35.3404553,7.06681831 L34.9203716,7.17356089 L34.4876624,7.29063341 L34.4876624,8.91472759 L34.6644189,9.35432341 L34.8606875,9.90295734 L35.0569562,10.4802855 L35.2428949,11.0679436 L35.6916728,10.9302113 L35.5057341,10.3437009 L35.5057341,10.3345188 L35.322091,9.75719059 L35.1063103,9.18904456 L35.1063103,9.17871464 L34.8916773,8.63122847 L34.8916773,8.62204631 L34.6563845,8.08259453 L34.6563845,8.07341237 L34.5197999,7.76925339 L34.6047349,7.74055915 L35.0374441,7.63266879 L35.0466262,7.63266879 L35.46671,7.52592621 L35.46671,7.51559628 L35.8994192,7.39737599 L36.3183551,7.27112132 L36.7292567,7.14257111 L36.7407344,7.14257111 L37.1516359,7.01631644 L37.1516359,7.00713428 L37.171148,7.00713428 L37.3570867,7.27112132 L37.7071565,7.77958332 L38.0514874,8.29952301 L38.3544986,8.82749709 L38.3544986,7.90698576 L38.1100237,7.52592621 L38.1100237,7.51559628 L37.7576584,7.00713428 L37.7473284,6.99795212 L37.6394381,6.8510376 L37.9631092,6.73281731 L37.9722913,6.73281731 L38.3544986,6.59623271 L38.3544986,6.08777072 L38.2087319,6.1451592 L37.8058647,6.29207373 L37.4052931,6.4298061 L37.345609,6.45046596 L37.0035736,6.00857461 L36.9932437,6.00857461 L36.6041498,5.53913678 L36.5938198,5.52880685 L36.1829183,5.07888111 L35.7525046,4.63813753 L35.3129088,4.21805381 L35.3129088,4.20772388 L34.8606875,3.80600447 L34.8492098,3.80600447 L34.4876624,3.50414103 L34.4876624,4.12164115 Z M12.5113151,4.19854172 L12.5009852,4.19854172 L12.1187778,4.51188286 L12.1187778,5.12708744 L12.2840567,4.98132069 L12.7936665,4.57041912 L12.7936665,3.98276101 L12.5113151,4.19854172 Z M17.4226218,4.23756589 L17.4122919,4.24789582 L17.1000985,4.66797955 L16.7959395,5.10872313 L16.7959395,5.11905305 L16.7098568,5.24415996 L16.7098568,6.1451592 L16.9026821,5.82148814 L17.1965112,5.37385794 L17.4903402,4.94344428 L17.5121479,4.9124545 L17.5121479,4.12852777 L17.4226218,4.23756589 Z M20.7695184,4.7265158 L20.6134217,5.15807723 L20.6134217,5.16611161 L20.4561773,5.61718512 L20.3092627,6.08777072 L20.3092627,6.09695288 L20.1703826,6.57557286 L20.1703826,6.58590279 L20.0349458,7.0748527 L19.9075433,7.59364462 L19.8983612,7.59364462 L19.8099829,7.99536403 L19.8099829,10.4504435 L19.9075433,9.8742631 L20.0165814,9.316447 L20.1244718,8.76781307 L20.1520183,8.6415584 L20.6237516,8.68976473 L20.906103,8.71960674 L20.906103,8.23983899 L20.6696624,8.2203269 L20.2599086,8.1709728 L20.367799,7.7118649 L20.4952014,7.19307298 L20.631786,6.70412307 L20.7695184,6.22435532 L20.906103,5.79279389 L20.906103,4.36496833 L20.7695184,4.7265158 Z M28.9301613,5.79279389 L29.0587115,6.22435532 L29.1952961,6.70412307 L29.3330285,7.20340291 L29.4592831,7.7118649 L29.5763556,8.1709728 L29.1470898,8.2203269 L28.9301613,8.23983899 L28.9301613,8.71960674 L29.2044782,8.68976473 L29.6647339,8.6415584 L29.6750638,8.6415584 L29.7037581,8.75863091 L29.8116484,9.316447 L29.9195388,9.8742631 L30.0170992,10.4504435 L30.1158074,11.0381016 L30.5840975,10.9600533 L30.486537,10.3735429 L30.3889766,9.79621476 L30.3889766,9.78588483 L30.282234,9.22806873 L30.282234,9.21773881 L30.1640137,8.67025264 L30.1536838,8.58187437 L30.5840975,8.52333811 L30.5932796,8.52333811 L31.0455009,8.4556197 L31.5057566,8.38675351 L31.7490838,8.33739941 L31.7490838,7.85763166 L31.4277082,7.91731569 L30.975487,7.9850341 L30.5244134,8.05390029 L30.0767832,8.11243654 L30.0457935,8.11243654 L29.9298687,7.59364462 L29.7898408,7.0748527 L29.654404,6.57557286 L29.5178194,6.08777072 L29.3720526,5.62751505 L29.3720526,5.61718512 L29.2228426,5.16611161 L29.2228426,5.15807723 L29.0587115,4.7265158 L29.0587115,4.71618587 L28.9301613,4.37415049 L28.9301613,5.79279389 Z M11.9821932,4.61977322 L11.9718633,4.62895537 L11.7859246,4.78505206 L11.7859246,5.41173434 L12.1187778,5.12708744 L12.1187778,4.51188286 L11.9821932,4.61977322 Z M11.4622536,5.05822126 L11.4622536,5.06855119 L10.9641215,5.51962469 L10.8860731,5.59652527 L10.8860731,6.37012207 L11.0421698,6.4298061 L11.051352,6.4298061 L11.4427415,6.57557286 L11.7859246,6.70412307 L11.7859246,6.20369546 L11.6103158,6.13482928 L11.2166308,5.98906252 L11.1787544,5.97988036 L11.2981225,5.86166008 L11.7859246,5.41173434 L11.7859246,4.78505206 L11.4622536,5.05822126 Z M38.3544986,5.05822126 L38.3544986,5.69638124 L38.5301074,5.86166008 L38.6483277,5.97988036 L38.5989736,5.99824468 L38.3544986,6.08777072 L38.3544986,6.59623271 L38.3728629,6.58590279 L38.766548,6.43898826 L38.7757301,6.43898826 L39.0202051,6.34142783 L39.4506187,6.8016835 L39.8913623,7.29063341 L40.311446,7.7990954 L40.7028355,8.30870517 L41.0930772,8.84700918 L41.4488859,9.38416542 L41.7897735,9.95231144 L41.8012512,9.95231144 L42.1122968,10.5216052 L42.415308,11.1069678 L42.8353917,10.8923349 L42.5427104,10.3046768 L42.5312327,10.2943468 L42.2121527,9.71701865 L42.200675,9.70783649 L41.8574919,9.13969046 L41.4867623,8.58187437 L41.0930772,8.0343882 L40.6936534,7.50526635 L40.6833234,7.49608419 L40.2529098,6.98876997 L40.2529098,6.97729227 L39.8121662,6.48834236 L39.802984,6.47801243 L39.3530583,5.99824468 L39.3438762,5.98906252 L38.8721428,5.51962469 L38.8629606,5.51962469 L38.3728629,5.06855119 L38.362533,5.05822126 L38.3544986,5.05822126 Z M16.5032583,5.56783102 L16.4917806,5.56783102 L16.2094292,6.03726885 L15.9936485,6.42062394 L15.9936485,7.44673009 L16.1015389,7.24127931 L16.355196,6.76151156 L16.6283652,6.27256165 L16.7098568,6.1451592 L16.7098568,5.24415996 L16.5032583,5.56783102 Z M33.1298508,6.1451592 L33.2067513,6.28289157 L33.4718861,6.7523294 L33.7255433,7.24127931 L33.8334336,7.44673009 L33.6279828,7.48575426 L33.1975692,7.58331469 L33.1298508,7.60397455 L33.1298508,8.08259453 L33.2951296,8.04357036 L33.7358732,7.9471577 L34.0388844,7.87714375 L34.2144932,8.2582033 L34.449786,8.80683724 L34.4876624,8.91472759 L34.4876624,7.29063341 L34.3028714,7.32850981 L34.1582525,7.03582853 L34.1582525,7.02664637 L33.8931176,6.53654869 L33.8931176,6.52736653 L33.6188007,6.03726885 L33.3341538,5.56783102 L33.3238238,5.56783102 L33.1298508,5.25563765 L33.1298508,6.1451592 Z M10.4843537,5.98906252 L10.4763193,5.99824468 L10.0240981,6.47801243 L10.0126204,6.48834236 L9.58335448,6.97729227 L9.57302455,6.98876997 L9.14490644,7.49608419 L9.14490644,7.50526635 L8.74318703,8.02405827 L8.7328571,8.0343882 L8.34261539,8.58187437 L7.97992015,9.13969046 L7.96959022,9.13969046 L7.62640707,9.70783649 L7.61722491,9.71701865 L7.29470161,10.2943468 L7.29470161,10.3046768 L6.99054263,10.8923349 L7.41062636,11.1069678 L7.71478534,10.5296396 L8.03960418,9.95231144 L8.38163956,9.38416542 L8.74318703,8.84700918 L9.11506443,8.3190351 L9.51678384,7.7990954 L9.94604972,7.29063341 L10.3764634,6.8016835 L10.806877,6.34142783 L10.8860731,6.37012207 L10.8860731,5.59652527 L10.4843537,5.98906252 Z M12.4895075,6.45046596 L12.4137547,6.42062394 L12.1187778,6.32191575 L12.1187778,6.82119558 L12.1864963,6.8510376 L12.1187778,6.93712033 L12.1187778,7.77958332 L12.461961,7.28030348 L12.6674118,7.00713428 L12.7936665,7.04501068 L12.7936665,6.04874655 L12.4895075,6.45046596 Z M11.7859246,6.70412307 L11.8467564,6.72133962 L11.8547908,6.72133962 L12.1187778,6.82119558 L12.1187778,6.32191575 L12.0097397,6.28289157 L11.7859246,6.20369546 L11.7859246,6.70412307 Z M12.0786059,6.99795212 L12.0705715,7.00713428 L11.7859246,7.41803585 L11.7859246,8.28919308 L12.1187778,7.77958332 L12.1187778,6.93712033 L12.0786059,6.99795212 Z M11.7170584,7.51559628 L11.7170584,7.52592621 L11.3750231,8.04357036 L11.3750231,8.05390029 L11.051352,8.5922043 L11.051352,8.60138645 L10.8860731,8.90669321 L10.8860731,9.93279936 L11.1695723,9.38416542 L11.4737312,8.82749709 L11.7859246,8.28919308 L11.7859246,7.41803585 L11.7170584,7.51559628 Z M15.9936485,7.92764562 L16.0820268,7.9471577 L16.5239181,8.04357036 L16.7098568,8.08259453 L16.7098568,7.59364462 L16.6283652,7.58331469 L16.1876216,7.48575426 L15.9936485,7.44673009 L15.9936485,7.92764562 Z M16.7098568,8.08259453 L16.9635139,8.13194863 L16.9738439,8.13194863 L17.4122919,8.2203269 L17.5121479,8.23983899 L17.5121479,7.76007123 L17.0599266,7.67284073 L16.7098568,7.59364462 L16.7098568,8.08259453 Z M32.7579734,7.67284073 L32.316082,7.76007123 L31.877634,7.83811958 L31.7490838,7.85763166 L31.7490838,8.33739941 L31.9545345,8.30870517 L32.4044603,8.2203269 L32.8555338,8.14342633 L33.1298508,8.08259453 L33.1298508,7.60397455 L32.7579734,7.67284073 Z M17.5121479,8.23983899 L17.8622176,8.30870517 L17.8736953,8.30870517 L18.0883283,8.33739941 L18.0883283,7.85763166 L17.9517437,7.83811958 L17.5121479,7.76007123 L17.5121479,8.23983899 Z M18.0883283,8.33739941 L18.3132911,8.37642359 L18.3224733,8.37642359 L18.7712513,8.4556197 L19.2315069,8.52333811 L19.6837282,8.57269221 L19.6653639,8.66107048 L19.6653639,8.67025264 L19.5471436,9.21773881 L19.5471436,9.22806873 L19.4381055,9.78588483 L19.4381055,9.79621476 L19.3416928,10.3735429 L19.2533146,10.9600533 L19.7216046,11.0381016 L19.8099829,10.4711034 L19.8099829,7.99536403 L19.7801409,8.11243654 L19.7606288,8.11243654 L19.3026687,8.05390029 L18.8435608,7.9850341 L18.3913395,7.91731569 L18.0883283,7.85763166 L18.0883283,8.33739941 Z M38.3544986,8.82749709 L38.6575098,9.37383549 L38.9513389,9.94312928 L39.2141782,10.5101275 L39.4701308,11.0886035 L39.9120222,10.901517 L39.6549218,10.3241888 L39.6549218,10.3138589 L39.3817526,9.73653073 L39.3725704,9.72734857 L39.0879235,9.15805478 L39.0764458,9.15002039 L38.7757301,8.60138645 L38.7757301,8.5922043 L38.4532068,8.05390029 L38.4532068,8.04357036 L38.3544986,7.90698576 L38.3544986,8.82749709 Z M28.6983118,8.26853323 L28.2265784,8.30870517 L28.1473823,8.30870517 L28.1473823,8.78732515 L28.2656026,8.77699523 L28.7350404,8.73797105 L28.9301613,8.71960674 L28.9301613,8.23983899 L28.6983118,8.26853323 Z M20.906103,8.71960674 L21.0920417,8.73797105 L21.5626273,8.77699523 L22.0320651,8.80683724 L22.5118329,8.84700918 L22.7850021,8.85619134 L22.7850021,8.38675351 L22.5405271,8.37642359 L22.0722371,8.33739941 L21.6005037,8.30870517 L21.1322136,8.26853323 L20.906103,8.23983899 L20.906103,8.71960674 Z M27.7571406,8.33739941 L27.2854072,8.37642359 L27.2762251,8.37642359 L27.2762251,8.84700918 L27.316397,8.84700918 L27.795017,8.80683724 L28.1473823,8.78732515 L28.1473823,8.30870517 L27.7571406,8.33739941 Z M10.7494885,9.15002039 L10.7380108,9.15805478 L10.4568073,9.72734857 L10.4453296,9.73653073 L10.1824903,10.3138589 L10.1824903,10.3241888 L9.92538987,10.901517 L10.3661334,11.0886035 L10.6129039,10.5101275 L10.8860731,9.93279936 L10.8860731,8.90669321 L10.7494885,9.15002039 Z" id="Fill-1" fill="#00ADB1"></path>
                    <g transform="translate(0.000000, 8.268992)">
                        <path d="M15.0838114,0.382207324 L23.3328326,5.64587937 L14.5753494,13.6607555 L14.213802,11.8805646 C13.6548381,11.8312105 12.4508276,12.1732459 12.4508276,12.1732459 L12.3922914,2.36784898 C12.5013295,2.22208222 14.3974451,1.70214253 14.3974451,1.70214253 L14.3802286,0 L15.0838114,0.382207324 Z" id="Fill-2" fill="#006D86"></path>
                        <polygon id="Fill-4" fill="#006D86" points="31.8945062 10.6470565 31.2586417 10.559826 31.2907793 0.969061994 31.8945062 1.04711034"></polygon>
                        <path d="M36.2614257,11.3515575 L35.4763512,11.2735092 L35.4763512,1.72291716 C35.4763512,1.72291716 36.1328755,1.74242925 36.2407659,1.86868392 L36.2614257,11.3515575 Z" id="Fill-6" fill="#006D86"></path>
                        <path d="M11.8254079,12.3210786 C11.3169459,12.4576632 10.7499476,12.663114 10.1909838,12.8008464 L10.1726195,2.97478962 C10.6328751,2.77966876 11.2584096,2.61324215 11.815078,2.53519381 L11.8254079,12.3210786 Z" id="Fill-8" fill="#006D86"></path>
                        <path d="M39.9782485,12.3099453 C39.7739455,12.2525568 39.5593125,12.2123848 39.2448236,12.1446664 L39.2253115,2.53553814 C39.2253115,2.53553814 39.8118219,2.55505023 40.0080905,2.7685354 L39.9782485,12.3099453 Z" id="Fill-10" fill="#006D86"></path>
                        <path d="M9.33933863,3.23028316 L9.33933863,13.0058381 L7.90233092,13.5338121 L7.88167106,3.68939106 C8.31208471,3.51378229 8.88826513,3.37604992 9.33933863,3.23028316" id="Fill-12" fill="#006D86"></path>
                        <path d="M43.1099382,4.0127178 L43.1099382,13.3085049 C43.6482422,13.4657494 44.0201196,13.6608703 44.4998874,13.8376268 L44.4907052,4.53150972 C44.9096412,4.60955807 45.2149479,4.88387503 45.2149479,4.88387503 L45.2149479,14.1211259 C45.2929963,14.140638 45.4972993,14.2290163 45.6740558,14.3070646 L45.8014583,14.3667487 L45.8221181,5.25575243 C46.0562632,5.34298293 46.4201062,5.49104523 46.4361749,5.63681199 L46.4201062,14.6594299 C46.495859,14.7868324 46.6347391,14.8648807 46.7621416,14.9142348 L46.7690282,5.78257874 L47.2396138,6.09591988 L47.2201017,15.1196856 C47.2992978,15.1690397 47.4439168,15.3549784 47.5139307,15.3354663 L47.4932709,6.30251844 C47.7790655,6.47697944 47.9546743,6.58601756 47.9925507,6.73293209 L47.9833686,15.6292954 L48.2576855,15.8726226 L48.2393212,6.95789496 C48.4424765,7.08414963 48.589391,7.23221193 48.6995769,7.4571748 L48.6800648,16.1469395 C48.7374533,16.1767815 48.8453436,16.4706106 48.953234,16.4212565 L48.953234,7.75100385 C49.0794887,7.65344342 49.2769051,8.03450298 49.3836476,8.10336916 L49.3836476,16.9297185 C49.4605482,16.9779248 49.5087545,17.106475 49.6086105,17.106475 L49.6086105,8.48442872 L49.9908178,8.88614813 L50,18.2806435 C49.4226718,20.6863689 46.0746275,22.2243803 43.893865,23.3595246 C42.2399288,24.1618156 40.5159786,24.7391438 38.7667775,25.2958121 C38.560179,25.2958121 38.285862,25.1707052 38.285862,24.9445946 L38.285862,15.0404895 C39.7056532,14.5423574 41.0760902,13.8571389 42.4258675,13.1030542 L42.4339019,3.66953465 C42.5050636,3.65920472 42.9928657,3.83710903 43.1099382,4.0127178" id="Fill-14" fill="#006D86"></path>
                        <path d="M6.82514901,13.9250869 C6.97091577,13.8470385 7.42084151,13.6806119 7.42084151,13.6806119 C7.98898753,14.1006956 8.6730583,14.7273779 9.58323971,15.1577916 C11.3060421,16.0783029 13.380062,16.5867649 15.3588171,16.6854731 C13.9091839,21.0297816 16.4836314,25.1594571 19.3025539,26.9603078 C13.409904,26.5402241 8.32298853,25.6197128 2.78385175,22.9098284 C1.63952531,22.3118404 0.111843785,21.1089777 0.0142833568,19.6409802 C0.0142833568,19.6409802 -0.017854196,9.51191219 0.0142833568,9.69785089 C0.0728196137,9.21808314 0.58013384,8.44678187 0.58013384,8.44678187 L0.621453551,18.1132986 L1.06908375,17.5474482 L1.0518672,7.87748808 C1.15860979,7.68236722 1.38357266,7.41723241 1.67740171,7.20259947 L1.65674186,16.9689722 C1.65674186,16.9689722 1.99189062,16.6464489 2.14683954,16.5477407 L2.14683954,6.77218582 L2.94913059,6.15583346 L2.93191404,15.9405705 C3.12473936,15.7752917 3.4989123,15.5996829 3.4989123,15.5996829 L3.4989123,5.82183247 C3.84094768,5.56817535 4.36892176,5.23532213 4.69029729,5.15727379 L4.69029729,14.8754402 C4.96346649,14.74689 5.55227237,14.512745 5.55227237,14.512745 L5.53046474,4.66947165 C5.93333192,4.44336101 6.39243982,4.20806821 6.82514901,4.11050778 L6.82514901,13.9250869 Z" id="Fill-16" fill="#006D86"></path>
                        <path d="M24.9081465,32.3028316 L24.3296706,32.2936495 L23.7534902,32.2741374 L23.1876397,32.2247833 L22.6194937,32.1754292 L22.0616776,32.1088586 L21.5027137,32.0193325 L20.9448976,31.9114422 L20.4077414,31.8046996 L19.8591074,31.6772971 L19.3311334,31.5303826 L18.7928293,31.3651038 L18.276333,31.1975294 L17.7563933,31.0104429 L17.2467835,30.8049921 L16.7383215,30.6006891 L16.2493716,30.3757263 L15.7581261,30.1312513 L15.2795062,29.8867763 L14.802034,29.6216415 L14.3406305,29.3484723 L13.8815226,29.0638254 L13.4304491,28.7608142 L12.9908533,28.4486209 L12.5581441,28.1341319 L12.1277304,27.8024265 L11.7168289,27.4592433 L11.3162572,27.106878 L10.9248678,26.7350006 L10.534626,26.3631232 L9.79890564,25.6010041 L9.51655428,25.2773331 L9.79890564,25.3461992 C11.257721,25.7180766 12.9219871,25.7467709 14.4175311,25.7467709 L14.6643016,25.7364409 L14.9179587,25.7272588 L15.1727636,25.7272588 L15.4367506,25.7065989 L15.68926,25.6870869 L15.9543948,25.6583926 L16.2195296,25.6296984 L16.491551,25.6010041 L16.9024526,25.5413201 L17.099869,25.5114781 L17.4797808,25.4540896 L17.8539537,25.3944056 L18.5495022,25.2773331 L19.1738889,25.1705905 L19.761547,25.0615523 L20.2814867,24.9651397 L20.7509245,24.8652837 L21.1710083,24.7780532 L21.5337035,24.6896749 L21.8458969,24.6104788 L22.1098839,24.5427604 L22.3141869,24.4945541 L22.4817613,24.4452 L22.5988338,24.415358 L22.6665522,24.3958459 L22.6860643,24.3878115 L22.7170541,24.4061758 L22.7962502,24.4452 L22.9328348,24.5140662 L23.1268079,24.6012967 L23.2438804,24.6609807 L23.3816128,24.709187 L23.5273795,24.7688711 L23.6869195,24.8262595 L23.8625283,24.8951257 L24.0473192,24.9548098 L24.2424401,25.0225282 L24.457073,25.0810644 L24.6923658,25.1499306 L24.9379886,25.2187968 L25.1927934,25.2773331 L25.4579282,25.3358693 L25.7414274,25.3944056 L26.0341087,25.4540896 L26.346302,25.5034437 L26.6699731,25.5505023 L27.0120085,25.6010041 L27.3666693,25.6296984 L27.727069,25.6687225 L28.1092764,25.6974168 L28.4995181,25.7180766 L28.9115674,25.7272588 L29.3316511,25.7272588 L29.7735425,25.7272588 L29.8217488,25.7272588 L29.9778455,25.7272588 L30.0857358,25.7364409 L30.2039561,25.7467709 L30.3302108,25.7571008 L30.4782731,25.785795 L30.5459915,25.796125 L30.6148577,25.8053071 L30.6825761,25.8248192 L30.7617722,25.8443313 L30.8283429,25.8649912 L30.8983568,25.8948332 L30.9660752,25.9143453 L31.0349414,25.9418917 L31.0934777,25.9717337 L31.1520139,26.0015758 L31.2105502,26.0405999 L31.2690865,26.0796241 L31.3184406,26.1175005 L31.3574647,26.1668546 L31.4068188,26.2173565 L31.4366608,26.2655628 L31.4550252,26.2563806 L31.5238913,26.2265386 L31.5640633,26.2070265 L31.6111218,26.1771845 L31.6708059,26.1576724 L31.7385243,26.1381604 L31.8073905,26.1175005 L31.8854388,26.1094661 L31.9646349,26.0991362 L32.0426833,26.0888063 L32.0920374,26.0888063 L32.1310615,26.0888063 L32.1792679,26.0991362 L32.2297697,26.0991362 L32.2676461,26.1094661 L32.3158525,26.1175005 L32.3663543,26.1289782 L32.4042307,26.1484903 L32.4535848,26.1668546 L32.5029389,26.1771845 L32.5408153,26.1875145 L32.582135,26.1978444 L32.6314891,26.1978444 L32.6693655,26.2070265 L32.7083897,26.2070265 L32.7462661,26.2070265 L32.8162801,26.2070265 L32.8828507,26.1978444 L32.9436825,26.1875145 L33.001071,26.1668546 L33.060755,26.1576724 L33.0986314,26.1289782 L33.1388034,26.1094661 L33.1686454,26.0991362 L33.2179995,26.0692942 L33.2260339,26.060112 L33.245546,26.0497821 L33.30523,26.03027 L33.335072,26.0210878 L33.3855739,26.0015758 L33.4326324,25.9912458 L33.5003508,25.9809159 L33.5600349,25.9809159 L33.6277533,25.9809159 L33.7058016,25.9809159 L33.78385,25.9912458 L33.8228741,26.0015758 L33.873376,26.0107579 L33.9112524,26.0210878 L33.9514243,26.03027 L34.0007784,26.0497821 L34.047837,26.0692942 L34.0983389,26.0888063 L34.1362153,26.1175005 L34.1580229,26.0888063 L34.2257413,26.0107579 L34.2739476,25.9625516 L34.3324839,25.9028676 L34.3715081,25.8741733 L34.4208622,25.8443313 L34.4610341,25.8156371 L34.5080927,25.785795 L34.5666289,25.7571008 L34.626313,25.7272588 L34.6871447,25.7065989 L34.7514199,25.6870869 L34.8317637,25.6583926 L34.9098121,25.6400283 L34.9878604,25.6193684 L35.0750909,25.6101863 L35.1737991,25.5906742 L35.2725073,25.5906742 L35.3712155,25.5803443 L35.4871403,25.5803443 L35.6042128,25.5803443 L35.7224331,25.5906742 L35.8498355,25.6010041 L35.9864201,25.6193684 L35.9864201,25.5803443 L35.9760902,25.4724539 L35.9760902,25.3944056 L35.9864201,25.3163572 L35.9864201,25.227979 L36.0059322,25.1304185 L36.0151143,25.0718823 L36.026592,25.0225282 L36.036922,24.9731741 L36.0529907,24.9249677 L36.0747984,24.8756136 L36.0943105,24.8262595 L36.1230047,24.7780532 L36.1425168,24.7286991 L36.1735066,24.6804928 L36.2125307,24.6299909 C37.2202726,23.4477881 39.4503892,25.0810644 41.0859611,24.3269797 L40.2733401,25.3060273 L39.9209748,25.6974168 L39.5594273,26.0796241 L39.1864021,26.4618314 L38.8041948,26.8233789 L38.4047709,27.1849264 L38.0019038,27.5269617 L37.59215,27.8701449 L37.1709185,28.193816 L36.7416526,28.5163393 L36.2997612,28.8193505 L35.8498355,29.1120318 L35.4010575,29.3966787 L34.9304719,29.6618135 L34.4610341,29.9258005 L33.9801186,30.1702755 L33.5003508,30.4044205 L33.001071,30.6202012 L32.5029389,30.8348341 L31.9933292,31.0322505 L31.4848672,31.2170415 L30.9660752,31.3834681 L30.4392489,31.5395648 L29.9101271,31.6864793 L29.3718231,31.8046996 L28.8346668,31.9217721 L28.2837374,32.0193325 L27.727069,32.1088586 L27.1692529,32.1754292 L26.6114368,32.2247833 L26.0444386,32.2741374 L25.4866225,32.2936495 L24.9081465,32.3028316 Z" id="Fill-18" fill="#00456D"></path>
                        <path d="M26.8293983,22.2335625 L26.8293983,25.5414349 C26.5929577,25.9913606 26.2497746,26.4803105 25.779189,27.0094324 L24.8701554,27.0094324 L24.8196535,27.0094324 C20.9447828,26.961226 17.5783742,23.8186325 17.275363,19.9334319 L17.275363,19.9242497 L17.275363,18.8384596 C17.5209857,15.6384775 19.966883,13.1432261 23.2162192,12.8780913 L23.7533754,12.8482493 L25.4474835,12.8482493 C24.3616934,14.344941 23.9989981,15.5891234 24.0563866,16.6749136 L24.0781942,16.9297185 C24.313487,19.0243983 26.0156296,20.5497843 26.8293983,22.2335625 L26.8293983,22.2335625 Z M26.8293983,12.8689091 L26.8293983,13.0054937 C24.2916794,16.0011728 25.5163497,18.0246908 26.8293983,20.012628 L26.8293983,20.4131997 C26.8064429,20.3741755 26.7766009,20.3454812 26.7582366,20.3053093 C25.3384454,18.1727531 23.9002899,16.0195371 26.7192124,12.7702009 L26.8293983,12.8689091 Z M26.8293983,14.6502478 C26.1832039,15.8634404 26.3461872,16.9492306 26.8293983,17.9959966 L26.8293983,14.6502478 Z M26.8293983,13.0054937 L26.8293983,12.8689091 L26.895969,12.9274454 C26.8753091,12.9561396 26.8454671,12.9848339 26.8293983,13.0054937 L26.8293983,13.0054937 Z M26.8293983,20.4131997 L26.8293983,20.012628 C26.8672747,20.072312 26.9062989,20.1297005 26.9453231,20.1882368 C28.2847703,22.1933905 29.6161832,24.1905099 27.4124653,27.0886285 L27.22997,26.931384 C29.3016943,24.2192041 28.0988316,22.3116108 26.8293983,20.4131997 L26.8293983,20.4131997 Z M26.8293983,25.5414349 L26.8293983,22.2335625 C27.3068705,23.2321221 27.4732971,24.2880703 26.8293983,25.5414349 L26.8293983,25.5414349 Z M31.710863,27.0094324 C33.4818717,27.0094324 34.8408311,25.7181914 34.9682336,24.025231 L34.9682336,23.4961092 L34.9682336,23.4765971 C34.8121369,21.5196497 33.1088466,19.9334319 31.1530469,19.9334319 C33.1088466,19.9334319 34.557332,18.3483619 34.4092697,16.3914145 C34.2566163,14.4344671 32.4833121,12.8482493 30.5252169,12.8482493 L28.2847703,12.8482493 C27.5995518,13.4852615 27.130114,14.080954 26.8293983,14.6502478 L26.8293983,17.9959966 C28.0586597,20.6680045 31.3573499,23.0943898 28.6176236,27.0094324 L31.710863,27.0094324 Z" id="Fill-20" fill="#00456D"></path>
                    </g>
                </g>
            </g>
        </g>
    </g>
</svg>