<?xml version="1.0" encoding="UTF-8"?>
<svg width="175px" height="65px" viewBox="0 0 175 65" version="1.1" xmlns="http://www.w3.org/2000/svg" xmlns:xlink="http://www.w3.org/1999/xlink">
    <title>矩形</title>
    <g id="员工端-定稿" stroke="none" stroke-width="1" fill="none" fill-rule="evenodd">
        <g id="C22-查看详情" transform="translate(-256.000000, -154.000000)" fill="#F2F7FF" stroke="#D1D1D1">
            <path d="M400.3233,154.5 C400.742898,154.5 401.143314,154.67575 401.427357,154.98459 L429.435048,185.437397 C429.698716,185.724083 429.830716,186.08783 429.830991,186.451675 C429.831265,186.815521 429.699814,187.179466 429.43658,187.46655 L401.427088,218.013742 C401.142979,218.323592 400.741885,218.5 400.321499,218.5 L258,218.5 C257.585786,218.5 257.210786,218.332107 256.93934,218.06066 C256.667893,217.789214 256.5,217.414214 256.5,217 L256.5,156 C256.5,155.585786 256.667893,155.210786 256.93934,154.93934 C257.210786,154.667893 257.585786,154.5 258,154.5 Z" id="矩形"></path>
        </g>
    </g>
</svg>