<?xml version="1.0" encoding="UTF-8"?>
<svg width="110px" height="110px" viewBox="0 0 110 110" version="1.1" xmlns="http://www.w3.org/2000/svg" xmlns:xlink="http://www.w3.org/1999/xlink">
    <title>编组 2</title>
    <g id="图标素材等" stroke="none" stroke-width="1" fill="none" fill-rule="evenodd">
        <g id="logo" transform="translate(-14.000000, -20.000000)">
            <g id="编组-2" transform="translate(14.000000, 20.000000)">
                <rect id="矩形" fill="#FCFCFC" x="0" y="0" width="110" height="110"></rect>
                <g id="编组" transform="translate(14.000000, 11.000000)">
                    <path d="M0.0358763288,74.987678 L1.93865051,74.987678 L1.93865051,73.3529573 L0.0358763288,73.3529573 L0.0358763288,74.987678 Z M0.135532798,71.9989047 L1.93865051,71.9989047 L1.93865051,70.376506 L0.135532798,70.376506 L0.135532798,71.9989047 Z M0,64.1196605 L0,62.2987404 C0.757389163,62.0646221 1.40582059,61.4115553 1.93865051,60.3504929 L1.93865051,69.4674151 L0.916839513,69.4674151 L0.916839513,63.8061336 L0,64.1196605 Z M9.86864791,70.3778751 L8.69004408,70.3778751 L8.69004408,69.4318182 L7.10484185,69.4318182 L7.10484185,70.3778751 L1.93865051,70.3778751 L1.93865051,71.9989047 L7.10484185,71.9989047 L7.10484185,73.3529573 L1.93865051,73.3529573 L1.93865051,74.987678 L9.86864791,74.987678 L9.86864791,73.3529573 L8.69004408,73.3529573 L8.69004408,71.9989047 L9.86864791,71.9989047 L9.86864791,70.3778751 Z M9.86864791,60 L9.86864791,61.4704272 L6.4231916,61.4704272 C6.2198924,61.4704272 6.11890718,61.5991238 6.11890718,61.8428258 L6.11890718,62.3808872 C6.11890718,62.6026835 6.20660487,62.706736 6.4006028,62.706736 L9.86864791,62.706736 L9.86864791,69.4674151 L9.14314882,69.4674151 L9.14314882,66.3266703 L7.10484185,66.3266703 C7.00252787,67.0851588 6.84174877,67.645126 6.6264908,67.9956188 C6.09498963,68.847207 5.31368291,69.2907996 4.29320067,69.3496714 L4.29320067,67.7163198 C4.69182655,67.6684009 4.99611097,67.5287514 5.17682136,67.2850493 C5.34690174,67.0851588 5.45054446,66.7702629 5.49439331,66.3266703 L4.10186025,66.3266703 L4.10186025,64.9712486 L9.14314882,64.9712486 L9.14314882,64.1319825 L5.62062484,64.1319825 C4.77022297,64.1319825 4.35033705,63.8061336 4.35033705,63.1270537 L4.35033705,61.3540526 C4.35033705,60.8159912 4.442021,60.4668675 4.62007389,60.2929901 C4.83798937,60.0930997 5.17682136,60 5.64188488,60 L9.86864791,60 Z M1.93865051,60.3504929 C1.98249935,60.2560241 2.04096448,60.1396495 2.08481333,60.0342278 L3.84142468,60.0342278 C3.56903033,60.7119387 3.36440239,61.1664841 3.24082836,61.4006024 C3.07074799,61.7154984 2.8222712,62.0906353 2.49274047,62.5328587 L2.49274047,69.4674151 L1.93865051,69.4674151 L1.93865051,60.3504929 Z M9.86864791,69.4674151 L9.86864791,62.706736 L13.4695683,62.706736 C13.6516075,62.706736 13.7432914,62.6026835 13.7432914,62.3932092 L13.7432914,61.808598 C13.7432914,61.5868018 13.6516075,61.4704272 13.4576095,61.4704272 L9.86864791,61.4704272 L9.86864791,60 L13.788469,60 C14.4342429,60 14.8528001,60.0930997 15.0560993,60.3025739 C15.262056,60.5024644 15.36437,60.8064074 15.36437,61.2007119 L15.3524112,63.1174699 C15.3524112,63.7924425 14.9883329,64.1319825 14.2761213,64.1319825 L10.7163923,64.1319825 L10.7163923,64.9712486 L15.611518,64.9712486 L15.611518,66.3266703 L14.4342429,66.3266703 C14.5139681,66.8524096 14.6468434,67.2029025 14.8302113,67.3767798 C15.0560993,67.5985761 15.2939461,67.7163198 15.5424229,67.7163198 L15.6327781,67.7163198 L15.6327781,69.3496714 C14.7611162,69.3263965 14.0595346,68.9759036 13.5054446,68.2872399 C13.2330503,67.9257941 13.0390524,67.5177985 12.9500259,67.038609 C12.9287659,66.8880066 12.8915608,66.6525192 12.8596707,66.3266703 L10.7163923,66.3266703 L10.7163923,69.4674151 L9.86864791,69.4674151 Z M9.86864791,72.0002738 L15.6819419,72.0002738 L15.6819419,70.3778751 L9.86864791,70.3778751 L9.86864791,72.0002738 Z M9.86864791,74.987678 L15.7483796,74.987678 L15.7483796,73.3529573 L9.86864791,73.3529573 L9.86864791,74.987678 Z M23.1561771,69.4550931 L23.1561771,74.4975356 C23.1322595,74.5098576 23.1123282,74.5331325 23.1003695,74.5454545 C22.7934275,74.7549288 22.4333355,74.8589814 21.9908608,74.8713034 L21.9908608,73.2721796 C22.2393376,73.2598576 22.3629116,73.1202081 22.3855004,72.83954 L22.7044011,69.4550931 L23.1561771,69.4550931 Z M22.0373671,68.847207 L23.1561771,68.847207 L23.1561771,67.2467141 L22.0373671,67.2467141 L22.0373671,68.847207 Z M23.1561771,63.6883899 L23.1561771,65.9063527 C22.8266464,66.0460022 22.4559243,66.140471 22.0373671,66.1746988 L22.0373671,64.563253 C22.5117319,64.5523001 22.8518927,64.3537788 23.0419043,63.980011 C23.0777807,63.8992333 23.124287,63.8061336 23.1561771,63.6883899 L23.1561771,63.6883899 Z M22.0373671,62.5328587 L23.1561771,62.5328587 L23.1561771,60.898138 L22.0373671,60.898138 L22.0373671,62.5328587 Z M23.1561771,74.4975356 C23.6185831,74.1470427 23.8816762,73.6569003 23.9401413,73.0161555 L24.2683433,69.4550931 L23.1561771,69.4550931 L23.1561771,74.4975356 Z M27.5862393,74.9767251 L28.378176,74.9767251 L28.378176,69.4194962 L27.5862393,69.4194962 L27.5862393,74.9767251 Z M28.378176,67.2480832 L28.378176,68.847207 L26.6800298,68.847207 L26.6800298,74.975356 L25.0948276,74.975356 L25.0948276,68.847207 L23.1561771,68.847207 L23.1561771,67.2480832 L25.0948276,67.2480832 L25.0948276,66.4553669 L26.6800298,66.4553669 L26.6800298,67.2480832 L28.378176,67.2480832 Z M28.378176,60.898138 L28.378176,62.5328587 L24.9566373,62.5328587 C24.7892144,63.5254655 24.6523529,64.1675794 24.5500389,64.4359255 C24.2776445,65.1355422 23.812581,65.6256846 23.1561771,65.9063527 L23.1561771,63.6883899 C23.2465323,63.4090909 23.3156274,63.0230011 23.3727638,62.5328587 L23.1561771,62.5328587 L23.1561771,60.898138 L28.378176,60.898138 Z M28.378176,68.8485761 L29.4770547,68.8485761 L29.4770547,67.2480832 L28.378176,67.2480832 L28.378176,68.8485761 Z M28.378176,74.9767251 L29.1608115,74.9767251 L29.1608115,69.4194962 L28.378176,69.4194962 L28.378176,74.9767251 Z M31.4635403,69.4550931 L31.4635403,74.4509858 C31.438294,74.4619387 31.4263352,74.4742607 31.4050752,74.4865827 C31.0875032,74.7179628 30.7008361,74.8480285 30.2357726,74.8713034 L30.2357726,73.2721796 C30.4643181,73.2365827 30.5998509,73.0969332 30.6237685,72.83954 L30.9519704,69.4550931 L31.4635403,69.4550931 Z M30.395223,68.847207 L31.4635403,68.847207 L31.4635403,67.2467141 L30.395223,67.2467141 L30.395223,68.847207 Z M31.4635403,60.898138 L31.4635403,62.5328587 L30.6928636,62.5328587 L30.6928636,66.2445235 L29.1036751,66.2445235 L29.1036751,62.5328587 L28.378176,62.5328587 L28.378176,60.898138 L29.1036751,60.898138 L29.1036751,60.0465498 L30.6928636,60.0465498 L30.6928636,60.898138 L31.4635403,60.898138 Z M31.4635403,74.4509858 C31.9033575,74.1004929 32.1505056,73.5761227 32.2076419,72.8984118 L32.5265426,69.4550931 L31.4635403,69.4550931 L31.4635403,74.4509858 Z M36.649663,69.4550931 L35.5175655,69.4550931 L35.869685,73.2023549 C35.9135338,73.6924973 36.1500519,74.1114458 36.5911978,74.4619387 C36.6164441,74.4742607 36.6377042,74.4975356 36.649663,74.5098576 L36.649663,69.4550931 Z M36.649663,67.2480832 L36.649663,68.847207 L34.7575188,68.847207 L34.7575188,74.975356 L33.1829466,74.975356 L33.1829466,68.847207 L31.4635403,68.847207 L31.4635403,67.2480832 L33.1829466,67.2480832 L33.1829466,66.4553669 L34.7575188,66.4553669 L34.7575188,67.2480832 L36.649663,67.2480832 Z M36.649663,60.898138 L36.649663,62.5328587 L36.4676238,62.5328587 C36.4915414,62.754655 36.5141302,62.9175794 36.5247602,63.0353231 C36.5460202,63.2680723 36.5911978,63.4775465 36.649663,63.665115 L36.649663,65.9296276 C36.5593078,65.8830778 36.4676238,65.825575 36.3666386,65.7667032 C35.7314947,65.3682913 35.3116088,64.8083242 35.1308984,64.0963855 C35.1308984,64.0840635 35.0392144,63.5596933 34.8598328,62.5328587 L31.4635403,62.5328587 L31.4635403,60.898138 L36.649663,60.898138 Z M66.2848393,61.7853231 L69.2426432,61.7853231 L69.2426432,60.0698248 L66.2848393,60.0698248 L66.2848393,61.7853231 Z M44.6593855,67.7026287 L59.3846254,67.7026287 L59.3846254,66.0460022 L44.6593855,66.0460022 L44.6593855,67.7026287 Z M44.4441276,62.148138 L59.4988981,62.148138 L59.4988981,60.5024644 L44.4441276,60.5024644 L44.4441276,62.148138 Z M44.1504732,74.7535597 L59.8749352,74.7535597 L59.8749352,73.0613363 L44.1504732,73.0613363 L44.1504732,74.7535597 Z M36.649663,62.5328587 L37.7844179,62.5328587 L37.7844179,60.898138 L36.649663,60.898138 L36.649663,62.5328587 Z M36.649663,65.9296276 L36.649663,63.665115 C36.7493194,63.956736 36.8755509,64.1675794 37.0562613,64.3072289 C37.2143829,64.4359255 37.4655172,64.5167032 37.7844179,64.563253 L37.7844179,66.1746988 L37.6701452,66.1746988 C37.3299844,66.1746988 36.9884949,66.092552 36.649663,65.9296276 L36.649663,65.9296276 Z M36.649663,68.8485761 L37.7844179,68.8485761 L37.7844179,67.2480832 L36.649663,67.2480832 L36.649663,68.8485761 Z M36.649663,74.5098576 L36.649663,69.4550931 L37.1027677,69.4550931 L37.3738333,72.7354874 C37.3977508,72.9107338 37.4309697,73.0394304 37.4761473,73.0969332 C37.5199961,73.155805 37.6355976,73.2023549 37.7923905,73.2598576 L37.7923905,74.8713034 C37.3299844,74.8480285 36.9579336,74.7316539 36.649663,74.5098576 L36.649663,74.5098576 Z M73.4587763,73.3762322 L70.3083031,73.3762322 C70.0372375,73.3762322 69.8339383,73.3529573 69.695748,73.3064074 C69.5482564,73.2489047 69.3901348,73.131161 69.2306845,72.9449617 C69.0712341,72.7587623 68.9941665,72.4890471 68.9941665,72.1508762 L68.9941665,65.9063527 C68.9941665,65.1711391 68.8240861,64.6453998 68.4945554,64.3537788 C68.211531,64.0963855 67.7358374,63.9690581 67.0900635,63.9690581 L66.264908,63.9690581 L66.264908,65.6037788 L66.6608763,65.6037788 C67.1697887,65.6037788 67.4182655,65.8598028 67.4182655,66.3608981 L67.4182655,71.9989047 C67.4182655,72.803943 67.0355847,73.2721796 66.264908,73.4241512 L66.264908,75 C66.7047252,74.987678 67.0674747,74.9069003 67.3531566,74.7782037 C67.6122634,74.66046 67.8952878,74.4509858 68.211531,74.1470427 C68.5171442,74.4386637 68.8014973,74.6371851 69.0632616,74.7549288 C69.4366412,74.9178532 69.911006,75 70.4890135,75 L73.4587763,75 L73.4587763,73.3762322 Z M73.4587763,63.1749726 L73.4587763,65.0533954 L72.4715128,65.0424425 C72.0184081,65.0424425 71.7911913,65.2286418 71.7805613,65.5914567 L71.7805613,66.1171961 L73.4587763,66.1171961 L73.4587763,67.7259036 L71.7805613,67.7259036 L71.7805613,68.7322015 L73.4587763,68.7322015 L73.4587763,70.3313253 L71.7805613,70.3313253 L71.7805613,72.3849945 L70.1953591,72.3849945 L70.1834003,65.521632 C70.1834003,64.8329682 70.362782,64.3072289 70.7374903,63.9457831 C70.964707,63.7239869 71.3487166,63.5487404 71.8935053,63.4309967 C71.7021649,63.1037788 71.5334133,62.754655 71.3713054,62.4041621 L73.0402191,62.4041621 C73.1624644,62.6615553 73.2993259,62.9175794 73.4587763,63.1749726 L73.4587763,63.1749726 Z M70.4438359,61.7154984 L73.4587763,61.7154984 L73.4587763,60.0930997 L70.4438359,60.0930997 L70.4438359,61.7154984 Z M73.460105,75 L78.4203396,75 L78.4203396,73.3762322 L73.460105,73.3762322 L73.460105,75 Z M78.4203396,63.4309967 L78.4203396,65.0533954 L76.7421247,65.0643483 L76.7421247,66.1171961 L78.4203396,66.1171961 L78.4203396,67.7259036 L76.7421247,67.7259036 L76.7421247,68.7322015 L78.4203396,68.7322015 L78.4203396,70.3313253 L76.7421247,70.3313253 L76.7421247,72.3849945 L75.1449637,72.3849945 L75.1449637,70.3313253 L73.4587763,70.3313253 L73.4587763,68.7322015 L75.1449637,68.7322015 L75.1449637,67.7259036 L73.4587763,67.7259036 L73.4587763,66.1171961 L75.1449637,66.1171961 L75.1449637,65.0643483 L73.4587763,65.0533954 L73.4587763,63.1749726 C73.5119264,63.2571194 73.5703915,63.3365279 73.6248704,63.4309967 L78.4203396,63.4309967 Z M78.4203396,60.0930997 L78.4203396,61.7278204 L73.4587763,61.7154984 L73.4587763,60.0930997 L78.4203396,60.0930997 Z M78.4203396,70.3313253 L78.4203396,68.7322015 L80.1065271,68.7322015 L80.1065271,67.7259036 L78.4203396,67.7259036 L78.4203396,66.1171961 L80.1065271,66.1171961 L80.0958971,65.6133625 C80.085267,65.2409639 79.9032279,65.0424425 79.5511084,65.0424425 L78.4203396,65.0533954 L78.4203396,63.4309967 L78.4974073,63.4309967 C78.8840744,62.9066265 79.1192637,62.5917306 79.2016464,62.4739869 C79.3132616,62.3096933 79.3717267,62.1823658 79.3717267,62.0783133 C79.3717267,61.8428258 79.15514,61.7278204 78.7126653,61.7278204 L78.4203396,61.7278204 L78.4203396,60.0930997 L79.0076484,60.0930997 C79.70923,60.0930997 80.2646487,60.2450712 80.6739046,60.5490142 C81.0712017,60.8529573 81.2638709,61.2363089 81.2638709,61.7401424 C81.2638709,62.1371851 81.1376394,62.5438116 80.8891626,62.9545455 C80.8453137,63.0230011 80.731041,63.2215225 80.5277418,63.5254655 C81.295761,63.8869113 81.6837568,64.4947974 81.6837568,65.3340635 L81.6837568,70.0506572 C81.6837568,70.7146769 81.5561965,71.2048193 81.3316373,71.5087623 C81.0034353,71.92908 80.537043,72.1864732 79.9258167,72.2918949 C79.6879699,72.3384447 79.268084,72.3740416 78.6914052,72.3740416 L78.6914052,70.8789704 C78.7711304,70.8899233 78.8628144,70.8899233 78.9531696,70.8899233 C79.5869847,70.8899233 79.9470767,70.703724 80.0400894,70.3313253 L78.4203396,70.3313253 Z M78.4203396,75 L82,75 L82,73.3762322 L78.4203396,73.3762322 L78.4203396,75 Z" id="Fill-1" fill="#006D86"></path>
                    <polygon id="Fill-3" fill="#E50113" points="66.1035 84 66.8965 84 66.8965 80 66.1035 80"></polygon>
                    <polygon id="Fill-4" fill="#E50113" points="63 78.896 69 78.896 69 78.104 63 78.104"></polygon>
                    <path d="M34.9232235,84 L36,84 L36,79.6391898 C36,79.2166745 35.8870133,78.8789449 35.6406207,78.627414 C35.5956983,78.5793688 35.5480534,78.5313236 35.4908794,78.4818653 C35.4337054,78.4338201 35.3751702,78.3970796 35.3057446,78.3617522 C34.8878301,78.120113 34.2834195,78 33.4952355,78 C33.0882113,78 32.7397223,78.0240226 32.4402396,78.0847857 C32.1353117,78.1328309 31.893003,78.2176166 31.6983392,78.3250118 C31.2300572,78.5920867 31,79.0244936 31,79.6391898 L31,84 L32.079499,84 L32.079499,79.7833255 C32.079499,79.6617993 32.1135312,79.5657089 32.1720664,79.4696185 C32.2306017,79.3975506 32.3231691,79.3240697 32.4402396,79.2774376 C32.5436973,79.2293924 32.6947999,79.1926519 32.8690444,79.1813472 C33.0432889,79.1559114 33.2502042,79.1446067 33.4952355,79.1446067 C33.9839368,79.1446067 34.3433161,79.1926519 34.5515927,79.2901554 C34.6686632,79.3382007 34.7612306,79.3975506 34.8184046,79.4823363 C34.8878301,79.5657089 34.9232235,79.6745172 34.9232235,79.7833255 L34.9232235,84 Z" id="Fill-5" fill="#E50113"></path>
                    <path d="M25.2699254,84 L30,84 L30,82.867052 L25.4028413,82.867052 C25.3306044,82.867052 25.2699254,82.8410405 25.2208042,82.7919075 C25.1962437,82.767341 25.1817963,82.7427746 25.1731279,82.7182081 L25.1731279,82.7066474 L25.1731279,82.6950867 C25.1586805,82.6705202 25.1471226,82.6445087 25.1471226,82.6083815 L25.1471226,82.5953757 L25.1471226,81.6950867 C25.1471226,81.6213873 25.1962437,81.5722543 25.2699254,81.5722543 L30,81.5722543 L30,80.4263006 L25.282928,80.4263006 L25.2699254,80.4263006 C25.1962437,80.4263006 25.1471226,80.3786127 25.1471226,80.3034682 L25.1471226,79.4031792 C25.1471226,79.367052 25.1586805,79.3424855 25.1731279,79.3049133 C25.1731279,79.2919075 25.1817963,79.2803468 25.1817963,79.2687861 C25.1962437,79.2557803 25.2092463,79.2442197 25.2092463,79.2312139 C25.2208042,79.2312139 25.2208042,79.2312139 25.2208042,79.2182081 C25.2699254,79.1705202 25.3306044,79.1459538 25.4028413,79.1459538 L30,79.1459538 L30,78 L25.2699254,78 C24.9130749,78 24.6183482,78.1228324 24.3712979,78.3684971 C24.2470503,78.4927746 24.1618107,78.6271676 24.099687,78.7760116 C24.0361185,78.9234104 24,79.0953757 24,79.2687861 L24,82.7427746 C24,83.0895954 24.1228028,83.3959538 24.3712979,83.6300578 C24.6183482,83.8771676 24.9130749,84 25.2699254,84" id="Fill-6" fill="#E50113"></path>
                    <path d="M23.6899879,83.6300578 C23.8962606,83.382948 24,83.0881503 24,82.7427746 L24,81.6950867 C24,81.5115607 23.9770808,81.349711 23.9264174,81.2037572 C23.8733414,81.0549133 23.8033776,80.9190751 23.7020507,80.7962428 C23.4933655,80.550578 23.238842,80.4263006 22.9505428,80.4263006 L20.1616405,80.4263006 C20.13269,80.4263006 20.1097708,80.4263006 20.079614,80.4132948 C20.0603136,80.4017341 20.0277443,80.3771676 20.0060314,80.3526012 C19.9662244,80.3034682 19.9457177,80.2398844 19.9457177,80.1676301 L19.9457177,79.4031792 C19.9457177,79.3309249 19.9662244,79.267341 20.0060314,79.2182081 C20.0494572,79.1705202 20.1001206,79.1459538 20.1616405,79.1459538 L24,79.1459538 L24,78 L20.0494572,78 C19.8443908,78 19.6465621,78.0736994 19.4837153,78.1965318 C19.4523522,78.2210983 19.4221954,78.2456647 19.3920386,78.2702312 C19.3594692,78.3078035 19.3401689,78.3323699 19.3075995,78.3684971 L19.2991556,78.3684971 C19.092883,78.617052 19,78.9234104 19,79.267341 L19,80.3034682 C19,80.5606936 19.0518697,80.7846821 19.1556092,80.9797688 C19.1749095,81.017341 19.1954162,81.0549133 19.2171291,81.0910405 C19.2472859,81.1286127 19.2665862,81.166185 19.2991556,81.2037572 C19.5030157,81.449422 19.7623643,81.5722543 20.0494572,81.5722543 L22.8347407,81.5722543 C22.8986731,81.5722543 22.9505428,81.5968208 22.9903498,81.6473988 C23.0301568,81.6950867 23.053076,81.7572254 23.053076,81.8439306 L23.053076,82.5953757 C23.053076,82.6820809 23.0301568,82.7427746 22.9903498,82.7919075 C22.9505428,82.8410405 22.8986731,82.867052 22.8347407,82.867052 L19,82.867052 L19,84 L22.9505428,84 C23.0940893,84 23.2267793,83.9754335 23.3510253,83.9147399 C23.4740651,83.8526012 23.5983112,83.7528902 23.6899879,83.6300578" id="Fill-7" fill="#E50113"></path>
                    <path d="M14.9934987,82.867052 L13.7495786,82.867052 C13.5776547,82.867052 13.4548519,82.7557803 13.3551649,82.5606936 C13.343607,82.5216763 13.3320491,82.484104 13.3190465,82.4479769 C13.3074886,82.4118497 13.2930412,82.3742775 13.282928,82.3251445 L13.282928,82.3121387 C13.2453648,82.1647399 13.2092463,81.9653179 13.1962437,81.7572254 C13.1687936,81.5361272 13.1687936,81.2774566 13.1687936,81.0057803 C13.1687936,80.699422 13.1687936,80.4378613 13.1962437,80.2297688 C13.2092463,80.0086705 13.2309174,79.8106936 13.2598122,79.6763006 C13.3074886,79.4537572 13.3941729,79.3049133 13.503973,79.2196532 C13.5285336,79.2066474 13.5530941,79.1950867 13.5776547,79.1820809 L13.5892126,79.1820809 C13.6383337,79.1589595 13.6903443,79.1459538 13.7380207,79.1459538 L13.7495786,79.1459538 L14.9934987,79.1459538 L14.9934987,78 L13.60366,78 C13.3941729,78 13.1962437,78.0375723 13.0358777,78.1127168 C12.862509,78.1849711 12.7137009,78.283237 12.5937876,78.4320809 C12.4319769,78.6040462 12.3106188,78.8381503 12.2109319,79.132948 C12.1964845,79.1950867 12.1733686,79.2557803 12.1618107,79.3193642 C12.1473634,79.3916185 12.1372502,79.4537572 12.1242475,79.515896 L12.1112449,79.515896 L12.1112449,79.5274566 C12.0881291,79.6878613 12.0635685,79.8728324 12.0390079,80.0693642 C12.0390079,80.0939306 12.0245606,80.1315029 12.0245606,80.1806358 C12,80.4378613 12,80.699422 12,80.9942197 L12,81.0057803 C12,81.6473988 12.0505659,82.1893064 12.1733686,82.632948 C12.1964845,82.7196532 12.221045,82.8034682 12.2499398,82.8786127 C12.2701661,82.9523121 12.2976162,83.0274566 12.3337346,83.1011561 C12.6039008,83.7052023 13.0243198,84 13.60366,84 L14.9934987,84 L14.9934987,82.867052 Z M16.8182037,80.9942197 L16.8283169,80.9942197 L16.8283169,81.0057803 C16.8283169,81.400289 16.8037563,81.734104 16.7676379,82.015896 C16.7560799,82.0794798 16.7560799,82.1271676 16.7430773,82.1647399 C16.7300746,82.2138728 16.7300746,82.2630058 16.717072,82.3121387 C16.6693956,82.533237 16.584156,82.6820809 16.4859138,82.7789017 L16.4729111,82.7789017 C16.4483506,82.8034682 16.4252348,82.816474 16.3977847,82.8294798 C16.3616663,82.8540462 16.3139899,82.8540462 16.2619793,82.867052 L16.2518661,82.867052 L14.9934987,82.867052 L14.9934987,84 L16.3862268,84 C16.8037563,84 17.137491,83.8526012 17.3960992,83.5447977 C17.4437756,83.482659 17.4957862,83.4205202 17.5319046,83.3468208 C17.5810258,83.2731214 17.6171442,83.1878613 17.6561522,83.1127168 L17.6561522,83.1011561 C17.8771972,82.5968208 18,81.8930636 18,81.0057803 C18,80.5375723 17.9638815,80.1315029 17.9133157,79.7875723 C17.8656393,79.4407514 17.7890681,79.1459538 17.6922706,78.9118497 C17.5550205,78.6040462 17.3816518,78.3684971 17.1634963,78.2210983 C17.1259331,78.1965318 17.0869251,78.1719653 17.037804,78.1473988 C16.8413195,78.0491329 16.6318324,78 16.3862268,78 L14.9934987,78 L14.9934987,79.1459538 L16.2518661,79.1459538 C16.3717794,79.1459538 16.4729111,79.1950867 16.5581507,79.3049133 C16.6318324,79.3916185 16.6823983,79.515896 16.717072,79.6878613 C16.7430773,79.8106936 16.7676379,79.9595376 16.7936431,80.1315029 L16.7936431,80.2413295 C16.8182037,80.4523121 16.8182037,80.7109827 16.8182037,80.9942197 L16.8182037,80.9942197 Z" id="Fill-8" fill="#E50113"></path>
                    <path d="M7.93037975,84 L12,84 L9.7443038,78.5458422 C9.66835443,78.3638948 9.56075949,78.2316986 9.44177215,78.1350391 C9.32531646,78.0497512 9.17341772,78 9,78 C8.82658228,78 8.67594937,78.0497512 8.55822785,78.1350391 C8.43924051,78.2316986 8.34050633,78.3638948 8.26455696,78.5458422 L8.2556962,78.5458422 L6,84 L7.10126582,84 L8.79493671,79.9275053 C8.82658228,79.8180526 8.89240506,79.7697228 9,79.7697228 C9.04303797,79.7697228 9.08607595,79.782516 9.11772152,79.8052594 C9.14936709,79.8308458 9.1835443,79.8678038 9.20379747,79.9161336 L10.3721519,82.7036247 C10.3721519,82.7164179 10.3822785,82.7391613 10.3822785,82.7633262 C10.3822785,82.8230277 10.3367089,82.8855721 10.2746835,82.8855721 L8.40632911,82.8855721 L7.93037975,84 Z" id="Fill-9" fill="#E50113"></path>
                    <path d="M4.60871659,78 L4.60871659,79.1459538 L4.59715868,79.1459538 L0,79.1459538 L0,78 L4.60871659,78 Z M4.60871659,82.867052 L4.59715868,82.867052 L1.26848062,82.867052 C1.19624368,82.867052 1.14712256,82.8034682 1.14712256,82.7427746 L1.14712256,81.6950867 C1.14712256,81.6213873 1.19624368,81.5722543 1.26848062,81.5722543 L4.59715868,81.5722543 L4.60871659,81.5722543 L4.60871659,80.4263006 L4.59715868,80.4263006 L0,80.4263006 L0,84 L4.60871659,84 L4.60871659,82.867052 Z M4.65783771,78 L4.65783771,79.1589595 C4.64483506,79.1459538 4.6202745,79.1459538 4.60871659,79.1459538 L4.60871659,78 L4.65783771,78 Z M4.60871659,81.5722543 L4.65783771,81.5722543 L4.65783771,80.4263006 L4.6202745,80.4263006 L4.60871659,80.4263006 L4.60871659,81.5722543 Z M4.65783771,82.8540462 C4.64483506,82.867052 4.6202745,82.867052 4.60871659,82.867052 L4.60871659,84 L4.65783771,84 L4.65783771,82.8540462 Z M4.85432218,81.8439306 L4.85432218,82.5953757 C4.85432218,82.6820809 4.84131953,82.7427746 4.79219841,82.7919075 C4.75607994,82.8294798 4.70695882,82.8540462 4.65783771,82.8540462 L4.65783771,84 L4.74452203,84 C4.99012762,84 5.21117265,83.9393064 5.40765712,83.8150289 C5.45966771,83.7904624 5.49578618,83.7528902 5.51745726,83.7297688 C5.55646521,83.7052023 5.59402841,83.6676301 5.63159162,83.6300578 C5.75294967,83.5086705 5.85119191,83.3713873 5.91187094,83.2239884 C5.9739947,83.0751445 6,82.916185 6,82.7427746 L6,81.6950867 C6,81.6343931 6,81.5722543 5.98699735,81.5115607 C5.9739947,81.449422 5.96388153,81.3887283 5.93932097,81.3381503 C5.92487359,81.2774566 5.90031303,81.2283237 5.87719721,81.1921965 C5.85119191,81.1531792 5.82807609,81.117052 5.79051288,81.0910405 L5.78039971,81.0794798 C5.72838912,81.017341 5.73994703,80.9450867 5.79051288,80.9075145 C5.86419456,80.8583815 5.91187094,80.7731214 5.95232362,80.6748555 C5.96388153,80.6242775 5.9739947,80.5621387 5.98699735,80.5014451 C6,80.4378613 6,80.3786127 6,80.3034682 L6,79.2687861 C6,78.9234104 5.87719721,78.617052 5.63159162,78.3684971 C5.38309656,78.1228324 5.08836985,78 4.74452203,78 L4.65783771,78 L4.65783771,79.1589595 C4.70695882,79.1589595 4.74452203,79.1820809 4.7806405,79.2196532 C4.82976162,79.2687861 4.85432218,79.3309249 4.85432218,79.4031792 L4.85432218,80.1676301 C4.85432218,80.2413295 4.82976162,80.3034682 4.7806405,80.3540462 C4.76908259,80.3656069 4.75607994,80.3786127 4.73007464,80.3901734 C4.71851673,80.4017341 4.70695882,80.4017341 4.70695882,80.4147399 C4.68239827,80.4147399 4.66939562,80.4263006 4.65783771,80.4263006 L4.65783771,81.5722543 C4.70695882,81.5852601 4.74452203,81.6083815 4.7806405,81.6473988 C4.82976162,81.6950867 4.85432218,81.7572254 4.85432218,81.8439306 L4.85432218,81.8439306 Z" id="Fill-10" fill="#E50113"></path>
                    <path d="M51.6273471,83.6300578 C51.8772268,83.382948 52,83.0881503 52,82.7427746 L52,81.6950867 C52,81.5115607 51.9725566,81.349711 51.9104478,81.2037572 C51.8512277,81.0549133 51.7660087,80.9190751 51.6273471,80.7962428 C51.397689,80.550578 51.0871449,80.4263006 50.7419355,80.4263006 L47.403948,80.4263006 C47.3678382,80.4263006 47.3432836,80.4263006 47.3071738,80.4132948 C47.2826192,80.4017341 47.2465094,80.3771676 47.2219547,80.3526012 C47.1685123,80.3034682 47.145402,80.2398844 47.145402,80.1676301 L47.145402,79.4031792 C47.145402,79.3309249 47.1685123,79.267341 47.2219547,79.2182081 C47.2696196,79.1705202 47.3317285,79.1459538 47.403948,79.1459538 L52,79.1459538 L52,78 L47.2696196,78 C47.0110737,78 46.7900818,78.0736994 46.5936447,78.1965318 C46.5546461,78.2210983 46.5185364,78.2456647 46.4809822,78.2702312 C46.4463168,78.3078035 46.4203178,78.3323699 46.384208,78.3684971 L46.3697641,78.3684971 C46.1242176,78.617052 46,78.9234104 46,79.267341 L46,80.3034682 C46,80.5606936 46.0765527,80.7846821 46.1978816,80.9797688 C46.2224362,81.017341 46.2484352,81.0549133 46.2744343,81.0910405 C46.3090997,81.1286127 46.3336543,81.166185 46.3697641,81.2037572 C46.6167549,81.449422 46.9114107,81.5722543 47.2696196,81.5722543 L50.6076071,81.5722543 C50.6812711,81.5722543 50.7419355,81.5968208 50.7939336,81.6473988 C50.8430429,81.6950867 50.8675975,81.7572254 50.8675975,81.8439306 L50.8675975,82.5953757 C50.8675975,82.6820809 50.8430429,82.7427746 50.7939336,82.7919075 C50.7419355,82.8410405 50.6812711,82.867052 50.6076071,82.867052 L46,82.867052 L46,84 L50.7419355,84 C50.9152624,84 51.0741454,83.9754335 51.2258065,83.9147399 C51.3702455,83.8526012 51.5074627,83.7528902 51.6273471,83.6300578" id="Fill-11" fill="#E50113"></path>
                    <path d="M61.9200218,84 L63,84 L63,79.6391898 C63,79.2166745 62.8843852,78.8789449 62.6381937,78.627414 C62.5919478,78.5793688 62.547062,78.5313236 62.4872144,78.4818653 C62.4300871,78.4338201 62.3729597,78.3970796 62.3022307,78.3617522 C61.8832971,78.120113 61.2943417,78 60.4945593,78 C60.0865071,78 59.7396627,78.0240226 59.4390642,78.0847857 C59.1371055,78.1328309 58.8922742,78.2176166 58.6977693,78.3250118 C58.2339499,78.5920867 58,79.0244936 58,79.6391898 L58,84 L59.0786181,84 L59.0786181,79.7833255 C59.0786181,79.6617993 59.1139826,79.5657089 59.1711099,79.4696185 C59.2391186,79.3975506 59.3220892,79.3240697 59.4390642,79.2774376 C59.5560392,79.2293924 59.6934168,79.1926519 59.867519,79.1813472 C60.0416213,79.1559114 60.2483678,79.1446067 60.4945593,79.1446067 C60.992383,79.1446067 61.3405876,79.1926519 61.5609358,79.2901554 C61.6751904,79.3382007 61.758161,79.3975506 61.8288901,79.4823363 C61.8955386,79.5657089 61.9200218,79.6745172 61.9200218,79.7833255 L61.9200218,84 Z" id="Fill-12" fill="#E50113"></path>
                    <path d="M55.9320786,78 L57,78 L57,82.3622233 C57,82.7847386 56.8827059,83.1224682 56.6522095,83.3867169 C56.6072013,83.4347621 56.5471904,83.4828073 56.4885434,83.5181347 C56.4421713,83.5661799 56.3712493,83.6029204 56.3139662,83.6396609 L56.3030551,83.6509656 C55.8966176,83.8813 55.289689,84 54.5,84 C54.0935625,84 53.733497,83.9759774 53.4307147,83.9166274 C53.1402073,83.8671691 52.8837971,83.7852096 52.6969449,83.6749882 C52.2345881,83.4107395 52,82.9769195 52,82.3622233 L52,78 L53.0692853,78 L53.0692853,82.2166745 C53.0692853,82.3382007 53.1061102,82.4357042 53.1756683,82.5317946 C53.2343153,82.6151672 53.3256956,82.6745172 53.4429896,82.7239755 C53.5480087,82.7706076 53.6871249,82.8073481 53.8726132,82.8313707 C54.0485543,82.8426755 54.2572286,82.8553933 54.5,82.8553933 C54.9896345,82.8553933 55.3387889,82.8073481 55.5583742,82.7239755 C55.6770322,82.6632124 55.7670486,82.6038625 55.8256956,82.5176637 C55.8966176,82.4357042 55.9320786,82.3382007 55.9320786,82.2166745 L55.9320786,78 Z" id="Fill-13" fill="#E50113"></path>
                    <path d="M72.0072254,82.867052 L70.7630058,82.867052 C70.5910405,82.867052 70.4537572,82.7557803 70.3684971,82.5606936 C70.3554913,82.5216763 70.3323699,82.484104 70.3208092,82.4479769 C70.3063584,82.4118497 70.3063584,82.3742775 70.2933526,82.3251445 L70.2933526,82.3121387 C70.2456647,82.1647399 70.2210983,81.9653179 70.2080925,81.7572254 C70.1820809,81.5361272 70.1719653,81.2774566 70.1719653,81.0057803 C70.1719653,80.699422 70.1820809,80.4378613 70.1965318,80.2297688 C70.2210983,80.0086705 70.234104,79.8106936 70.2687861,79.6763006 C70.3208092,79.4537572 70.3930636,79.3049133 70.517341,79.2196532 C70.5404624,79.2066474 70.5650289,79.1950867 70.5910405,79.1820809 L70.6040462,79.1820809 C70.6387283,79.1589595 70.6893064,79.1459538 70.75,79.1459538 L70.7630058,79.1459538 L72.0072254,79.1459538 L72.0072254,78 L70.6141618,78 C70.4046243,78 70.2080925,78.0375723 70.0361272,78.1127168 C69.8757225,78.1849711 69.7268786,78.283237 69.6040462,78.4320809 C69.4450867,78.6040462 69.3222543,78.8381503 69.2225434,79.132948 C69.2095376,79.1950867 69.1864162,79.2557803 69.1734104,79.3193642 C69.1618497,79.3916185 69.1387283,79.4537572 69.1242775,79.515896 L69.1242775,79.5274566 C69.0852601,79.6878613 69.0621387,79.8728324 69.050578,80.0693642 C69.0361272,80.0939306 69.0361272,80.1315029 69.0361272,80.1806358 C69.0130058,80.4378613 69,80.699422 69,80.9942197 L69,81.0057803 C69,81.6473988 69.0621387,82.1893064 69.1864162,82.632948 C69.199422,82.7196532 69.2225434,82.8034682 69.2601156,82.8786127 C69.283237,82.9523121 69.3106936,83.0274566 69.3453757,83.1011561 C69.6040462,83.7052023 70.0361272,84 70.6141618,84 L72.0072254,84 L72.0072254,82.867052 Z M73.8294798,80.9942197 L73.8294798,80.9942197 L73.8294798,81.0057803 C73.8294798,81.400289 73.8179191,81.734104 73.7817919,82.015896 C73.7716763,82.0794798 73.7716763,82.1271676 73.7572254,82.1647399 C73.7456647,82.2138728 73.7312139,82.2630058 73.7312139,82.3121387 C73.6705202,82.533237 73.5982659,82.6820809 73.4971098,82.7789017 L73.4855491,82.7789017 C73.4609827,82.8034682 73.4364162,82.816474 73.4132948,82.8294798 C73.3757225,82.8540462 73.3251445,82.8540462 73.2760116,82.867052 L73.2615607,82.867052 L73.2528902,82.867052 L72.0072254,82.867052 L72.0072254,84 L73.400289,84 C73.8179191,84 74.1531792,83.8526012 74.3973988,83.5447977 C74.4479769,83.482659 74.4956647,83.4205202 74.5462428,83.3468208 C74.5953757,83.2731214 74.6315029,83.1878613 74.6676301,83.1127168 L74.6676301,83.1011561 C74.8916185,82.5968208 75,81.8930636 75,81.0057803 C75,80.5375723 74.9768786,80.1315029 74.9263006,79.7875723 C74.8786127,79.4407514 74.8049133,79.1459538 74.6936416,78.9118497 C74.5693642,78.6040462 74.3973988,78.3684971 74.1734104,78.2210983 C74.1401734,78.1965318 74.0895954,78.1719653 74.0520231,78.1473988 L74.0404624,78.1473988 C73.8554913,78.0491329 73.6459538,78 73.400289,78 L72.0072254,78 L72.0072254,79.1459538 L73.2528902,79.1459538 C73.3757225,79.1459538 73.4855491,79.1950867 73.5722543,79.3049133 C73.632948,79.3916185 73.6965318,79.515896 73.7312139,79.6878613 C73.7572254,79.8106936 73.7817919,79.9595376 73.7947977,80.1315029 C73.8078035,80.1806358 73.8078035,80.2182081 73.8078035,80.2413295 C73.8294798,80.4523121 73.8294798,80.7109827 73.8294798,80.9942197 L73.8294798,80.9942197 Z" id="Fill-14" fill="#E50113"></path>
                    <path d="M77.2002964,78 L78.4746851,78 L78.4746851,78.9708619 L76.9594962,78.9708619 L76.9594962,79.993144 L78.4746851,79.993144 L78.4746851,80.9652302 L77.2002964,80.9652302 L76.9273895,80.9652302 L76.9273895,83 L76,83 L76,80.9652302 L76,79.7752204 L76,79.1789912 L76,78.0942703 L76,78 L77.2002964,78 Z M78.4746851,78 L79.6441097,78 L79.8009385,78 C80.4541862,78 81,78.5325661 81,79.1789912 L81,79.7752204 C81,80.4326641 80.4541862,80.9652302 79.8009385,80.9652302 L79.6441097,80.9652302 L78.4746851,80.9652302 L78.4746851,79.993144 L79.9812299,79.993144 L79.9812299,78.9708619 L78.4746851,78.9708619 L78.4746851,78 Z" id="Fill-15" fill="#E50113"></path>
                    <path d="M22.4557797,18.4244523 L22.2995517,18.7092807 L22.2864233,18.7200289 L21.9647775,19.38642 L21.9516491,19.3971683 L21.6510086,20.0716205 L21.6510086,20.0837123 L21.3569324,20.7595081 L21.8610631,20.9785035 L22.1433237,20.3027077 L22.4557797,19.6269119 L22.4557797,18.4244523 Z M22.4557797,14.5510542 L22.4557797,15.4565936 L22.3651937,15.4230054 L21.8728786,15.9604175 L21.3818764,16.5327615 L20.8895613,17.1279454 L20.4300672,17.7365647 L20.004707,18.3545887 L19.5898495,18.9847044 L19.199936,19.6484084 L18.8284022,20.3242042 L18.4804995,21 L18,20.7487598 L18.3479027,20.0608723 L18.3479027,20.050124 L18.7154979,19.3743282 L18.7273135,19.3622365 L19.1198527,18.6985325 L19.1316683,18.6985325 L19.5452129,18.0455767 L19.9928915,17.4047127 L20.004707,17.3926209 L20.4628882,16.7853452 L20.4628882,16.7732534 L20.9538905,16.179413 L20.9657061,16.1659777 L21.4567083,15.5949773 L21.4698367,15.5828855 L21.9870957,15.0212898 L21.9962856,15.0105415 L22.4557797,14.5510542 Z M23.4850464,16.6818933 L23.4850464,17.7016329 L23.1279539,18.3317487 L22.7800512,18.9847044 L22.4557797,19.6269119 L22.4557797,18.4244523 L22.6461415,18.0684167 L22.6461415,18.0576685 L23.0150496,17.4262092 L23.0150496,17.4154609 L23.406276,16.8081852 L23.406276,16.797437 L23.4850464,16.6818933 Z M23.4850464,13.6011782 L23.4850464,14.3347458 L22.9257765,14.8600661 L22.790554,14.9984498 L22.8338777,15.0105415 L23.2841819,15.1811699 L23.4850464,15.2617817 L23.4850464,15.8462174 L23.0911944,15.6970856 L22.6461415,15.5251137 L22.634326,15.5251137 L22.4557797,15.4565936 L22.4557797,14.5510542 L22.54374,14.4596941 L23.1148255,13.9330302 L23.1148255,13.9209384 L23.4850464,13.6011782 Z M23.8657701,16.1202976 L23.8657701,17.1064489 L23.4850464,17.7016329 L23.4850464,16.6818933 L23.809318,16.2009095 L23.8198207,16.1901612 L23.8657701,16.1202976 Z M23.8657701,15.3988218 L23.8657701,15.9832575 L23.5638168,15.8677139 L23.554627,15.8677139 L23.4850464,15.8462174 L23.4850464,15.2617817 L23.7410503,15.3531418 L23.8657701,15.3988218 Z M23.8657701,13.2800744 L23.8657701,14.0015502 L23.4850464,14.3347458 L23.4850464,13.6011782 L23.6977265,13.4171145 L23.7095421,13.4063663 L23.8657701,13.2800744 Z M24.6377201,15.0790616 L24.6377201,16.245246 L24.4933077,16.2009095 L24.2583093,16.5220132 L23.8657701,17.1064489 L23.8657701,16.1202976 L23.9445405,16.0195329 L23.8657701,15.9832575 L23.8657701,15.3988218 L24.2018572,15.5143654 L24.2898175,15.5492972 L24.6377201,15.0790616 Z M24.6377201,12.6607069 L24.6377201,13.349938 L24.6377201,13.3606862 L24.6377201,13.349938 L24.0548191,13.8309219 L23.8657701,14.0015502 L23.8657701,13.2800744 L24.3029459,12.9132906 L24.3147614,12.9132906 L24.6377201,12.6607069 Z M28.2979187,11.5052708 L28.2191483,11.561699 L28.2073327,11.5737908 L27.6716939,11.9970029 L27.6716939,12.0077511 L27.1334294,12.4551468 L27.1334294,12.4672385 L26.6214217,12.9240389 L26.6096061,12.9374742 L26.1028498,13.4292063 L25.6223503,13.945122 L25.6118476,13.945122 L25.1405379,14.4717859 L25.1405379,14.4825341 L24.6810439,15.0333816 L24.6705411,15.0333816 L24.6377201,15.0790616 L24.6377201,16.245246 L24.9633045,16.3607896 L24.9751201,16.3607896 L25.4424912,16.511265 L25.4556196,16.511265 L25.9256164,16.6483051 L26.4074288,16.797437 L26.4179315,16.797437 L26.9102466,16.9344771 L27.4025616,17.0594254 L27.5272815,17.0943572 L27.3579251,17.4503927 L27.3579251,17.461141 L27.1006084,18.0926002 L27.1006084,18.1033485 L26.8432917,18.7442125 L26.8432917,18.7563043 L26.6096061,19.4200083 L26.3824848,20.0958041 L26.3824848,20.1078958 L26.1698047,20.7944399 L26.6975664,20.95432 L26.8997438,20.2677759 L27.1229267,19.6013849 L27.3579251,18.9497726 L27.6034262,18.2968169 L27.8607429,17.6787929 L28.0616074,17.220649 L28.2979187,17.2797644 L28.2979187,15.5143654 L28.2309638,15.6406573 L28.2309638,15.6514055 L27.9290106,16.2237495 L27.9185078,16.2344977 L27.7622799,16.5784415 L27.5364713,16.5220132 L27.0441563,16.3957214 L26.5623439,16.270773 L26.0818444,16.1202976 L25.6118476,15.9832575 L25.1300352,15.8341257 L24.8372719,15.7320174 L25.0972142,15.3894171 L25.5540826,14.8493179 L26.0267051,14.322654 L26.495389,13.8188301 L26.9877041,13.3378462 L27.4918348,12.8797024 L28.0169709,12.420215 L28.2979187,12.202563 L28.2979187,11.5052708 Z M28.2979187,10.3941711 L28.2979187,11.0121951 L27.8489273,11.2405953 L27.1793788,11.6194709 L26.5177073,12.0198429 L25.8809798,12.443055 L25.2521294,12.8904506 L24.6377201,13.349938 L24.6377201,12.6607069 L24.9304835,12.443055 L25.5658982,11.9849111 L25.5777137,11.9849111 L26.2262568,11.5496073 L26.8866154,11.1492352 L26.8997438,11.1371434 L27.5824207,10.7596114 L27.5929235,10.7488632 L28.2874159,10.3941711 L28.2979187,10.3941711 Z M29.1158181,14.1385903 L29.1158181,15.1932617 L29.0239193,15.3423936 L28.7114633,15.9147375 L28.4213256,16.4763332 L28.2979187,16.7168251 L28.5197887,16.7625052 L29.0239193,16.8767053 L29.1158181,16.888797 L29.1158181,17.461141 L28.903138,17.4154609 L28.3990074,17.3012609 L28.2979187,17.2797644 L28.2979187,15.5143654 L28.5447326,15.0669698 L28.8676913,14.5174659 L28.8808197,14.5174659 L29.1158181,14.1385903 Z M29.1158181,10.9315833 L28.7784182,11.161327 L28.2979187,11.5052708 L28.2979187,12.202563 L28.5552354,12.0077511 L29.0816843,11.6194709 L29.1158181,11.5979744 L29.1158181,10.9315833 Z M29.1158181,10.0045473 L29.1158181,10.6118231 L28.5197887,10.8859033 L28.2979187,11.0121951 L28.2979187,10.3941711 L29.0029139,10.0488838 L29.0121037,10.0488838 L29.1158181,10.0045473 Z M30.0334934,17.0822654 L30.0334934,17.6438611 L29.921902,17.6223646 L29.4190842,17.5175692 L29.4072687,17.5175692 L29.1158181,17.461141 L29.1158181,16.888797 L29.5175472,16.9801571 L30.0334934,17.0822654 Z M30.0334934,12.8326788 L30.0334934,13.75031 L30.0098623,13.7852418 L29.6737752,14.2890657 L29.3376881,14.8143861 L29.1158181,15.1932617 L29.1158181,14.1385903 L29.215594,13.990802 L29.215594,13.9787102 L29.5634966,13.4627945 L29.921902,12.9710624 L29.9324047,12.9589706 L30.0334934,12.8326788 Z M30.0334934,9.61492352 L30.0334934,10.9893551 L29.6514569,11.229847 L29.1158181,11.5979744 L29.1158181,10.9315833 L29.3495037,10.7717032 L29.3613192,10.7596114 L29.921902,10.4170112 L29.889081,10.4049194 L29.6960935,10.3471476 L29.2379123,10.5540513 L29.1158181,10.6118231 L29.1158181,10.0045473 L29.7315402,9.74121538 L29.7420429,9.7291236 L30.0334934,9.61492352 Z M30.6938521,17.197809 L30.6938521,17.7580612 L30.4483509,17.7244729 L30.4352225,17.7244729 L30.0334934,17.6438611 L30.0334934,17.0822654 L30.5376241,17.174969 L30.6938521,17.197809 Z M30.6938521,12.0198429 L30.6938521,12.8797024 L30.357765,13.3029144 L30.0334934,13.75031 L30.0334934,12.8326788 L30.3039385,12.4900785 L30.6702209,12.0319347 L30.6820365,12.0319347 L30.6938521,12.0198429 Z M30.6938521,9.37308805 L30.6938521,9.95752377 L30.6702209,9.95752377 L30.513993,10.0273874 L30.5481268,10.0381356 L30.5809478,10.0381356 L30.6938521,9.98170732 L30.6938521,10.6454113 L30.6702209,10.6333196 L30.6492155,10.6333196 L30.2238553,10.875155 L30.0334934,10.9893551 L30.0334934,9.61492352 L30.481172,9.44295163 L30.6938521,9.37308805 Z M32.6617996,17.3576891 L32.6617996,20.2570277 L32.5620237,20.9193882 L32.0263849,20.8293716 L32.1274736,20.1414841 L32.2377522,19.4656883 L32.2377522,19.4549401 L32.362472,18.8006408 L32.362472,18.788549 L32.4963817,18.147685 L32.4963817,18.1369368 L32.5187,18.0348284 L32.0014409,17.9757131 L31.474992,17.8964448 L30.9616715,17.8050847 L30.9524816,17.8050847 L30.6938521,17.7580612 L30.6938521,17.197809 L31.0404419,17.2663291 L31.5577009,17.3455974 L32.082837,17.4262092 L32.6066603,17.4960728 L32.6289785,17.4960728 L32.6617996,17.3576891 Z M32.6617996,8.75506408 L32.6617996,9.6713518 L32.5974704,9.69553535 L32.0014409,9.95752377 L31.3883445,10.2450393 L31.3778418,10.2450393 L31.6115274,10.3135593 L31.8701569,10.3713311 L32.1274736,10.4277594 L32.271886,10.4626912 L32.304707,10.4277594 L32.3152097,10.4277594 L32.6617996,10.1536792 L32.6617996,10.852315 L32.6617996,10.8630632 L32.6617996,10.852315 L32.6617996,11.1035552 L32.5620237,11.0928069 L32.5488953,11.0928069 L32.4294268,11.0578752 L32.2482549,11.207007 L31.8570285,11.5858826 L31.4658021,11.9849111 L31.0955812,12.3866267 L30.7266731,12.8461141 L30.6938521,12.8797024 L30.6938521,12.0198429 L31.07195,11.5979744 L31.0837656,11.5979744 L31.474992,11.1949153 L31.474992,11.184167 L31.7690682,10.9208351 L31.7441242,10.9087433 L31.474992,10.8402232 L31.2097983,10.783795 L30.9393532,10.7152749 L30.6938521,10.6454113 L30.6938521,9.98170732 L30.8605828,9.89034725 L30.6938521,9.95752377 L30.6938521,9.37308805 L31.2308037,9.17961968 L31.2399936,9.17961968 L31.9909382,8.93912774 L32.0014409,8.93912774 L32.6617996,8.75506408 Z M33.9168748,13.1081025 L33.9168748,14.7807979 L33.7606468,15.2846217 L33.603106,15.8462174 L33.446878,16.4185614 L33.3024656,17.0258371 L33.1777458,17.5645928 L33.6464297,17.6223646 L33.9168748,17.6438611 L33.9168748,18.2054568 L33.5926033,18.170525 L33.0543388,18.1154403 L33.0228306,18.2632286 L32.8981108,18.9040926 L32.7747038,19.5570484 L32.6617996,20.2328442 L32.6617996,20.2570277 L32.6617996,17.3576891 L32.7642011,16.888797 L32.7747038,16.888797 L32.9204291,16.2801778 L33.0766571,15.7091773 L33.0766571,15.6970856 L33.2341979,15.1354899 L33.2341979,15.1247416 L33.4022414,14.5752377 L33.5821005,14.0458867 L33.5821005,14.036482 L33.7606468,13.5313146 L33.9168748,13.1081025 Z M33.9168748,9.304568 L33.6372398,9.46579165 L33.6241114,9.47653989 L33.1908742,9.76271186 L33.1777458,9.76271186 L32.7550112,10.0838156 L32.7418828,10.0838156 L32.6617996,10.1536792 L32.6617996,10.852315 L32.6617996,11.1035552 L32.8311559,11.1371434 L33.1121037,11.1949153 L33.3904259,11.2405953 L33.6595581,11.2876189 L33.9168748,11.3332989 L33.9168748,10.7717032 L33.7501441,10.7488632 L33.479699,10.6910914 L33.2026897,10.6454113 L32.9768812,10.5983878 L33.0766571,10.5191195 L33.4902017,10.2221993 L33.9168748,9.94677553 L33.9168748,9.304568 Z M33.9168748,8.4688921 L33.9168748,9.23739148 L33.8722382,9.2467962 L33.2341979,9.46579165 L32.6617996,9.6713518 L32.6617996,8.75506408 L32.7747038,8.72147582 L32.7878322,8.72147582 L33.5584694,8.53741215 L33.5715978,8.53741215 L33.9168748,8.4688921 Z M36.0659942,17.815833 L36.0659942,18.3666804 L35.7535383,18.3545887 L35.2047711,18.3089086 L34.6678194,18.2739768 L34.1308678,18.2282968 L33.9168748,18.2054568 L33.9168748,17.6438611 L34.1755043,17.6787929 L34.7111431,17.7244729 L35.2494076,17.7580612 L35.7863593,17.8050847 L36.0659942,17.815833 Z M36.0659942,8.13838363 L36.0659942,8.93912774 L35.6957733,9.05332782 L35.6957733,9.06541959 L35.2375921,9.2467962 L34.8004163,9.44295163 L34.3435479,9.68344357 L33.9286904,9.93602728 L33.9168748,9.94677553 L33.9168748,9.304568 L34.0862312,9.20245969 L34.0954211,9.19171145 L34.1308678,9.17961968 L33.9168748,9.23739148 L33.9168748,8.4688921 L34.3632405,8.37618851 L34.3763689,8.37618851 L35.1824528,8.24049194 L35.9990394,8.13838363 L36.0095421,8.13838363 L36.0659942,8.13838363 Z M36.0659942,10.1536792 L36.0659942,10.1536792 L36.0659942,9.28307152 L35.8651297,9.52356346 L35.8651297,9.53565523 L35.6288184,9.82048367 L35.6288184,9.83257544 L35.4056356,10.1415874 L35.3951329,10.1536792 L35.1824528,10.4962795 L35.1706372,10.4962795 L34.9592699,10.852315 L34.9592699,10.8630632 L34.9369516,10.9087433 L34.8463657,10.897995 L34.5667307,10.8630632 L34.2975985,10.829475 L34.0192763,10.783795 L33.9168748,10.7717032 L33.9168748,11.3332989 L33.9391931,11.3332989 L34.2201409,11.3789789 L34.4879603,11.4125672 L34.5010887,11.4125672 L34.6573167,11.4354072 L34.5444124,11.6651509 L34.5325969,11.6651509 L34.3330451,12.1004547 L34.3330451,12.111203 L34.1400576,12.5585986 L33.9496958,13.0288342 L33.9391931,13.0395825 L33.9168748,13.1081025 L33.9168748,14.7807979 L33.9286904,14.7458661 L34.0954211,14.2192021 L34.276593,13.7140347 L34.4538264,13.2343944 L34.6455011,12.7762505 L34.835863,12.3181067 L35.0249119,11.9163911 L35.2270893,11.5146755 L35.2375921,11.5052708 L35.3386808,11.5146755 L35.6183157,11.538859 L35.6288184,11.5496073 L35.9097663,11.5737908 L36.0659942,11.5858826 L36.0659942,11.0229434 L35.95309,11.0121951 L35.6721422,10.9893551 L35.5277297,10.9772633 L35.640634,10.7945432 L35.8533141,10.4626912 L36.0659942,10.1536792 Z M36.0659942,10.1536792 L36.0659942,10.1536792 L36.0659942,9.28307152 L36.0869997,9.2602315 L36.109318,9.2467962 L36.3443164,9.00630426 L36.3574448,8.99555601 L36.5832533,8.78999587 L36.1447646,8.91494419 L36.0659942,8.93912774 L36.0659942,8.13838363 L36.8274416,8.06717652 L36.8274416,8.05777181 L37.6545309,8.02149649 L37.6663465,8.02149649 L37.7122959,8.02149649 L37.7897534,8.01074824 L37.8133846,8.01074824 L38.3280179,8 L38.3385207,8 L38.3490234,8 L38.3608389,8 L38.3726545,8 L39.2128722,8.01074824 L39.2207493,8.01074824 L39.3034582,8.02149649 L39.3467819,8.02149649 L39.3559718,8.02149649 L40.1620557,8.05777181 L40.1738713,8.06717652 L41.0022735,8.13838363 L41.014089,8.13838363 L41.2018252,8.15988012 L41.2018252,8.78999587 L41.2018252,9.01973956 L40.857861,8.90419595 L40.4219981,8.78999587 L40.6556836,8.99555601 L40.6556836,9.00630426 L40.9011848,9.2467962 L40.9143132,9.2602315 L41.1361832,9.52356346 L41.1493116,9.53565523 L41.2018252,9.60283175 L41.2018252,10.5312112 L41.1493116,10.451943 L40.9445085,10.1644274 L40.7226385,9.87825548 L40.5099584,9.62567177 L40.2854627,9.40936337 L40.0504643,9.19171145 L39.8495997,9.03183134 L39.6264169,8.88135593 L39.4019212,8.76849938 L39.1774256,8.67579578 L38.7980147,8.60727573 L38.6194685,8.57234394 L38.6194685,11.1277387 L38.6378482,11.1277387 L38.9201089,11.1277387 L39.3691002,11.115647 L39.6487352,11.1035552 L39.9270573,11.0928069 L40.2080051,11.0807152 L40.4863272,11.0578752 L40.7804035,11.0457834 L40.7804035,11.0350351 L41.0574127,11.0121951 L41.2018252,11.0001033 L41.2018252,11.561699 L41.1020493,11.561699 L41.1020493,11.5737908 L40.8237272,11.5979744 L40.8105988,11.5979744 L40.5230868,11.6073791 L40.2408261,11.6302191 L39.9520013,11.6409673 L39.6697406,11.6530591 L39.3901057,11.6651509 L39.3796029,11.6651509 L38.9332373,11.6772427 L38.6378482,11.6772427 L38.6194685,11.6772427 L38.6194685,17.884353 L38.8964777,17.8722613 L39.6054115,17.8628566 L40.1397374,17.8494212 L40.6793148,17.8279248 L41.2018252,17.8050847 L41.2018252,18.3545887 L40.6990074,18.3774287 L40.151553,18.4002687 L39.6159142,18.4123605 L38.9082933,18.4352005 L38.8964777,18.4352005 L38.6194685,18.4352005 L38.6194685,20.8737081 L38.0693884,20.8737081 L38.0693884,18.4352005 L37.7897534,18.4352005 L37.3985271,18.4123605 L36.8497598,18.4002687 L36.3009926,18.3774287 L36.0659942,18.3666804 L36.0659942,17.815833 L36.3233109,17.8279248 L36.8707653,17.8494212 L37.4103426,17.8628566 L37.801569,17.8722613 L38.0693884,17.884353 L38.0693884,11.6772427 L38.0601985,11.6772427 L37.7674352,11.6772427 L37.6335255,11.6651509 L37.3420749,11.6530591 L37.0506244,11.6409673 L36.7709894,11.6302191 L36.4900416,11.6073791 L36.4808517,11.6073791 L36.2012168,11.5979744 L36.0659942,11.5858826 L36.0659942,11.0229434 L36.2458533,11.0350351 L36.2458533,11.0457834 L36.5268012,11.0578752 L36.8051233,11.0807152 L37.0847582,11.0928069 L37.3630804,11.1035552 L37.6545309,11.115647 L37.7792507,11.1277387 L38.0601985,11.1277387 L38.0693884,11.1277387 L38.0693884,8.57234394 L37.9026577,8.60727573 L37.6663465,8.67579578 L37.6217099,8.75506408 L37.3880243,8.88135593 L37.1622158,9.03183134 L36.9508485,9.19171145 L36.7145373,9.40936337 L36.5005443,9.62567177 L36.2786744,9.89034725 L36.0659942,10.1536792 Z M42.1995837,17.7244729 L42.1995837,18.2860686 L41.7965418,18.3089086 L41.2477746,18.3545887 L41.2018252,18.3545887 L41.2018252,17.8050847 L41.2136407,17.8050847 L41.7532181,17.7580612 L42.1995837,17.7244729 Z M42.1995837,10.897995 L42.1995837,12.3987185 L42.1759526,12.3288549 L41.9750881,11.9056428 L41.7860391,11.5146755 L41.7742235,11.5052708 L41.6757605,11.5146755 L41.3829971,11.538859 L41.2018252,11.561699 L41.2018252,11.0001033 L41.3396734,10.9893551 L41.4709574,10.9772633 L41.3580532,10.783795 L41.2018252,10.5312112 L41.2018252,9.60283175 L41.3711816,9.82048367 L41.3829971,9.83257544 L41.5969901,10.1415874 L41.6088056,10.1536792 L41.8188601,10.4962795 L41.8319885,10.4962795 L42.0420429,10.8630632 L42.0761768,10.9087433 L42.1759526,10.897995 L42.1995837,10.897995 Z M42.1995837,8.30901199 L42.1995837,9.44295163 L41.7742235,9.2467962 L41.3055395,9.06541959 L41.3055395,9.05332782 L41.2018252,9.01973956 L41.2018252,8.78999587 L41.2018252,8.15988012 L41.8188601,8.24049194 L41.8319885,8.24049194 L42.1995837,8.30901199 Z M43.0949408,17.6438611 L43.0949408,18.2054568 L42.8730708,18.2282968 L42.3348063,18.2739768 L42.1995837,18.2860686 L42.1995837,17.7244729 L42.2888569,17.7244729 L42.829747,17.6787929 L43.0949408,17.6438611 Z M43.0949408,10.7717032 L43.0949408,11.3332989 L43.0818124,11.3332989 L42.8034902,11.3789789 L42.7929875,11.3789789 L42.5251681,11.4125672 L42.5120397,11.4125672 L42.3558117,11.4354072 L42.468716,11.6651509 L42.6708934,12.1004547 L42.8730708,12.5585986 L43.051617,13.0288342 L43.0621198,13.0395825 L43.0949408,13.1188508 L43.0949408,14.7807979 L43.0818124,14.7458661 L42.9058918,14.2312939 L42.7260327,13.7140347 L42.5474864,13.2343944 L42.3676273,12.7762505 L42.1995837,12.3987185 L42.1995837,10.897995 L42.4463977,10.8630632 L42.7260327,10.829475 L42.9951649,10.783795 L43.0949408,10.7717032 Z M43.0949408,8.4688921 L43.0949408,9.23739148 L42.8848863,9.17961968 L42.9058918,9.19171145 L42.9282101,9.20245969 L43.0949408,9.304568 L43.0949408,9.94677553 L43.0818124,9.94677553 L42.6472622,9.68344357 L42.2113993,9.44295163 L42.1995837,9.44295163 L42.1995837,8.30901199 L42.624944,8.37618851 L42.6367595,8.37618851 L43.0949408,8.4688921 Z M46.3192763,17.197809 L46.3192763,17.7580612 L46.0409542,17.815833 L45.5131924,17.8964448 L44.9972462,17.9757131 L44.9867435,17.9757131 L44.4944284,18.0455767 L44.506244,18.147685 L44.6401537,18.788549 L44.6401537,18.8006408 L44.7635607,19.4549401 L44.7635607,19.4656883 L44.8751521,20.1414841 L44.9867435,20.8293716 L44.4511047,20.9193882 L44.3382004,20.2328442 L44.226609,19.5570484 L44.103202,18.9040926 L43.9797951,18.2524804 L43.9469741,18.1154403 L43.9338457,18.1154403 L43.4087096,18.170525 L43.0949408,18.2054568 L43.0949408,17.6438611 L43.3417547,17.6223646 L43.8340698,17.5645928 L43.7014729,17.0258371 L43.5544348,16.4306532 L43.3982069,15.8462174 L43.2419789,15.2846217 L43.0949408,14.7807979 L43.0949408,13.1188508 L43.2419789,13.5205663 L43.2419789,13.5313146 L43.4310279,14.036482 L43.4310279,14.0458867 L43.5990714,14.5752377 L43.5990714,14.5873295 L43.7658021,15.1247416 L43.9233429,15.6970856 L44.0795709,16.2801778 L44.2384246,16.888797 L44.3697086,17.4960728 L44.4064681,17.4960728 L44.9184758,17.4262092 L45.4357349,17.3455974 L45.9503682,17.2663291 L46.3192763,17.197809 Z M46.3192763,9.37308805 L46.3192763,9.95752377 L46.1394172,9.89034725 L46.3192763,9.98170732 L46.3192763,10.6454113 L46.0842779,10.7031831 L45.8138329,10.7717032 L45.5460134,10.8402232 L45.2795069,10.9087433 L45.2427474,10.9087433 L45.5236952,11.184167 L45.5236952,11.1949153 L45.92805,11.5979744 L46.3192763,12.0198429 L46.3192763,12.8797024 L46.2851425,12.8461141 L45.9057317,12.3987185 L45.5368236,11.9849111 L45.1429715,11.5858826 L44.7399296,11.1949153 L44.5823887,11.0578752 L44.4721102,11.0807152 L44.4629203,11.0928069 L44.1819725,11.1371434 L43.9115274,11.184167 L43.6450208,11.2405953 L43.6345181,11.2405953 L43.364073,11.2876189 L43.3522574,11.2876189 L43.0949408,11.3332989 L43.0949408,10.7717032 L43.273487,10.7367714 L43.5426193,10.6910914 L43.8130644,10.6454113 L44.0349344,10.5983878 L43.9338457,10.5312112 L43.5084854,10.208764 L43.0949408,9.94677553 L43.0949408,9.304568 L43.364073,9.46579165 L43.3772014,9.47653989 L43.8130644,9.76271186 L43.8235671,9.76271186 L44.25943,10.0730674 L44.25943,10.0838156 L44.6847903,10.4277594 L44.695293,10.4277594 L44.7320525,10.4626912 L44.8987832,10.4277594 L45.1534742,10.3713311 L45.4121037,10.3028111 L45.6365994,10.2450393 L45.6142811,10.2450393 L45.0103746,9.95752377 L44.4064681,9.69553535 L43.7658021,9.46579165 L43.142203,9.2467962 L43.0949408,9.23739148 L43.0949408,8.4688921 L43.4310279,8.53741215 L44.2161063,8.72147582 L44.226609,8.72147582 L44.9972462,8.93912774 L45.0103746,8.93912774 L45.7586936,9.17961968 L45.7705091,9.17961968 L46.3192763,9.37308805 Z M47.8986231,16.9008888 L47.8986231,17.461141 L47.5861671,17.5310045 L47.0689081,17.6223646 L46.5529619,17.7244729 L46.3192763,17.7580612 L46.3192763,17.197809 L46.4663144,17.174969 L46.9678194,17.0822654 L47.4732629,16.9801571 L47.8986231,16.9008888 Z M47.8986231,14.1506821 L47.8986231,15.1932617 L47.6623119,14.8036379 L47.3380403,14.2890657 L46.9888248,13.7852418 L46.6448607,13.3029144 L46.3192763,12.8797024 L46.3192763,12.0198429 L46.3192763,12.0319347 L46.3310919,12.0319347 L46.7013128,12.4900785 L46.7118156,12.4900785 L47.0689081,12.9589706 L47.0807237,12.9710624 L47.4378162,13.4627945 L47.4496318,13.4627945 L47.7857189,13.9787102 L47.7962216,13.990802 L47.8986231,14.1506821 Z M47.8986231,10.0045473 L47.8986231,10.6118231 L47.7739033,10.5540513 L47.3039065,10.3471476 L47.1476785,10.4049194 L47.0912264,10.4170112 L47.6413064,10.7596114 L47.6518092,10.7717032 L47.8986231,10.9315833 L47.8986231,11.5979744 L47.3498559,11.229847 L46.7879603,10.875155 L46.3534102,10.6333196 L46.3192763,10.6454113 L46.3192763,9.98170732 L46.420365,10.0381356 L46.4755043,10.0273874 L46.486007,10.0273874 L46.3415946,9.97095907 L46.3192763,9.95752377 L46.3192763,9.37308805 L46.5201409,9.44295163 L46.5319565,9.44295163 L47.2710855,9.7291236 L47.2710855,9.74121538 L47.8986231,10.0045473 Z M49.4517131,16.5327615 L49.4517131,16.5327615 L49.2403458,16.5784415 L49.0736151,16.2344977 L49.0736151,16.2237495 L48.7716619,15.6514055 L48.7716619,15.6406573 L48.4578931,15.0669698 L48.1336215,14.5174659 L48.1204931,14.5174659 L47.8986231,14.1506821 L47.8986231,15.1932617 L47.9865834,15.3531418 L48.2898495,15.9039893 L48.5799872,16.4763332 L48.7033942,16.7168251 L48.4670829,16.7625052 L47.9760807,16.8767053 L47.8986231,16.9008888 L47.8986231,17.461141 L48.0876721,17.4154609 L48.5918028,17.3012609 L48.9383926,17.220649 L49.1392571,17.6667011 L49.4083894,18.3089086 L49.4517131,18.4352005 L49.4517131,16.5327615 Z M49.4517131,12.1004547 L49.3414345,12.0077511 L49.3322446,11.9970029 L48.7926673,11.5737908 L48.7821646,11.561699 L48.2215818,11.161327 L47.8986231,10.9315833 L47.8986231,11.5979744 L47.9091258,11.6194709 L47.9196286,11.6194709 L48.4670829,12.0077511 L48.9830291,12.420215 L49.4517131,12.8232741 L49.4517131,12.1004547 Z M49.4517131,10.783795 L49.4517131,11.4125672 L49.1523855,11.2405953 L48.4788985,10.8859033 L47.8986231,10.6118231 L47.8986231,10.0045473 L47.9997118,10.0488838 L48.0089017,10.0488838 L48.7152097,10.3941711 L49.4083894,10.7488632 L49.4215178,10.7596114 L49.4517131,10.783795 Z M53.8759846,15.1247416 L53.7092539,15.1932617 L53.2471342,15.36389 L52.7889529,15.5251137 L52.7206852,15.5492972 L52.3294589,15.0333816 L52.3176433,15.0333816 L51.8712776,14.4825341 L51.8594621,14.4717859 L51.3894653,13.945122 L50.898463,13.4292063 L50.3943324,12.9374742 L50.3943324,12.9240389 L49.879699,12.4551468 L49.8665706,12.4551468 L49.4517131,12.1004547 L49.4517131,12.8232741 L49.5094781,12.8676106 L50.0241114,13.3378462 L50.5151137,13.8188301 L50.9851105,14.322654 L51.4459174,14.8385697 L51.9040986,15.3894171 L52.1732309,15.7320174 L51.8476465,15.8341257 L51.3802754,15.9832575 L50.9102786,16.1323894 L50.4271534,16.270773 L49.945341,16.3957214 L49.4517131,16.5327615 L49.4517131,18.4352005 L49.6552033,18.9497726 L49.879699,19.5919802 L50.1028818,20.2677759 L50.315562,20.95432 L50.8288825,20.7944399 L50.6162024,20.1078958 L50.6162024,20.0958041 L50.4061479,19.4200083 L50.159334,18.7563043 L50.159334,18.7442125 L49.9138329,18.1033485 L49.9138329,18.0926002 L49.6447006,17.461141 L49.6447006,17.4503927 L49.4884726,17.0943572 L49.5856228,17.0594254 L50.0805636,16.9344771 L50.0923791,16.9344771 L50.5715658,16.8081852 L50.5715658,16.797437 L51.0665066,16.6590533 L51.5456932,16.511265 L52.0170029,16.3607896 L52.0288184,16.3607896 L52.4988152,16.2130012 L52.4988152,16.2009095 L52.5198207,16.2009095 L52.7325008,16.511265 L53.1342299,17.1064489 L53.528082,17.7137247 L53.8759846,18.3317487 L53.8759846,17.2542373 L53.5950368,16.8081852 L53.5950368,16.797437 L53.1919949,16.2009095 L53.1801793,16.1901612 L53.0580852,16.0195329 L53.4269933,15.8811492 L53.4388088,15.8811492 L53.8759846,15.7199256 L53.8759846,15.1247416 Z M53.8759846,13.9209384 L53.8759846,14.6665978 L53.528082,14.3441505 L52.9478066,13.8309219 L52.3635927,13.349938 L51.7583734,12.8904506 L51.120333,12.443055 L50.4954211,12.0198429 L49.8350624,11.6194709 L49.4517131,11.4125672 L49.4517131,10.783795 L50.1028818,11.1371434 L50.1133846,11.1492352 L50.7737432,11.5496073 L50.7855588,11.5496073 L51.432789,11.9849111 L52.073455,12.443055 L52.0839577,12.443055 L52.6996798,12.9132906 L52.6996798,12.9240389 L53.3035863,13.4063663 L53.3035863,13.4171145 L53.8759846,13.9209384 Z M53.8759846,15.7199256 L53.8956772,15.7091773 L54.3459814,15.5372055 L54.3564841,15.5372055 L54.6361191,15.4230054 L55.1284342,15.9604175 L55.631252,16.5327615 L56.1130644,17.1279454 L56.5607429,17.7244729 L57.0071085,18.3545887 L57.414089,18.9847044 L57.8040026,19.6484084 L57.817131,19.6484084 L58.1729107,20.3147995 L58.5195005,21 L59,20.7487598 L58.6652257,20.0608723 L58.6520973,20.050124 L58.2871278,19.3743282 L58.2739994,19.3622365 L57.8814601,18.6985325 L57.4574127,18.0455767 L57.0071085,17.4047127 L56.5502402,16.7853452 L56.5384246,16.7732534 L56.0461095,16.179413 L56.0461095,16.1659777 L55.5419789,15.5949773 L55.5314761,15.5828855 L55.0168428,15.0212898 L55.0063401,15.0105415 L54.4667627,14.4596941 L54.45626,14.4596941 L53.8956772,13.9330302 L53.8838617,13.9209384 L53.8759846,13.9209384 L53.8759846,14.6665978 L54.0755363,14.8600661 L54.209446,14.9984498 L54.1543068,15.0212898 L53.8759846,15.1247416 L53.8759846,15.7199256 Z M53.8759846,18.3317487 L54.2212616,18.9726126 L54.5573487,19.6376602 L54.8579891,20.3027077 L55.1507525,20.9785035 L55.6548831,20.7595081 L55.3621198,20.0837123 L55.3621198,20.0716205 L55.0496638,19.3971683 L55.0378482,19.38642 L54.7135767,18.7200289 L54.7017611,18.7092807 L54.3564841,18.0684167 L54.3564841,18.0576685 L53.987576,17.4262092 L53.987576,17.4154609 L53.8759846,17.2542373 L53.8759846,18.3317487 Z" id="Fill-16" fill="#00ADB1"></path>
                    <path d="M27.1981746,17.4476559 L37,23.6126701 L26.5939992,33 L26.1643936,30.9149723 C25.5002098,30.8571669 24.0695552,31.2577718 24.0695552,31.2577718 L24,19.7733154 C24.1295636,19.6025878 26.382606,18.9936145 26.382606,18.9936145 L26.3621486,17 L27.1981746,17.4476559 Z" id="Fill-17" fill="#006D86"></path>
                    <polygon id="Fill-18" fill="#006D86" points="46.777 29 46.223 28.9008539 46.251 18 46.777 18.0887097"></polygon>
                    <path d="M51.842,30 L51.158,29.9108356 L51.158,19 C51.158,19 51.73,19.0222911 51.824,19.1665276 L51.842,30 Z" id="Fill-19" fill="#006D86"></path>
                    <path d="M24,31.4391771 C23.3847222,31.5988372 22.6986111,31.8389982 22.0222222,32 L22,20.513864 C22.5569444,20.2857782 23.3138889,20.0912343 23.9875,20 L24,31.4391771 Z" id="Fill-20" fill="#006D86"></path>
                    <path d="M55.815,31 C55.637,30.9354157 55.45,30.8902067 55.176,30.8139972 L55.159,20 C55.159,20 55.67,20.0219587 55.841,20.2622123 L55.815,31 Z" id="Fill-21" fill="#006D86"></path>
                    <path d="M21,21 L21,32.3850952 L19.0283465,33 L19,21.5346998 C19.5905512,21.3301771 20.3811024,21.1697672 21,21" id="Fill-22" fill="#006D86"></path>
                    <path d="M59.7654321,22.3972083 L59.7654321,33.142935 C60.4087791,33.3247062 60.8532236,33.5502616 61.4266118,33.7545883 L61.4156379,22.9969205 C61.9163237,23.0871426 62.2812071,23.4042471 62.2812071,23.4042471 L62.2812071,34.0823071 C62.3744856,34.1048626 62.6186557,34.207026 62.829904,34.2972482 L62.9821674,34.3662416 L63.0068587,23.8341292 C63.2866941,23.9349658 63.7215364,24.1061225 63.7407407,24.2746257 L63.7215364,34.7045748 C63.8120713,34.8518492 63.9780521,34.9420714 64.1303155,34.9991236 L64.1399177,24.4431289 L64.7009602,24.8053444 L64.6776406,35.2366202 C64.7722908,35.2936725 64.9451303,35.5086136 65.0288066,35.486058 L65.0041152,25.0441678 C65.345679,25.2458409 65.5555556,25.3718866 65.600823,25.5417166 L65.5898491,35.825718 L65.9176955,36.1069989 L65.8957476,25.8017687 C66.138546,25.9477164 66.3141289,26.1188732 66.4458162,26.3789253 L66.4224966,36.4241033 C66.4910837,36.4586 66.6200274,36.79826 66.7489712,36.7412077 L66.7489712,26.7185853 C66.8998628,26.6058076 67.1358025,27.0463041 67.2633745,27.1259119 L67.2633745,37.3289787 C67.3552812,37.3847041 67.4128944,37.5333054 67.5322359,37.5333054 L67.5322359,27.5664084 L67.9890261,28.0307872 L68,38.8906184 C67.3100137,41.6715844 63.308642,43.449492 60.702332,44.7616939 C58.7256516,45.6891248 56.6652949,46.3565036 54.5747599,47 C54.3278464,47 54,46.8553792 54,46.5940002 L54,35.1450713 C55.696845,34.5692415 57.3347051,33.7771438 58.9478738,32.9054384 L58.957476,22.0004961 C59.042524,21.988555 59.6255144,22.1942085 59.7654321,22.3972083" id="Fill-23" fill="#006D86"></path>
                    <path d="M17.779403,33.1676713 C17.9455345,33.0788628 18.4583185,32.8894917 18.4583185,32.8894917 C19.105839,33.3674905 19.8854798,34.0805706 20.9228208,34.5703235 C22.8863123,35.6177416 25.2500892,36.196303 27.5052919,36.3086197 C25.8531335,41.2518585 28.7872518,45.950874 32,48 C25.2841004,47.5220012 19.4865026,46.4745831 13.1735046,43.3910991 C11.8679986,42.7106691 10.128196,41.3419731 10.0156975,39.6715893 C10.0156975,39.6715893 9.98037817,28.1460719 10.0156975,28.3576452 C10.0837198,27.811734 10.6619099,26.9340968 10.6619099,26.9340968 L10.7090023,37.9332931 L11.2191699,37.2894314 L11.1995481,26.2863171 C11.3212035,26.0642958 11.5775954,25.762608 11.9124747,25.5183846 L11.8889285,36.6312035 C11.8889285,36.6312035 12.2709002,36.2642154 12.4474967,36.1518987 L12.4474967,25.0286317 L13.3618742,24.3273056 L13.3409442,35.4610207 C13.5620169,35.2729556 13.9884647,35.0731364 13.9884647,35.0731364 L13.9884647,23.9472574 C14.3782852,23.6586297 14.9800214,23.2798875 15.3462956,23.191079 L15.3462956,34.2490456 C15.6576287,34.1027728 16.3286954,33.8363472 16.3286954,33.8363472 L16.3038411,22.6360257 C16.762992,22.3787422 17.2862409,22.1110106 17.779403,22 L17.779403,33.1676713 Z" id="Fill-24" fill="#006D86"></path>
                    <path d="M38.5517179,54 L37.892056,53.9898202 L37.2350118,53.9681882 L36.5897473,53.9134719 L35.9418651,53.8587557 L35.3057626,53.7849523 L34.6683512,53.6856996 L34.0322487,53.5660872 L33.4197055,53.4477474 L32.7940738,53.3065031 L32.1920015,53.1436267 L31.5781494,52.9603908 L30.9891656,52.77461 L30.3962552,52.5684696 L29.8151245,52.3394248 L29.2353027,52.1129248 L28.6777313,51.8635204 L28.1175423,51.592484 L27.5717506,51.3214476 L27.0272678,51.0275067 L26.5011089,50.7246585 L25.9775677,50.4090856 L25.4631885,50.0731531 L24.9618978,49.7270409 L24.4684603,49.3783837 L23.9776404,49.0106394 L23.5090711,48.6301705 L23.0522814,48.2395217 L22.6059626,47.827241 L22.1609526,47.4149602 L21.3219778,46.5700392 L21,46.2112022 L21.3219778,46.2875505 C22.9855299,46.6998313 24.8833667,46.731643 26.588802,46.731643 L26.8702054,46.7201908 L27.1594619,46.710011 L27.4500273,46.710011 L27.7510634,46.6871065 L28.0390111,46.6654745 L28.3413561,46.6336627 L28.6437011,46.601851 L28.9538993,46.5700392 L29.4224686,46.5038707 L29.6475913,46.4707864 L30.0808217,46.4071628 L30.5075077,46.3409943 L31.3006726,46.2112022 L32.0126886,46.0928624 L32.6828213,45.9719776 L33.2757317,45.86509 L33.8110525,45.7556574 L34.2900927,45.6576771 L34.7036902,45.5596968 L35.0596982,45.4718963 L35.3607344,45.3968205 L35.5937102,45.3433767 L35.7848028,45.2886604 L35.9183058,45.2555762 L35.9955281,45.2339441 L36.0177786,45.2250368 L36.0531176,45.2453964 L36.1434285,45.2886604 L36.299182,45.3650087 L36.5203781,45.4617165 L36.6538811,45.527885 L36.8109435,45.5813289 L36.9771678,45.6474974 L37.1590983,45.7111209 L37.3593528,45.7874692 L37.5700782,45.8536377 L37.7925832,45.9287136 L38.0373387,45.9936096 L38.3056535,46.0699579 L38.585748,46.1463062 L38.8763134,46.2112022 L39.1786584,46.2760983 L39.5019451,46.3409943 L39.8370115,46.4071628 L40.1917106,46.4618791 L40.5608071,46.5140504 L40.9508453,46.5700392 L41.3552809,46.601851 L41.7662607,46.645115 L42.2021087,46.6769268 L42.6471187,46.6998313 L43.1169969,46.710011 L43.5973459,46.710011 L44.0999455,46.710011 L44.1549173,46.710011 L44.3329213,46.710011 L44.4559535,46.7201908 L44.5907653,46.731643 L44.7347391,46.7430953 L44.9035812,46.7749071 L44.9808035,46.7863593 L45.0593347,46.7965391 L45.136557,46.8181711 L45.2268678,46.8398031 L45.3027813,46.8627076 L45.3826213,46.8957919 L45.4598437,46.9174239 L45.5383748,46.9492357 L45.6051263,46.9810475 L45.6731867,47.0141317 L45.7386293,47.0573957 L45.8053808,47.1006598 L45.8616615,47.1426513 L45.9061625,47.1973676 L45.9624432,47.2533563 L45.9977822,47.3068001 L46.017415,47.2966204 L46.0959462,47.2635361 L46.141756,47.2419041 L46.195419,47.2088198 L46.2634794,47.1871878 L46.3407017,47.1655558 L46.4192329,47.1426513 L46.5082349,47.133744 L46.5985457,47.1222918 L46.6875477,47.1108395 L46.7438284,47.1108395 L46.7883294,47.1108395 L46.8433012,47.1222918 L46.9008907,47.1222918 L46.9440829,47.133744 L46.9990547,47.1426513 L47.0566442,47.155376 L47.0998364,47.1770081 L47.1561171,47.1973676 L47.2123977,47.2088198 L47.2555899,47.2202721 L47.3027086,47.2317243 L47.3589893,47.2317243 L47.4021814,47.2419041 L47.4466824,47.2419041 L47.4898746,47.2419041 L47.5697146,47.2419041 L47.6456281,47.2317243 L47.7149973,47.2202721 L47.7804399,47.1973676 L47.8485003,47.1871878 L47.8916924,47.155376 L47.9375023,47.133744 L47.9715324,47.1222918 L48.0278131,47.0892075 L48.0369751,47.0790278 L48.0592256,47.0675755 L48.1272859,47.0459435 L48.1613161,47.0357637 L48.2189057,47.0141317 L48.2725686,47.0039519 L48.3497909,46.9912272 L48.4178513,46.9912272 L48.4950736,46.9912272 L48.5840756,46.9912272 L48.6730776,47.0039519 L48.7175786,47.0141317 L48.7751682,47.0243115 L48.8183603,47.0357637 L48.8641702,47.0459435 L48.9204508,47.0675755 L48.9741138,47.0892075 L49.0317033,47.1108395 L49.0748955,47.1426513 L49.0997637,47.1108395 L49.176986,47.0243115 L49.2319578,46.9708677 L49.2987093,46.9046992 L49.3432103,46.8728874 L49.399491,46.8398031 L49.4453009,46.8079913 L49.4989638,46.7749071 L49.5657153,46.7430953 L49.6337757,46.710011 L49.7031449,46.6871065 L49.7764406,46.6654745 L49.8680604,46.6336627 L49.9570624,46.6133032 L50.0460644,46.5903987 L50.1455372,46.5802189 L50.2580985,46.5585869 L50.3706599,46.5585869 L50.4832212,46.5471347 L50.6154154,46.5471347 L50.7489184,46.5471347 L50.8837302,46.5585869 L51.0290129,46.5700392 L51.1847664,46.5903987 L51.1847664,46.5471347 L51.1729867,46.4275224 L51.1729867,46.3409943 L51.1847664,46.2544663 L51.1847664,46.1564859 L51.2070169,46.0483259 L51.2174877,45.9834298 L51.2305763,45.9287136 L51.2423559,45.8739973 L51.2606799,45.8205535 L51.2868569,45.7658372 L51.3077986,45.7111209 L51.3405199,45.6576771 L51.3627704,45.6029609 L51.3994183,45.5495171 L51.4426104,45.4935283 C52.5917833,44.1828827 55.1348846,45.9936096 57,45.1575959 L56.0733321,46.243014 L55.6715143,46.6769268 L55.2592256,47.1006598 L54.8351572,47.5243928 L54.3980004,47.9252213 L53.9425195,48.3260498 L53.4831122,48.7052463 L53.0158517,49.0857152 L52.5355026,49.4445522 L52.0459916,49.8021167 L51.5420833,50.1380491 L51.0290129,50.4625294 L50.5172514,50.7781023 L49.9806217,51.0720432 L49.4453009,51.3647116 L48.8968915,51.635748 L48.3497909,51.8953322 L47.7804399,52.1345568 L47.2123977,52.372509 L46.631267,52.5913741 L46.0514452,52.796242 L45.4598437,52.9807504 L44.8590802,53.155079 L44.255699,53.3166828 L43.6418469,53.4477474 L43.0293038,53.5775395 L42.4010544,53.6856996 L41.7662607,53.7849523 L41.1301582,53.8587557 L40.4940556,53.9134719 L39.8474823,53.9681882 L39.2113797,53.9898202 L38.5517179,54 Z" id="Fill-25" fill="#00456D"></path>
                    <path d="M40.7998703,43.2356713 L40.7998703,47.1630461 C40.5325981,47.6972345 40.1446643,48.2777555 39.6127149,48.9059719 L38.5851443,48.9059719 L38.5280571,48.9059719 C34.1479079,48.8487375 30.3425235,45.1175952 30,40.5047695 L30,40.4938677 L30,39.2047295 C30.2776516,35.4054509 33.0424911,32.4428858 36.7155368,32.1280962 L37.3227376,32.0926653 L39.2377554,32.0926653 C38.0103795,33.8696593 37.6003892,35.3468537 37.6652611,36.635992 L37.688615,36.938517 C37.9558871,39.425491 39.879987,41.2365531 40.7998703,43.2356713 L40.7998703,43.2356713 Z M40.7998703,32.1171944 L40.7998703,32.2793587 C37.9312358,35.8360721 39.3156017,38.2399198 40.7998703,40.5987976 L40.7998703,41.0743888 C40.7739215,41.0280561 40.7401881,40.993988 40.7194291,40.9462926 C39.1144989,38.4143487 37.4888096,35.8578758 40.6753163,32 L40.7998703,32.1171944 Z M40.7998703,34.2321443 C40.0681155,35.6725451 40.253649,36.9616834 40.7998703,38.204489 L40.7998703,34.2321443 Z M40.7998703,32.2793587 L40.7998703,32.1171944 L40.8751216,32.1866934 C40.8517678,32.2207615 40.8180344,32.2548297 40.7998703,32.2793587 L40.7998703,32.2793587 Z M40.7998703,41.0743888 L40.7998703,40.5987976 C40.8426857,40.6696593 40.8867986,40.7377956 40.929614,40.8072946 C42.4450211,43.187976 43.9500487,45.5591182 41.4589685,49 L41.252676,48.8133066 C43.5945508,45.5931864 42.2348362,43.3283367 40.7998703,41.0743888 L40.7998703,41.0743888 Z M40.7998703,47.1630461 L40.7998703,43.2356713 C41.3396043,44.4212425 41.5277327,45.6749499 40.7998703,47.1630461 L40.7998703,47.1630461 Z M46.3178722,48.9059719 C48.3198184,48.9059719 49.8559844,47.3729058 50,45.3628858 L50,44.7346693 L50,44.711503 C49.8235485,42.3880561 47.8981512,40.5047695 45.6873175,40.5047695 C47.8981512,40.5047695 49.5355174,38.6228457 49.3681479,36.2993988 C49.1955887,33.9759519 47.1910477,32.0926653 44.9776192,32.0926653 L42.4450211,32.0926653 C41.6704509,32.848978 41.1397989,33.5562325 40.7998703,34.2321443 L40.7998703,38.204489 C42.1894259,41.3769138 45.9182614,44.2577154 42.821278,48.9059719 L46.3178722,48.9059719 Z" id="Fill-26" fill="#00456D"></path>
                    <path d="M77.8024121,5.41092579 C78.6158584,5.41092579 79.1329228,5.13040851 79.1329228,4.38989606 C79.1329228,3.77701233 78.837824,3.34360648 77.8768283,3.34360648 L77.0390044,3.34360648 L77.0390044,5.41092579 L77.8024121,5.41092579 Z M76.1036695,2.50205463 L78.0487555,2.50205463 C79.108545,2.50205463 80.1182961,2.96072033 80.1182961,4.33937636 C80.1182961,5.02803964 79.6743649,5.71670292 79.0585065,5.89618081 L80.3890172,8.31979695 L79.3292276,8.31979695 L78.2707211,6.20195794 L77.0390044,6.20195794 L77.0390044,8.31979695 L76.1036695,8.31979695 L76.1036695,2.50205463 Z M82.0890429,5.51329466 C82.0890429,2.83309161 80.2658455,0.842881315 78,0.842881315 C75.685399,0.842881315 73.8622017,2.83309161 73.8622017,5.51329466 C73.8622017,8.21742809 75.685399,10.1571187 78,10.1571187 C80.2658455,10.1571187 82.0890429,8.21742809 82.0890429,5.51329466 L82.0890429,5.51329466 Z M73,5.51329466 C73,2.2467972 75.2658455,0 78,0 C80.7097768,0 83,2.2467972 83,5.51329466 C83,8.80505197 80.7097768,11 78,11 C75.2658455,11 73,8.80505197 73,5.51329466 L73,5.51329466 Z" id="Fill-27" fill="#231916"></path>
                </g>
            </g>
        </g>
    </g>
</svg>