<?xml version="1.0" encoding="UTF-8"?>
<svg width="50px" height="50px" viewBox="0 0 50 50" version="1.1" xmlns="http://www.w3.org/2000/svg" xmlns:xlink="http://www.w3.org/1999/xlink">
    <title>编组 4备份 5</title>
    <defs>
        <rect id="path-1" x="0" y="0" width="50" height="50" rx="4"></rect>
        <mask id="mask-2" maskContentUnits="userSpaceOnUse" maskUnits="objectBoundingBox" x="0" y="0" width="50" height="50" fill="white">
            <use xlink:href="#path-1"></use>
        </mask>
    </defs>
    <g id="员工端-定稿" stroke="none" stroke-width="1" fill="none" fill-rule="evenodd">
        <g id="B1-询价详情" transform="translate(-587.000000, -382.000000)">
            <g id="编组-4备份-5" transform="translate(587.000000, 382.000000)">
                <use id="矩形" stroke="#D2D2D2" mask="url(#mask-2)" stroke-width="2" fill="#F4F4F4" stroke-dasharray="5,5" xlink:href="#path-1"></use>
                <g id="默认图" transform="translate(10.625000, 13.750000)" fill="#B0B0B0" fill-rule="nonzero">
                    <path d="M0,0 L0,22.5 L28.125,22.5 L28.125,0 L0,0 L0,0 Z M26.3671875,20.7692308 L1.75781248,20.7692308 L1.75781248,1.73076921 L26.3671875,1.73076921 L26.3671875,20.7692308 L26.3671875,20.7692308 Z M19.3359375,6.05770821 C19.3359375,7.49140583 20.5161207,8.65387795 21.9726724,8.65387795 C23.4291918,8.65387795 24.6094073,7.49140579 24.6094073,6.05770821 C24.6094073,4.62401062 23.4291918,3.46198407 21.9726724,3.46198407 C20.5161207,3.46198407 19.3359375,4.62401062 19.3359375,6.05770821 L19.3359375,6.05770821 Z M24.609375,19.0380477 L3.515625,19.0380477 L8.78906247,5.19230767 L15.8203125,13.8461538 L19.3359375,11.2499841 L24.609375,19.0380477 L24.609375,19.0380477 Z" id="形状"></path>
                </g>
            </g>
        </g>
    </g>
</svg>