<?xml version="1.0" encoding="UTF-8"?>
<svg width="90px" height="66px" viewBox="0 0 90 66" version="1.1" xmlns="http://www.w3.org/2000/svg" xmlns:xlink="http://www.w3.org/1999/xlink">
    <title>编组 2</title>
    <g id="员工端-定稿" stroke="none" stroke-width="1" fill="none" fill-rule="evenodd">
        <g id="G2-报价模板" transform="translate(-807.000000, -119.000000)">
            <g id="编组-5" transform="translate(807.000000, 117.000000)">
                <g id="logo" transform="translate(0.000000, 2.000000)">
                    <path d="M16.5547296,19.7347296 L16.353337,20.1077897 L16.3364133,20.1218674 L15.9217815,20.9946873 L15.9048578,21.0087651 L15.517304,21.8921433 L15.517304,21.9079807 L15.1382122,22.7931187 L15.788084,23.0799526 L16.1519445,22.1948147 L16.5547296,21.3096768 L16.5547296,19.7347296 Z M16.5547296,14.6614639 L16.5547296,15.8475135 L16.4379557,15.8035206 L15.8033153,16.5074076 L15.1703673,17.2570472 L14.5357269,18.0366021 L13.9433958,18.8337542 L13.3950665,19.6432242 L12.8602762,20.4685318 L12.357641,21.3378323 L11.8786991,22.2229702 L11.4302198,23.1081081 L10.8108108,22.7790409 L11.25929,21.8780655 L11.25929,21.8639878 L11.7331549,20.9788499 L11.7483862,20.9630124 L12.2544062,20.0937119 L12.2696376,20.0937119 L12.8027355,19.2384892 L13.3798352,18.3991039 L13.3950665,18.3832665 L13.9857052,17.5878741 L13.9857052,17.5720367 L14.6186532,16.7942415 L14.6338846,16.7766444 L15.2668326,16.0287644 L15.2837564,16.0129269 L15.9505519,15.277365 L15.9623985,15.2632873 L16.5547296,14.6614639 Z M17.8815511,17.4523759 L17.8815511,18.7880015 L17.4212253,19.6133091 L16.972746,20.4685318 L16.5547296,21.3096768 L16.5547296,19.7347296 L16.8001239,19.2684044 L16.8001239,19.2543267 L17.2756811,18.4272594 L17.2756811,18.4131817 L17.7800086,17.6177893 L17.7800086,17.6037116 L17.8815511,17.4523759 Z M17.8815511,13.4173436 L17.8815511,14.3781493 L17.1605996,15.0661989 L16.986285,15.2474498 L17.0421334,15.2632873 L17.6226178,15.4867714 L17.8815511,15.5923544 L17.8815511,16.3578316 L17.3738388,16.1625029 L16.8001239,15.9372591 L16.7848925,15.9372591 L16.5547296,15.8475135 L16.5547296,14.6614639 L16.6681186,14.5418031 L17.4043015,13.8519938 L17.4043015,13.8361563 L17.8815511,13.4173436 Z M18.3723397,16.716814 L18.3723397,18.0084466 L17.8815511,18.7880015 L17.8815511,17.4523759 L18.2995676,16.822397 L18.3131066,16.8083193 L18.3723397,16.716814 Z M18.3723397,15.7718456 L18.3723397,16.5373228 L17.9830936,16.3859871 L17.9712469,16.3859871 L17.8815511,16.3578316 L17.8815511,15.5923544 L18.2115641,15.7120152 L18.3723397,15.7718456 Z M18.3723397,12.9967711 L18.3723397,13.9417394 L17.8815511,14.3781493 L17.8815511,13.4173436 L18.1557158,13.1762622 L18.1709471,13.1621845 L18.3723397,12.9967711 Z M19.3674558,15.3530329 L19.3674558,16.8804677 L19.1812946,16.822397 L18.8783596,17.2429695 L18.3723397,18.0084466 L18.3723397,16.716814 L18.4738821,16.5848351 L18.3723397,16.5373228 L18.3723397,15.7718456 L18.8055875,15.9231813 L18.9189766,15.968934 L19.3674558,15.3530329 Z M19.3674558,12.1855413 L19.3674558,13.0882764 L19.3674558,13.1023541 L19.3674558,13.0882764 L18.6160416,13.7182553 L18.3723397,13.9417394 L18.3723397,12.9967711 L18.9359004,12.5163682 L18.9511317,12.5163682 L19.3674558,12.1855413 Z M24.0857957,10.6721842 L23.9842532,10.7460923 L23.9690219,10.7619298 L23.2785331,11.3162408 L23.2785331,11.3303185 L22.5846596,11.9163045 L22.5846596,11.9321419 L21.9246336,12.5304459 L21.9094022,12.5480431 L21.2561457,13.1920997 L20.6367366,13.8678312 L20.6231976,13.8678312 L20.0156352,14.5576405 L20.0156352,14.5717183 L19.4233042,15.2932025 L19.4097652,15.2932025 L19.3674558,15.3530329 L19.3674558,16.8804677 L19.7871647,17.0318034 L19.8023961,17.0318034 L20.4048813,17.2288918 L20.4218051,17.2288918 L21.0276751,17.408383 L21.6487765,17.6037116 L21.6623155,17.6037116 L22.2969559,17.7832028 L22.9315963,17.9468565 L23.0923719,17.9926092 L22.8740556,18.4589343 L22.8740556,18.4730121 L22.5423502,19.3000793 L22.5423502,19.3141571 L22.2106448,20.1535423 L22.2106448,20.1693798 L21.9094022,21.0386803 L21.6166214,21.9238182 L21.6166214,21.9396557 L21.3424568,22.8388713 L22.0227913,23.0482777 L22.2834169,22.149062 L22.5711206,21.2762421 L22.8740556,20.4227791 L23.1905296,19.5675564 L23.522235,18.7580863 L23.7811683,18.1580226 L24.0857957,18.2354502 L24.0857957,15.9231813 L23.9994846,16.0885948 L23.9994846,16.1026725 L23.6102385,16.8523122 L23.5966995,16.86639 L23.3953069,17.3168776 L23.1042185,17.2429695 L22.4695781,17.0775561 L21.8484767,16.9139023 L21.2290677,16.716814 L20.6231976,16.5373228 L20.0020962,16.3419941 L19.6246967,16.2082556 L19.9597869,15.7595276 L20.5487332,15.0521212 L21.157988,14.3623119 L21.7621656,13.7024178 L22.396806,13.0724389 L23.0466778,12.4723752 L23.7236276,11.8705518 L24.0857957,11.5854776 L24.0857957,10.6721842 Z M24.0857957,9.21689776 L24.0857957,10.0263678 L23.5070036,10.3255198 L22.6438927,10.8217602 L21.790936,11.346156 L20.9701344,11.900467 L20.1594871,12.486453 L19.3674558,13.0882764 L19.3674558,12.1855413 L19.7448553,11.900467 L20.5639645,11.3004033 L20.5791959,11.3004033 L21.4152289,10.7302549 L22.2664932,10.205859 L22.2834169,10.1900216 L23.1634516,9.69554093 L23.1769906,9.68146319 L24.0722567,9.21689776 L24.0857957,9.21689776 Z M25.1401449,14.1212306 L25.1401449,15.5026089 L25.0216787,15.6979375 L24.6188936,16.4475772 L24.2448789,17.1831391 L24.0857957,17.4981286 L24.371807,17.557959 L25.0216787,17.7075349 L25.1401449,17.7233724 L25.1401449,18.4730121 L24.8659803,18.4131817 L24.2161085,18.2636057 L24.0857957,18.2354502 L24.0857957,15.9231813 L24.4039621,15.3371954 L24.8202862,14.6174709 L24.8372099,14.6174709 L25.1401449,14.1212306 Z M25.1401449,9.92078478 L24.7052047,10.2216965 L24.0857957,10.6721842 L24.0857957,11.5854776 L24.4175011,11.3303185 L25.0961432,10.8217602 L25.1401449,10.7936047 L25.1401449,9.92078478 Z M25.1401449,8.70657967 L25.1401449,9.501972 L24.371807,9.86095438 L24.0857957,10.0263678 L24.0857957,9.21689776 L24.9946007,8.76465035 L25.0064474,8.76465035 L25.1401449,8.70657967 Z M26.3231147,17.9767717 L26.3231147,18.7123337 L26.1792628,18.6841782 L25.5310834,18.5469202 L25.5158521,18.5469202 L25.1401449,18.4730121 L25.1401449,17.7233724 L25.6580115,17.8430332 L26.3231147,17.9767717 Z M26.3231147,12.4107851 L26.3231147,13.6126722 L26.2926519,13.6584249 L25.8594041,14.3183189 L25.4261562,15.0063685 L25.1401449,15.5026089 L25.1401449,14.1212306 L25.2687654,13.9276616 L25.2687654,13.9118242 L25.7172446,13.2360926 L26.1792628,12.592036 L26.1928018,12.5761986 L26.3231147,12.4107851 Z M26.3231147,8.19626158 L26.3231147,9.99645263 L25.8306337,10.3114421 L25.1401449,10.7936047 L25.1401449,9.92078478 L25.4413876,9.71137839 L25.456619,9.69554093 L26.1792628,9.24681296 L26.1369535,9.2309755 L25.8881744,9.15530764 L25.2975358,9.42630415 L25.1401449,9.501972 L25.1401449,8.70657967 L25.9338685,8.36167503 L25.9474075,8.34583757 L26.3231147,8.19626158 Z M27.174379,18.1281074 L27.174379,18.8619097 L26.857905,18.8179167 L26.8409812,18.8179167 L26.3231147,18.7123337 L26.3231147,17.9767717 L26.9729864,18.0981922 L27.174379,18.1281074 Z M27.174379,11.346156 L27.174379,12.4723752 L26.7411311,13.0266863 L26.3231147,13.6126722 L26.3231147,12.4107851 L26.6717438,11.9620571 L27.1439163,11.3619935 L27.1591476,11.3619935 L27.174379,11.346156 Z M27.174379,7.87951242 L27.174379,8.64498955 L27.1439163,8.64498955 L26.9425237,8.73649487 L26.9865254,8.75057261 L27.0288348,8.75057261 L27.174379,8.67666447 L27.174379,9.54596494 L27.1439163,9.53012748 L27.1168383,9.53012748 L26.568509,9.84687664 L26.3231147,9.99645263 L26.3231147,8.19626158 L26.9002143,7.97101773 L27.174379,7.87951242 Z M29.7112482,18.3375138 L29.7112482,22.1349843 L29.5826278,23.0025251 L28.892139,22.884624 L29.0224518,21.9836486 L29.1646113,21.0985107 L29.1646113,21.0844329 L29.3253869,20.2274505 L29.3253869,20.211613 L29.4980091,19.3722277 L29.4980091,19.35815 L29.5267794,19.2244115 L28.8599839,19.1469839 L28.1813418,19.0431606 L27.5196234,18.9234998 L27.5077767,18.9234998 L27.174379,18.8619097 L27.174379,18.1281074 L27.6211658,18.217853 L28.2879614,18.3216764 L28.9649111,18.4272594 L29.6401685,18.5187647 L29.6689389,18.5187647 L29.7112482,18.3375138 Z M29.7112482,7.07004234 L29.7112482,8.27016971 L29.6283219,8.30184463 L28.8599839,8.64498955 L28.0696451,9.02156911 L28.0561061,9.02156911 L28.3573487,9.1113147 L28.6907465,9.18698256 L29.0224518,9.2608907 L29.208613,9.30664335 L29.2509224,9.2608907 L29.2644614,9.2608907 L29.7112482,8.90190832 L29.7112482,9.81696144 L29.7112482,9.83103918 L29.7112482,9.81696144 L29.7112482,10.1460286 L29.5826278,10.1319509 L29.565704,10.1319509 L29.411698,10.0861982 L29.1781503,10.2815269 L28.6738227,10.7777672 L28.1694951,11.3004033 L27.6922456,11.8265589 L27.2166884,12.4283823 L27.174379,12.4723752 L27.174379,11.346156 L27.6617828,10.7936047 L27.6770142,10.7936047 L28.1813418,10.2656894 L28.1813418,10.2516117 L28.5604336,9.90670704 L28.5282785,9.89086958 L28.1813418,9.80112398 L27.8394821,9.72721585 L27.490853,9.63747025 L27.174379,9.54596494 L27.174379,8.67666447 L27.3893105,8.55700368 L27.174379,8.64498955 L27.174379,7.87951242 L27.8665601,7.62611309 L27.8784067,7.62611309 L28.8464449,7.31112365 L28.8599839,7.31112365 L29.7112482,7.07004234 Z M31.3291582,12.7715272 L31.3291582,14.9623756 L31.1277656,15.6222696 L30.9246807,16.3578316 L30.7232881,17.1074713 L30.5371269,17.9028636 L30.3763514,18.6085103 L30.980529,18.6841782 L31.3291582,18.7123337 L31.3291582,19.4478956 L30.9111417,19.4021429 L30.2172682,19.3299945 L30.1766512,19.5235635 L30.0158756,20.3629487 L29.8567924,21.2181715 L29.7112482,22.1033094 L29.7112482,22.1349843 L29.7112482,18.3375138 L29.8432534,17.7233724 L29.8567924,17.7233724 L30.044646,16.9262204 L30.2460385,16.1783404 L30.2460385,16.1625029 L30.4491235,15.426941 L30.4491235,15.4128633 L30.6657474,14.6931388 L30.8976027,13.9998101 L30.8976027,13.987492 L31.1277656,13.3258382 L31.3291582,12.7715272 Z M31.3291582,7.78976682 L30.9686824,8.00093293 L30.9517587,8.01501067 L30.3932751,8.38983051 L30.3763514,8.38983051 L29.8314068,8.810403 L29.8144831,8.810403 L29.7112482,8.90190832 L29.7112482,9.81696144 L29.7112482,10.1460286 L29.9295645,10.1900216 L30.2917327,10.2656894 L30.650516,10.3255198 L30.9974528,10.3871099 L31.3291582,10.4469403 L31.3291582,9.71137839 L31.1142266,9.68146319 L30.7655975,9.60579534 L30.4085065,9.54596494 L30.1174181,9.48437483 L30.2460385,9.38055149 L30.7791365,8.99165391 L31.3291582,8.63091181 L31.3291582,7.78976682 Z M31.3291582,6.69522251 L31.3291582,7.70178095 L31.2716174,7.71409897 L30.4491235,8.00093293 L29.7112482,8.27016971 L29.7112482,7.07004234 L29.8567924,7.02604941 L29.8737162,7.02604941 L30.86714,6.7849681 L30.8840637,6.7849681 L31.3291582,6.69522251 Z M34.0995751,18.9375775 L34.0995751,19.6590617 L33.69679,19.6432242 L32.9893775,19.5833939 L32.2971963,19.5376412 L31.6050152,19.4778108 L31.3291582,19.4478956 L31.3291582,18.7123337 L31.6625559,18.7580863 L32.3530447,18.8179167 L33.0469182,18.8619097 L33.7390993,18.9234998 L34.0995751,18.9375775 Z M34.0995751,6.26233199 L34.0995751,7.31112365 L33.6223255,7.46069964 L33.6223255,7.4765371 L33.0316868,7.71409897 L32.4681261,7.97101773 L31.8791799,8.28600717 L31.3443895,8.61683407 L31.3291582,8.63091181 L31.3291582,7.78976682 L31.5474745,7.65602829 L31.5593211,7.64195055 L31.6050152,7.62611309 L31.3291582,7.70178095 L31.3291582,6.69522251 L31.9045655,6.573802 L31.9214892,6.573802 L32.9606071,6.39607052 L34.013264,6.26233199 L34.026803,6.26233199 L34.0995751,6.26233199 Z M34.0995751,8.90190832 L34.0995751,8.90190832 L34.0995751,7.76161134 L33.8406418,8.07660078 L33.8406418,8.09243824 L33.5360144,8.46549836 L33.5360144,8.48133582 L33.2483108,8.88607086 L33.2347718,8.90190832 L32.9606071,9.35063629 L32.9453757,9.35063629 L32.6729035,9.81696144 L32.6729035,9.83103918 L32.6441331,9.89086958 L32.5273593,9.87679184 L32.1668835,9.83103918 L31.8199467,9.78704624 L31.4611634,9.72721585 L31.3291582,9.71137839 L31.3291582,10.4469403 L31.3579285,10.4469403 L31.7200967,10.5067707 L32.065341,10.5507637 L32.0822648,10.5507637 L32.2836573,10.5806789 L32.1381131,10.8815906 L32.1228818,10.8815906 L31.8656409,11.451739 L31.8656409,11.4658168 L31.6168618,12.0518027 L31.3714675,12.6677039 L31.3579285,12.6817816 L31.3291582,12.7715272 L31.3291582,14.9623756 L31.3443895,14.9166229 L31.5593211,14.2268136 L31.7928688,13.5651598 L32.0213393,12.9369407 L32.268426,12.336877 L32.5138203,11.7368133 L32.7575222,11.2106577 L33.0181478,10.6845022 L33.0316868,10.6721842 L33.1619997,10.6845022 L33.5224754,10.7161771 L33.5360144,10.7302549 L33.8981825,10.7619298 L34.0995751,10.7777672 L34.0995751,10.0404456 L33.9540309,10.0263678 L33.5918628,9.99645263 L33.4057016,9.98061517 L33.5512458,9.74129359 L33.8254104,9.30664335 L34.0995751,8.90190832 Z M34.0995751,8.90190832 L34.0995751,8.90190832 L34.0995751,7.76161134 L34.1266531,7.73169614 L34.1554234,7.71409897 L34.4583585,7.39910953 L34.4752822,7.38503179 L34.7663706,7.115795 L34.2011175,7.27944873 L34.0995751,7.31112365 L34.0995751,6.26233199 L35.0811522,6.16906696 L35.0811522,6.15674894 L36.1473481,6.10923656 L36.1625795,6.10923656 L36.2218126,6.10923656 L36.3216627,6.09515882 L36.3521254,6.09515882 L37.0155362,6.08108108 L37.0290752,6.08108108 L37.0426142,6.08108108 L37.0578455,6.08108108 L37.0730769,6.08108108 L38.1561965,6.09515882 L38.1663508,6.09515882 L38.2729704,6.10923656 L38.3288187,6.10923656 L38.3406654,6.10923656 L39.3797832,6.15674894 L39.3950146,6.16906696 L40.4629029,6.26233199 L40.4781342,6.26233199 L40.7201438,6.29048747 L40.7201438,7.115795 L40.7201438,7.4167067 L40.2767417,7.26537099 L39.7148734,7.115795 L40.016116,7.38503179 L40.016116,7.39910953 L40.33259,7.71409897 L40.3495138,7.73169614 L40.6355251,8.07660078 L40.6524488,8.09243824 L40.7201438,8.18042412 L40.7201438,9.39638895 L40.6524488,9.29256561 L40.3884384,8.91598606 L40.1024271,8.54116622 L39.8282625,8.21033932 L39.5388664,7.92702479 L39.2359314,7.64195055 L38.9769981,7.43254416 L38.6892945,7.23545579 L38.3998985,7.08763952 L38.1105024,6.96621901 L37.6214062,6.87647341 L37.3912433,6.83072076 L37.3912433,10.1777035 L37.4149366,10.1777035 L37.778797,10.1777035 L38.3575891,10.1618661 L38.7180648,10.1460286 L39.0768482,10.1319509 L39.4390163,10.1161134 L39.7977997,10.0861982 L40.1768916,10.0703608 L40.1768916,10.056283 L40.5339826,10.0263678 L40.7201438,10.0105304 L40.7201438,10.7460923 L40.5915233,10.7460923 L40.5915233,10.7619298 L40.2327399,10.7936047 L40.2158162,10.7936047 L39.8451862,10.8059227 L39.4813257,10.8358379 L39.1090033,10.8499156 L38.7451428,10.8657531 L38.3846671,10.8815906 L38.3711281,10.8815906 L37.7957208,10.897428 L37.4149366,10.897428 L37.3912433,10.897428 L37.3912433,19.0273231 L37.7483343,19.0114856 L38.6622165,18.9991676 L39.3510129,18.9815705 L40.0465788,18.953415 L40.7201438,18.9234998 L40.7201438,19.6432242 L40.0719644,19.6731394 L39.3662442,19.7030546 L38.6757555,19.7188921 L37.7635657,19.7488073 L37.7483343,19.7488073 L37.3912433,19.7488073 L37.3912433,22.9426947 L36.6821384,22.9426947 L36.6821384,19.7488073 L36.3216627,19.7488073 L35.8173351,19.7188921 L35.1099226,19.7030546 L34.4025101,19.6731394 L34.0995751,19.6590617 L34.0995751,18.9375775 L34.4312805,18.953415 L35.1370006,18.9815705 L35.8325665,18.9991676 L36.3368941,19.0114856 L36.6821384,19.0273231 L36.6821384,10.897428 L36.6702918,10.897428 L36.2928923,10.897428 L36.1202701,10.8815906 L35.744563,10.8657531 L35.3688559,10.8499156 L35.0083801,10.8358379 L34.646212,10.8059227 L34.6343654,10.8059227 L34.2738896,10.7936047 L34.0995751,10.7777672 L34.0995751,10.0404456 L34.3314304,10.056283 L34.3314304,10.0703608 L34.6935985,10.0861982 L35.0523819,10.1161134 L35.4128576,10.1319509 L35.771641,10.1460286 L36.1473481,10.1618661 L36.3081237,10.1777035 L36.6702918,10.1777035 L36.6821384,10.1777035 L36.6821384,6.83072076 L36.4672069,6.87647341 L36.1625795,6.96621901 L36.1050388,7.07004234 L35.8037961,7.23545579 L35.5127077,7.43254416 L35.2402354,7.64195055 L34.935608,7.92702479 L34.659751,8.21033932 L34.3737397,8.55700368 L34.0995751,8.90190832 Z M42.0063483,18.8179167 L42.0063483,19.5534787 L41.4867894,19.5833939 L40.7793769,19.6432242 L40.7201438,19.6432242 L40.7201438,18.9234998 L40.7353751,18.9234998 L41.430941,18.8619097 L42.0063483,18.8179167 Z M42.0063483,9.87679184 L42.0063483,11.8423963 L41.9758856,11.750891 L41.7169523,11.19658 L41.4732504,10.6845022 L41.458019,10.6721842 L41.3310909,10.6845022 L40.9536914,10.7161771 L40.7201438,10.7460923 L40.7201438,10.0105304 L40.8978431,9.99645263 L41.0670805,9.98061517 L40.9215363,9.72721585 L40.7201438,9.39638895 L40.7201438,8.18042412 L40.9384601,8.46549836 L40.9536914,8.48133582 L41.2295485,8.88607086 L41.2447798,8.90190832 L41.5155597,9.35063629 L41.5324835,9.35063629 L41.8032634,9.83103918 L41.8472651,9.89086958 L41.9758856,9.87679184 L42.0063483,9.87679184 Z M42.0063483,6.48581612 L42.0063483,7.97101773 L41.458019,7.71409897 L40.8538414,7.4765371 L40.8538414,7.46069964 L40.7201438,7.4167067 L40.7201438,7.115795 L40.7201438,6.29048747 L41.5155597,6.39607052 L41.5324835,6.39607052 L42.0063483,6.48581612 Z M43.1605477,18.7123337 L43.1605477,19.4478956 L42.8745364,19.4778108 L42.1806629,19.5376412 L42.0063483,19.5534787 L42.0063483,18.8179167 L42.1214298,18.8179167 L42.818688,18.7580863 L43.1605477,18.7123337 Z M43.1605477,9.71137839 L43.1605477,10.4469403 L43.1436239,10.4469403 L42.7848406,10.5067707 L42.7713016,10.5067707 L42.4260572,10.5507637 L42.4091334,10.5507637 L42.2077409,10.5806789 L42.3532851,10.8815906 L42.6139107,11.451739 L42.8745364,12.0518027 L43.1046993,12.6677039 L43.1182383,12.6817816 L43.1605477,12.785605 L43.1605477,14.9623756 L43.1436239,14.9166229 L42.9168458,14.2426511 L42.6849905,13.5651598 L42.4548275,12.9369407 L42.2229723,12.336877 L42.0063483,11.8423963 L42.0063483,9.87679184 L42.3245147,9.83103918 L42.6849905,9.78704624 L43.0319272,9.72721585 L43.1605477,9.71137839 Z M43.1605477,6.69522251 L43.1605477,7.70178095 L42.8897678,7.62611309 L42.9168458,7.64195055 L42.9456161,7.65602829 L43.1605477,7.78976682 L43.1605477,8.63091181 L43.1436239,8.63091181 L42.583448,8.28600717 L42.0215797,7.97101773 L42.0063483,7.97101773 L42.0063483,6.48581612 L42.5546776,6.573802 L42.569909,6.573802 L43.1605477,6.69522251 Z M47.3170192,18.1281074 L47.3170192,18.8619097 L46.9582359,18.9375775 L46.2779013,19.0431606 L45.6127982,19.1469839 L45.5992592,19.1469839 L44.9646188,19.2384892 L44.9798502,19.3722277 L45.1524724,20.211613 L45.1524724,20.2274505 L45.3115556,21.0844329 L45.3115556,21.0985107 L45.4554074,21.9836486 L45.5992592,22.884624 L44.9087704,23.0025251 L44.7632262,22.1033094 L44.6193744,21.2181715 L44.4602912,20.3629487 L44.301208,19.5094857 L44.2588987,19.3299945 L44.2419749,19.3299945 L43.5650252,19.4021429 L43.1605477,19.4478956 L43.1605477,18.7123337 L43.4787141,18.6841782 L44.1133545,18.6085103 L43.9424247,17.9028636 L43.7528787,17.1233087 L43.5514862,16.3578316 L43.3500936,15.6222696 L43.1605477,14.9623756 L43.1605477,12.785605 L43.3500936,13.3117605 L43.3500936,13.3258382 L43.5937955,13.987492 L43.5937955,13.9998101 L43.8104194,14.6931388 L43.8104194,14.7089762 L44.025351,15.4128633 L44.2284359,16.1625029 L44.4298285,16.9262204 L44.6346058,17.7233724 L44.8038432,18.5187647 L44.8512297,18.5187647 L45.5112557,18.4272594 L46.1780513,18.3216764 L46.841462,18.217853 L47.3170192,18.1281074 Z M47.3170192,7.87951242 L47.3170192,8.64498955 L47.0851639,8.55700368 L47.3170192,8.67666447 L47.3170192,9.54596494 L47.0140842,9.62163279 L46.6654551,9.71137839 L46.3202107,9.80112398 L45.9766587,9.89086958 L45.9292722,9.89086958 L46.2914403,10.2516117 L46.2914403,10.2656894 L46.8126917,10.7936047 L47.3170192,11.346156 L47.3170192,12.4723752 L47.2730175,12.4283823 L46.7839213,11.8423963 L46.3083641,11.3004033 L45.8006518,10.7777672 L45.2810928,10.2656894 L45.0780079,10.0861982 L44.9358484,10.1161134 L44.9240018,10.1319509 L44.5618337,10.1900216 L44.2132046,10.2516117 L43.8696526,10.3255198 L43.8561136,10.3255198 L43.5074844,10.3871099 L43.4922531,10.3871099 L43.1605477,10.4469403 L43.1605477,9.71137839 L43.3907106,9.66562573 L43.7376473,9.60579534 L44.0862765,9.54596494 L44.3722878,9.48437483 L44.2419749,9.39638895 L43.6936456,8.97405674 L43.1605477,8.63091181 L43.1605477,7.78976682 L43.5074844,8.00093293 L43.5244082,8.01501067 L44.0862765,8.38983051 L44.0998155,8.38983051 L44.6616838,8.79632526 L44.6616838,8.810403 L45.2100131,9.2608907 L45.2235521,9.2608907 L45.2709386,9.30664335 L45.4858701,9.2608907 L45.8141908,9.18698256 L46.1475885,9.09723696 L46.4369845,9.02156911 L46.4082142,9.02156911 L45.6297219,8.64498955 L44.8512297,8.30184463 L44.025351,8.00093293 L43.2214732,7.71409897 L43.1605477,7.70178095 L43.1605477,6.69522251 L43.5937955,6.7849681 L44.6058354,7.02604941 L44.6193744,7.02604941 L45.6127982,7.31112365 L45.6297219,7.31112365 L46.5943754,7.62611309 L46.6096067,7.62611309 L47.3170192,7.87951242 Z M49.3529456,17.7392099 L49.3529456,18.4730121 L48.9501605,18.5645174 L48.283365,18.6841782 L47.6182619,18.8179167 L47.3170192,18.8619097 L47.3170192,18.1281074 L47.5065652,18.0981922 L48.1530522,17.9767717 L48.8046163,17.8430332 L49.3529456,17.7392099 Z M49.3529456,14.137068 L49.3529456,15.5026089 L49.0483183,14.9922908 L48.6303018,14.3183189 L48.1801302,13.6584249 L47.7367281,13.0266863 L47.3170192,12.4723752 L47.3170192,11.346156 L47.3170192,11.3619935 L47.3322506,11.3619935 L47.8095002,11.9620571 L47.8230392,11.9620571 L48.283365,12.5761986 L48.2985964,12.592036 L48.7589222,13.2360926 L48.7741536,13.2360926 L49.2074014,13.9118242 L49.2209404,13.9276616 L49.3529456,14.137068 Z M49.3529456,8.70657967 L49.3529456,9.501972 L49.1921701,9.42630415 L48.5863,9.15530764 L48.3849075,9.2309755 L48.3121354,9.24681296 L49.0212403,9.69554093 L49.0347793,9.71137839 L49.3529456,9.92078478 L49.3529456,10.7936047 L48.6455331,10.3114421 L47.9211969,9.84687664 L47.361021,9.53012748 L47.3170192,9.54596494 L47.3170192,8.67666447 L47.4473321,8.75057261 L47.5184118,8.73649487 L47.5319508,8.73649487 L47.3457896,8.66258673 L47.3170192,8.64498955 L47.3170192,7.87951242 L47.5759525,7.97101773 L47.5911839,7.97101773 L48.5439907,8.34583757 L48.5439907,8.36167503 L49.3529456,8.70657967 Z M51.3550246,17.2570472 L51.3550246,17.2570472 L51.0825523,17.3168776 L50.8676207,16.86639 L50.8676207,16.8523122 L50.4783746,16.1026725 L50.4783746,16.0885948 L50.0738971,15.3371954 L49.6558807,14.6174709 L49.6389569,14.6174709 L49.3529456,14.137068 L49.3529456,15.5026089 L49.4663347,15.7120152 L49.8572732,16.4334994 L50.231288,17.1831391 L50.3903712,17.4981286 L50.0857438,17.557959 L49.4527957,17.7075349 L49.3529456,17.7392099 L49.3529456,18.4730121 L49.5966476,18.4131817 L50.2465193,18.2636057 L50.6933062,18.1580226 L50.9522395,18.7422489 L51.2991762,19.5833939 L51.3550246,19.7488073 L51.3550246,17.2570472 Z M51.3550246,11.451739 L51.2128651,11.3303185 L51.2010185,11.3162408 L50.5054526,10.7619298 L50.4919136,10.7460923 L49.7692698,10.2216965 L49.3529456,9.92078478 L49.3529456,10.7936047 L49.3664846,10.8217602 L49.3800236,10.8217602 L50.0857438,11.3303185 L50.7508469,11.8705518 L51.3550246,12.3984671 L51.3550246,11.451739 Z M51.3550246,9.72721585 L51.3550246,10.5507637 L50.9691632,10.3255198 L50.1009751,9.86095438 L49.3529456,9.501972 L49.3529456,8.70657967 L49.4832585,8.76465035 L49.4951051,8.76465035 L50.4056025,9.21689776 L51.2991762,9.68146319 L51.3161,9.69554093 L51.3550246,9.72721585 Z M57.0583263,15.4128633 L56.8433948,15.5026089 L56.247679,15.726093 L55.6570403,15.9372591 L55.5690369,15.968934 L55.0647093,15.2932025 L55.0494779,15.2932025 L54.4740706,14.5717183 L54.4588392,14.5576405 L53.8529692,13.8678312 L53.2200212,13.1920997 L52.5701494,12.5480431 L52.5701494,12.5304459 L51.9067386,11.9163045 L51.8898149,11.9163045 L51.3550246,11.451739 L51.3550246,12.3984671 L51.429489,12.4565378 L52.0928998,13.0724389 L52.7258478,13.7024178 L53.3317179,14.3623119 L53.9257413,15.0380434 L54.51638,15.7595276 L54.8633167,16.2082556 L54.4436079,16.3419941 L53.8411226,16.5373228 L53.2352525,16.7326514 L52.6124588,16.9139023 L51.9913574,17.0775561 L51.3550246,17.2570472 L51.3550246,19.7488073 L51.6173426,20.4227791 L51.9067386,21.2639241 L52.1944423,22.149062 L52.4686069,23.0482777 L53.1303253,22.8388713 L52.8561607,21.9396557 L52.8561607,21.9238182 L52.5853808,21.0386803 L52.2672144,20.1693798 L52.2672144,20.1535423 L51.9507404,19.3141571 L51.9507404,19.3000793 L51.6038036,18.4730121 L51.6038036,18.4589343 L51.4024111,17.9926092 L51.5276468,17.9468565 L52.1656719,17.7832028 L52.1809033,17.7832028 L52.7986199,17.6177893 L52.7986199,17.6037116 L53.4366451,17.4224607 L54.0543618,17.2288918 L54.6619242,17.0318034 L54.6771555,17.0318034 L55.2830256,16.8382345 L55.2830256,16.822397 L55.3101036,16.822397 L55.5842682,17.2288918 L56.1021348,18.0084466 L56.6098471,18.803839 L57.0583263,19.6133091 L57.0583263,18.2020156 L56.6961582,17.6177893 L56.6961582,17.6037116 L56.1765993,16.822397 L56.1613679,16.8083193 L56.0039771,16.5848351 L56.4795343,16.4035842 L56.4947657,16.4035842 L57.0583263,16.1924181 L57.0583263,15.4128633 Z M57.0583263,13.8361563 L57.0583263,14.8127996 L56.6098471,14.3904674 L55.8618176,13.7182553 L55.108711,13.0882764 L54.3285264,12.486453 L53.5060324,11.900467 L52.7004622,11.346156 L51.8491979,10.8217602 L51.3550246,10.5507637 L51.3550246,9.72721585 L52.1944423,10.1900216 L52.2079813,10.205859 L53.0592456,10.7302549 L53.074477,10.7302549 L53.9088176,11.3004033 L54.7346963,11.900467 L54.7482353,11.900467 L55.5419589,12.5163682 L55.5419589,12.5304459 L56.3204511,13.1621845 L56.3204511,13.1762622 L57.0583263,13.8361563 Z M57.0583263,16.1924181 L57.083712,16.1783404 L57.6641964,15.9530965 L57.6777354,15.9530965 L58.0382111,15.8035206 L58.6728515,16.5074076 L59.3210309,17.2570472 L59.9421323,18.0366021 L60.519232,18.8179167 L61.0946393,19.6432242 L61.6192754,20.4685318 L62.1219106,21.3378323 L62.1388343,21.3378323 L62.5974678,22.2106522 L63.0442546,23.1081081 L63.6636637,22.7790409 L63.2321082,21.8780655 L63.2151844,21.8639878 L62.7447044,20.9788499 L62.7277806,20.9630124 L62.2217607,20.0937119 L61.6751237,19.2384892 L61.0946393,18.3991039 L60.505693,17.5878741 L60.4904616,17.5720367 L59.8558212,16.7942415 L59.8558212,16.7766444 L59.2059495,16.0287644 L59.1924105,16.0129269 L58.5289997,15.277365 L58.5154607,15.2632873 L57.8198948,14.5418031 L57.8063558,14.5418031 L57.083712,13.8519938 L57.0684806,13.8361563 L57.0583263,13.8361563 L57.0583263,14.8127996 L57.3155672,15.0661989 L57.4881894,15.2474498 L57.4171097,15.277365 L57.0583263,15.4128633 L57.0583263,16.1924181 Z M57.0583263,19.6133091 L57.5034208,20.4526943 L57.9366687,21.3237545 L58.3242224,22.1948147 L58.7016219,23.0799526 L59.3514937,22.7931187 L58.9740942,21.9079807 L58.9740942,21.8921433 L58.5713091,21.0087651 L58.5560777,20.9946873 L58.1380612,20.1218674 L58.1228298,20.1077897 L57.6777354,19.2684044 L57.6777354,19.2543267 L57.2021782,18.4272594 L57.2021782,18.4131817 L57.0583263,18.2020156 L57.0583263,19.6133091 Z" id="Fill-16" fill="#00ADB1"></path>
                    <path d="M22.1551808,17.6055012 L34.8348348,25.572116 L21.3736187,37.7027027 L20.8178804,35.0083679 C19.9586914,34.93367 18.1079947,35.4513436 18.1079947,35.4513436 L18.018018,20.6107876 C18.1856216,20.3901684 21.1001602,19.603235 21.1001602,19.603235 L21.0736964,17.027027 L22.1551808,17.6055012 Z" id="Fill-17" fill="#006D86"></path>
                    <polygon id="Fill-18" fill="#006D86" points="48.7135135 34.0540541 47.3825826 33.9225088 47.4498498 19.4594595 48.7135135 19.5771578"></polygon>
                    <path d="M57.2780781,34.0540541 L55.6348348,33.9357524 L55.6348348,19.4594595 C55.6348348,19.4594595 57.009009,19.4890349 57.2348348,19.6804052 L57.2780781,34.0540541 Z" id="Fill-19" fill="#006D86"></path>
                    <path d="M60.8168168,35.2702703 C60.3891892,35.184581 59.9399399,35.1245985 59.2816817,35.0234852 L59.2408408,20.6756757 C59.2408408,20.6756757 60.4684685,20.70481 60.8792793,21.0235741 L60.8168168,35.2702703 Z" id="Fill-21" fill="#006D86"></path>
                    <path d="M66.2789774,26.0622791 L66.2789774,40.1769363 C67.1069659,40.4156951 67.6789664,40.7119652 68.4169178,40.9803511 L68.4027943,26.850009 C69.0471777,26.9685171 69.5167831,27.385038 69.5167831,27.385038 L69.5167831,41.4108142 C69.6368326,41.4404412 69.9510798,41.5746341 70.2229566,41.6931422 L70.4189198,41.783766 L70.4506976,27.949694 C70.8108461,28.0821442 71.3704887,28.3069609 71.3952047,28.5282922 L71.3704887,42.2281712 C71.4870073,42.4216181 71.7006248,42.5401262 71.8965879,42.6150651 L71.908946,28.7496234 L72.6310084,29.2253983 L72.6009961,42.9270201 C72.722811,43.001959 72.9452557,43.284287 73.0529471,43.25466 L73.0211693,29.5390961 C73.4607623,29.8039964 73.7308737,29.9695592 73.789133,30.1926331 L73.7750096,43.700808 L74.1969483,44.0702742 L74.1687013,30.5342152 C74.4811831,30.7259194 74.7071587,30.9507361 74.8766403,31.2923181 L74.8466279,44.4867952 C74.9348996,44.5321071 75.1008504,44.978255 75.2668012,44.9033161 L75.2668012,31.7384661 C75.4609989,31.590331 75.7646535,32.1689291 75.9288389,32.2734951 L75.9288389,45.6753612 C76.047123,45.7485573 76.1212712,45.9437471 76.2748639,45.9437471 L76.2748639,32.8520932 L76.8627534,33.4620611 L76.8768769,47.7265961 C75.9888636,51.3794324 70.8390931,53.7147381 67.4847687,55.4383331 C64.9407785,56.6565261 62.2890969,57.5331371 59.5985756,58.3783784 C59.2807976,58.3783784 58.8588589,58.1884169 58.8588589,57.8450922 L58.8588589,42.8067693 C61.0427005,42.0504091 63.1506286,41.0099781 65.2267788,39.8649813 L65.2391368,25.5411922 C65.3485937,25.5255073 66.0989031,25.795636 66.2789774,26.0622791" id="Fill-23" fill="#006D86"></path>
                    <path d="M10.1941399,39.473816 C10.4118389,39.3533429 11.0837916,39.0964518 11.0837916,39.0964518 C11.9323033,39.7448805 12.9539457,40.7122086 14.3132787,41.3765823 C16.8862405,42.7974561 19.9837369,43.5823029 22.9389575,43.7346659 C20.773967,50.440411 24.6188393,56.8148551 28.8288288,59.5945946 C20.0283052,58.9461659 12.4311254,57.525292 4.15856456,53.3423953 C2.44782778,52.4193588 0.167988181,50.5626558 0.0205699813,48.2966986 C0.0205699813,48.2966986 -0.0257124767,32.6617712 0.0205699813,32.9487806 C0.109706567,32.2082254 0.867367546,31.0176678 0.867367546,31.0176678 L0.92907749,45.9386149 L1.59760188,45.065185 L1.57188941,30.1389228 C1.73130676,29.8377401 2.06728312,29.4284859 2.50610939,29.0971849 L2.47525442,44.1722668 C2.47525442,44.1722668 2.97579063,43.6744294 3.20720292,43.5220664 L3.20720292,28.4328112 L4.40540433,27.4814281 L4.37797769,42.5848566 C4.6676716,42.3297371 5.22648942,42.0586726 5.22648942,42.0586726 L5.22648942,26.9658741 C5.73731062,26.5743365 6.52582658,26.0605542 7.00579281,25.9400811 L7.00579281,40.9407531 C7.4137641,40.7423269 8.2931308,40.3809076 8.2931308,40.3809076 L8.26056167,25.1871243 C8.86223362,24.8381066 9.54789967,24.4749157 10.1941399,24.3243243 L10.1941399,39.473816 Z" id="Fill-24" fill="#006D86"></path>
                    <path d="M37.8401306,65.6756757 L36.959701,65.6632949 L36.0827652,65.6369857 L35.2215513,65.5704388 L34.3568437,65.503892 L33.507858,65.4141312 L32.6571254,65.2934184 L31.8081397,65.1479439 L30.9905979,65.0040171 L30.1555873,64.8322334 L29.3520206,64.6341406 L28.532732,64.4112861 L27.7466341,64.1853365 L26.9552956,63.9346252 L26.179679,63.6560571 L25.4058094,63.3805843 L24.6616367,63.0772546 L23.9139703,62.7476157 L23.1855196,62.4179768 L22.4588158,62.0604811 L21.7565684,61.6921522 L21.0578148,61.3083473 L20.3712893,60.8997808 L19.7022327,60.4788335 L19.0436574,60.054791 L18.3885758,59.6075344 L17.7631913,59.1448019 L17.1535287,58.6696886 L16.5578412,58.168266 L15.9639006,57.6668435 L14.8441479,56.6392368 L14.4144144,56.2028135 L14.8441479,56.2956695 C17.0644376,56.7970921 19.5974196,56.8357821 21.8736097,56.8357821 L22.2491897,56.8218537 L22.6352511,56.8094729 L23.0230594,56.8094729 L23.4248428,56.7816161 L23.8091573,56.7553069 L24.2126875,56.7166169 L24.6162177,56.6779268 L25.0302293,56.6392368 L25.6556138,56.5587616 L25.9560779,56.518524 L26.5342965,56.441144 L27.1037807,56.3606688 L28.1623925,56.2028135 L29.1126975,56.0588867 L30.0071022,55.9118646 L30.7984407,55.7818662 L31.5129163,55.6487726 L32.1522759,55.5296073 L32.7042913,55.4104421 L33.1794438,55.3036577 L33.5812271,55.2123492 L33.8921725,55.14735 L34.1472176,55.0808032 L34.3253997,55.0405656 L34.4284659,55.0142564 L34.4581629,55.0034232 L34.5053288,55.0281848 L34.6258638,55.0808032 L34.833743,55.1736592 L35.1289665,55.2912769 L35.3071486,55.3717521 L35.5167747,55.4367513 L35.738629,55.5172265 L35.9814459,55.5946065 L36.2487192,55.6874626 L36.5299675,55.7679378 L36.8269378,55.8592462 L37.1536052,55.9381738 L37.5117164,56.0310299 L37.8855496,56.1238859 L38.2733579,56.2028135 L38.6768881,56.2817411 L39.1083685,56.3606688 L39.5555708,56.441144 L40.0289764,56.5076908 L40.5215978,56.5711424 L41.0421692,56.6392368 L41.5819564,56.6779268 L42.1304781,56.7305453 L42.7121905,56.7692353 L43.3061311,56.7970921 L43.9332625,56.8094729 L44.574369,56.8094729 L45.2451725,56.8094729 L45.3185416,56.8094729 L45.5561178,56.8094729 L45.7203249,56.8218537 L45.900254,56.8357821 L46.0924113,56.8497105 L46.3177593,56.8884005 L46.4208255,56.9023289 L46.5256385,56.9147097 L46.6287047,56.9410189 L46.7492397,56.9673281 L46.850559,56.9951849 L46.9571189,57.0354225 L47.0601851,57.0617317 L47.1649981,57.1004218 L47.2540892,57.1391118 L47.3449272,57.1793494 L47.4322714,57.2319678 L47.5213625,57.2845862 L47.5964785,57.335657 L47.6558726,57.4022038 L47.7309886,57.4702983 L47.7781544,57.5352975 L47.8043577,57.5229167 L47.9091708,57.4826791 L47.9703117,57.4563699 L48.041934,57.4161322 L48.1327719,57.389823 L48.2358381,57.3635138 L48.3406511,57.335657 L48.4594393,57.3248238 L48.5799743,57.3108954 L48.6987624,57.296967 L48.7738784,57.296967 L48.8332725,57.296967 L48.9066416,57.3108954 L48.9835045,57.3108954 L49.0411517,57.3248238 L49.1145208,57.335657 L49.1913837,57.351133 L49.2490309,57.3774422 L49.3241469,57.4022038 L49.3992629,57.4161322 L49.4569101,57.4300606 L49.5197979,57.443989 L49.5949139,57.443989 L49.6525611,57.4563699 L49.7119552,57.4563699 L49.7696024,57.4563699 L49.8761623,57.4563699 L49.9774816,57.443989 L50.0700664,57.4300606 L50.1574106,57.4022038 L50.2482486,57.389823 L50.3058958,57.351133 L50.3670367,57.3248238 L50.4124557,57.3108954 L50.4875717,57.2706578 L50.4997999,57.258277 L50.529497,57.2443486 L50.6203349,57.2180394 L50.6657539,57.2056586 L50.7426168,57.1793494 L50.8142391,57.1669686 L50.9173052,57.1514926 L51.0081432,57.1514926 L51.1112094,57.1514926 L51.2299975,57.1514926 L51.3487856,57.1669686 L51.4081797,57.1793494 L51.4850426,57.1917302 L51.5426898,57.2056586 L51.6038307,57.2180394 L51.6789467,57.2443486 L51.750569,57.2706578 L51.8274319,57.296967 L51.885079,57.335657 L51.9182698,57.296967 L52.021336,57.1917302 L52.0947051,57.126731 L52.1837962,57.0462557 L52.2431903,57.0075657 L52.3183063,56.9673281 L52.3794473,56.9286381 L52.4510695,56.8884005 L52.5401606,56.8497105 L52.6309986,56.8094729 L52.7235834,56.7816161 L52.8214089,56.7553069 L52.9436908,56.7166169 L53.0624789,56.6918552 L53.1812671,56.6639984 L53.3140303,56.6516176 L53.4642623,56.6253084 L53.6144943,56.6253084 L53.7647264,56.61138 L53.9411617,56.61138 L54.1193438,56.61138 L54.2992729,56.6253084 L54.4931771,56.6392368 L54.7010563,56.6639984 L54.7010563,56.61138 L54.6853343,56.4659056 L54.6853343,56.3606688 L54.7010563,56.2554319 L54.7010563,56.1362667 L54.7307533,56.0047207 L54.7447284,55.925793 L54.7621972,55.8592462 L54.7779192,55.7926994 L54.8023755,55.7277002 L54.8373132,55.6611534 L54.8652634,55.5946065 L54.9089355,55.5296073 L54.9386325,55.4630605 L54.9875453,55.3980613 L55.0451924,55.3299669 C56.5789567,53.7359384 59.9731526,55.9381738 62.4624625,54.9214004 L61.2256685,56.2415035 L60.6893751,56.7692353 L60.1391066,57.2845862 L59.5731161,57.7999371 L58.9896568,58.2874313 L58.3817411,58.7749254 L57.7685848,59.2361103 L57.1449472,59.6988429 L56.5038407,60.1352662 L55.850506,60.5701419 L55.1779556,60.9787084 L54.4931771,61.3733465 L53.8101454,61.7571514 L53.0939229,62.1146471 L52.3794473,62.4705952 L51.6475028,62.8002341 L50.9173052,63.1159446 L50.1574106,63.4068935 L49.3992629,63.6962947 L48.6236464,63.962482 L47.8497767,64.2116457 L47.0601851,64.4360477 L46.2583653,64.648069 L45.4530517,64.8446143 L44.633763,65.0040171 L43.8162212,65.1618723 L42.9777169,65.2934184 L42.1304781,65.4141312 L41.2814924,65.503892 L40.4325067,65.5704388 L39.5695459,65.6369857 L38.7205602,65.6632949 L37.8401306,65.6756757 Z" id="Fill-25" fill="#00456D"></path>
                    <path d="M41.2490856,52.1715323 L41.2490856,57.2290419 C40.9119856,57.9169474 40.4226997,58.6645182 39.7517725,59.4735092 L38.4557376,59.4735092 L38.3837357,59.4735092 C32.8592232,59.399805 28.0596393,54.5949954 27.6276276,48.6547907 L27.6276276,48.6407518 L27.6276276,46.9806532 C27.9778189,42.0881005 31.4650038,38.2730326 36.0976741,37.8676596 L36.8635129,37.8220333 L39.2788507,37.8220333 C37.730809,40.1103721 37.2137041,42.0126415 37.2955245,43.6727401 L37.3249799,44.0623192 C37.6620799,47.2649407 40.0888725,49.5971511 41.2490856,52.1715323 L41.2490856,52.1715323 Z M41.2490856,37.8536208 L41.2490856,38.0624492 C37.6309881,42.6426366 39.3770352,45.7382116 41.2490856,48.7758761 L41.2490856,49.3883226 C41.2163575,49.3286573 41.1738109,49.2847858 41.1476283,49.2233657 C39.123392,45.9628338 37.0729731,42.6707144 41.0919905,37.7027027 L41.2490856,37.8536208 Z M41.2490856,40.5771651 C40.3261516,42.4320533 40.560158,44.0921519 41.2490856,45.6925852 L41.2490856,40.5771651 Z M41.2490856,38.0624492 L41.2490856,37.8536208 L41.3439973,37.9431187 C41.3145419,37.9869902 41.2719953,38.0308617 41.2490856,38.0624492 L41.2490856,38.0624492 Z M41.2490856,49.3883226 L41.2490856,48.7758761 C41.3030871,48.8671289 41.3587249,48.9548719 41.4127264,49.0443698 C43.3240506,52.1101121 45.2222836,55.1635704 42.0803807,59.5945946 L41.8201919,59.3541786 C44.7739079,55.2074419 43.0589526,52.2908628 41.2490856,49.3883226 L41.2490856,49.3883226 Z M41.2490856,57.2290419 L41.2490856,52.1715323 C41.9298312,53.6982614 42.1671103,55.3127336 41.2490856,57.2290419 L41.2490856,57.2290419 Z M48.2087277,59.4735092 C50.7337048,59.4735092 52.6712116,57.4992905 52.8528529,54.9108704 L52.8528529,54.1018794 L52.8528529,54.0720468 C52.6303014,51.0800087 50.2018723,48.6547907 47.4134335,48.6547907 C50.2018723,48.6547907 52.2670189,46.2313275 52.0559223,43.2392894 C51.8382801,40.2472513 49.3100301,37.8220333 46.5183185,37.8220333 L43.3240506,37.8220333 C42.3471152,38.7959812 41.6778244,39.706754 41.2490856,40.5771651 L41.2490856,45.6925852 C43.0016783,49.7779017 47.7047141,53.4876781 43.7986089,59.4735092 L48.2087277,59.4735092 Z" id="Fill-26" fill="#00456D"></path>
                    <path d="M83.1323163,7.1791153 C84.2071402,7.1791153 84.8903484,6.80693021 84.8903484,5.82443212 C84.8903484,5.01126943 84.5004281,4.43623464 83.230644,4.43623464 L82.1236094,4.43623464 L82.1236094,7.1791153 L83.1323163,7.1791153 Z M80.8877315,3.31967936 L83.457815,3.31967936 C84.8581376,3.31967936 86.1923432,3.92822845 86.1923432,5.75740352 C86.1923432,6.67110911 85.6057674,7.58481469 84.7920207,7.82294259 L86.5500527,11.0385512 L85.1497302,11.0385512 L83.7511029,8.22864198 L82.1236094,8.22864198 L82.1236094,11.0385512 L80.8877315,11.0385512 L80.8877315,3.31967936 Z M88.7963329,7.3149364 C88.7963329,3.75889305 86.3873034,1.11831919 83.3933934,1.11831919 C80.3350618,1.11831919 77.9260323,3.75889305 77.9260323,7.3149364 C77.9260323,10.9027301 80.3350618,13.4762754 83.3933934,13.4762754 C86.3873034,13.4762754 88.7963329,10.9027301 88.7963329,7.3149364 L88.7963329,7.3149364 Z M76.7867868,7.3149364 C76.7867868,2.98100856 79.7806968,0 83.3933934,0 C86.9738792,0 90,2.98100856 90,7.3149364 C90,11.6823785 86.9738792,14.5945946 83.3933934,14.5945946 C79.7806968,14.5945946 76.7867868,11.6823785 76.7867868,7.3149364 L76.7867868,7.3149364 Z" id="Fill-27" fill="#231916"></path>
                </g>
            </g>
        </g>
    </g>
</svg>