<?xml version="1.0" encoding="UTF-8"?>
<svg width="43px" height="41px" viewBox="0 0 43 41" version="1.1" xmlns="http://www.w3.org/2000/svg" xmlns:xlink="http://www.w3.org/1999/xlink">
    <title>排货架总数</title>
    <defs>
        <linearGradient x1="-17.7170768%" y1="9.92261828e-14%" x2="87.0413529%" y2="80.9449751%" id="linearGradient-1">
            <stop stop-color="#F6F6F6" stop-opacity="0" offset="0%"></stop>
            <stop stop-color="#E8E8E8" stop-opacity="0.2" offset="100%"></stop>
        </linearGradient>
    </defs>
    <g id="员工端-定稿" stroke="none" stroke-width="1" fill="none" fill-rule="evenodd">
        <g id="D1-排货柜信息" transform="translate(-1407.000000, -154.000000)">
            <g id="编组-2" transform="translate(1407.000000, 154.000000)">
                <circle id="椭圆形" fill-opacity="0.6" fill="#8B8B8B" cx="29.5853659" cy="27.5853659" r="13.4146341"></circle>
                <g id="形状-2备份" fill="url(#linearGradient-1)" fill-rule="nonzero">
                    <path d="M35,8.51351351 L0,8.51351351 L0,1.41891892 C0,0.638513514 0.65625,0 1.45833333,0 L33.5416667,0 C34.34375,0 35,0.638513514 35,1.41891892 L35,8.51351351 Z M8.28947368,35 L1.38157895,35 C0.621710526,35 0,34.3348818 0,33.5219595 L0,11.3513514 L8.28947368,11.3513514 L8.28947368,35 Z M32.6398026,35 L11.0526316,35 L11.0526316,11.3513514 L34.0789474,11.3513514 L34.0789474,33.5219595 C34.0789474,34.3348818 33.4313322,35 32.6398026,35 Z" id="形状"></path>
                </g>
            </g>
        </g>
    </g>
</svg>