<?xml version="1.0" encoding="UTF-8"?>
<svg width="43px" height="41px" viewBox="0 0 43 41" version="1.1" xmlns="http://www.w3.org/2000/svg" xmlns:xlink="http://www.w3.org/1999/xlink">
    <title>使用数</title>
    <defs>
        <linearGradient x1="-4.23688862e-12%" y1="1.32532874e-13%" x2="100%" y2="84.0477039%" id="linearGradient-1">
            <stop stop-color="#B8DDFF" stop-opacity="0" offset="0%"></stop>
            <stop stop-color="#CADFFF" stop-opacity="0.2" offset="100%"></stop>
        </linearGradient>
    </defs>
    <g id="员工端-定稿" stroke="none" stroke-width="1" fill="none" fill-rule="evenodd">
        <g id="D1-排货柜信息" transform="translate(-1616.000000, -153.000000)">
            <g id="编组-13" transform="translate(216.000000, 14.000000)">
                <g id="编组-7" transform="translate(20.000000, 0.000000)">
                    <g id="编组-184" transform="translate(1034.000000, 0.000000)">
                        <g id="使用数" transform="translate(346.000000, 139.000000)">
                            <g id="编组-4" transform="translate(18.000000, 16.000000)" fill="#5094FF" fill-opacity="0.6">
                                <circle id="椭圆形" cx="12.5" cy="12.5" r="12.5"></circle>
                            </g>
                            <path d="M33.5416667,0 C34.34375,0 35,0.65625 35,1.45833333 L35,1.45833333 L35,33.5416667 C35,34.34375 34.34375,35 33.5416667,35 L33.5416667,35 L1.45833333,35 C0.65625,35 0,34.34375 0,33.5416667 L0,33.5416667 L0,1.45833333 C0,0.65625 0.65625,0 1.45833333,0 L1.45833333,0 Z M8.75,11.6666667 L2.91666667,11.6666667 L2.91666667,32.0833333 L8.75,32.0833333 L8.75,11.6666667 Z M32.0833333,2.91666667 L2.91666667,2.91666667 L2.91666667,8.75 L32.0833333,8.75 L32.0833333,2.91666667 Z" id="形状结合" fill="url(#linearGradient-1)"></path>
                        </g>
                    </g>
                </g>
            </g>
        </g>
    </g>
</svg>