<?xml version="1.0" encoding="UTF-8"?>
<svg width="122px" height="37px" viewBox="0 0 122 37" version="1.1" xmlns="http://www.w3.org/2000/svg" xmlns:xlink="http://www.w3.org/1999/xlink">
    <title>编组</title>
    <defs>
        <polygon id="path-1" points="0 36.8541667 122 36.8541667 122 0 0 0"></polygon>
    </defs>
    <g id="员工端-定稿" stroke="none" stroke-width="1" fill="none" fill-rule="evenodd">
        <g id="B11-3货物信息(FCL整柜)" transform="translate(-47.000000, -14.000000)">
            <g id="编组" transform="translate(47.000000, 14.000000)">
                <path d="M28.3363608,0.0266289543 C28.6366031,0.00918239803 28.9389899,0 29.2435214,0 C30.496267,0 31.7134738,0.151203488 32.8785977,0.434939587 C35.0210408,1.58273934 36.6671651,3.45380598 37.4033715,5.93335953 C38.9315434,11.0794815 36.5161249,14.2067002 36.5161249,14.2067002 C38.0969924,13.4926157 42.0369065,11.2765969 41.816014,6.57306659 C43.1398374,8.47596554 44.0424025,10.6932086 44.3876811,13.0907327 C44.681796,13.069001 44.9786682,13.0576761 45.2779914,13.0576761 C51.8554421,13.0576761 57.1875,18.3846913 57.1875,24.9559214 C57.1875,31.2813693 52.2466762,36.4528959 46.0108277,36.8312107 L46.0108277,36.8541667 L45.2899398,36.8541667 L45.2779914,36.8541667 L45.2620602,36.8541667 L35.9741569,36.8541667 C37.8491394,36.273533 39.938887,35.2037837 41.3852582,33.233241 C45.6073388,27.4810808 43.9746948,19.9922231 37.7789807,16.6311593 C34.5856895,14.8984408 30.3464522,13.0396174 27.5636964,11.3656662 C22.5444419,8.34679981 23.2662489,1.99655941 28.3363608,0.0266289543" id="Fill-1" fill="#5BC0C6"></path>
                <path d="M13.1367628,9.53472574 C13.543651,9.53472574 13.9459946,9.55394958 14.3437937,9.58999429 C15.9277189,4.9672608 19.7230193,1.35768391 24.4805513,0 C19.3164341,2.34500847 15.827133,9.7233597 19.9408545,15.1330693 C23.4504546,19.7485938 28.6784984,21.0047518 31.7978736,22.8292146 C33.9613796,24.0943838 35.6207443,24.7609105 36.3657466,26.5775636 C38.0175369,30.6055595 35.303838,34.3587145 30.8719984,34.5845946 L25.261304,34.5845946 L25.261304,21.5394149 C25.261304,21.5394149 21.0685074,19.5103984 18.429945,15.8158161 L18.429945,35.5833333 L13.1537291,35.5833333 L13.1367628,35.5833333 C5.88124628,35.5833333 0,29.7522011 0,22.5588794 C0,15.365858 5.88124628,9.53472574 13.1367628,9.53472574" id="Fill-3" fill="#003D63"></path>
                <path d="M111.081979,33.6730659 C111.081979,33.4932879 111.081979,33.3288261 111.066917,33.1947458 L111.066917,33.1251948 C111.049847,33.015721 111.034533,32.9218146 111.018467,32.8434756 C110.995874,32.7342529 110.963741,32.6551606 110.917299,32.6001726 C110.863326,32.5303705 110.798559,32.4992358 110.722494,32.4992358 L109.922941,32.4992358 L109.922941,31.7708333 L110.807847,31.7708333 C110.963741,31.7708333 111.097042,31.8022192 111.221807,31.8647397 C111.253187,31.880056 111.277537,31.8958745 111.301888,31.911693 C111.440711,32.0053483 111.551168,32.1544938 111.637775,32.3503414 C111.699029,32.4992358 111.747981,32.6867975 111.778607,32.9064983 C111.810238,33.1251948 111.833333,33.3833119 111.833333,33.6811007 C111.833333,34.2445392 111.755261,34.6912224 111.61468,35.0118601 L111.61468,35.0198948 C111.589827,35.0668481 111.566983,35.1215849 111.535854,35.1682871 C111.512508,35.2149892 111.480124,35.2541587 111.449749,35.2938304 C111.28557,35.489678 111.073193,35.5833333 110.807847,35.5833333 L109.922941,35.5833333 L109.922941,34.8634678 L110.722494,34.8634678 L110.72877,34.8634678 C110.762158,34.855182 110.792534,34.855182 110.814876,34.8396146 C110.8327,34.8313288 110.847009,34.823294 110.863326,34.8079777 L110.871359,34.8079777 C110.933365,34.7459593 110.988092,34.6512996 111.018467,34.5109422 C111.0265,34.4795563 111.0265,34.4481705 111.034533,34.4170358 C111.042567,34.3936847 111.042567,34.362801 111.049847,34.3226272 C111.073193,34.1436024 111.088506,33.9319363 111.088506,33.6811007 L111.088506,33.6730659 L111.081979,33.6730659 Z M109.922941,34.8634678 L109.132174,34.8634678 C109.022722,34.8634678 108.944901,34.7931636 108.882142,34.6683735 C108.874861,34.643767 108.866828,34.620667 108.858795,34.5965627 C108.851766,34.5737138 108.842729,34.5501117 108.8357,34.519228 L108.8357,34.5109422 C108.812353,34.4170358 108.789007,34.2909902 108.780974,34.1586676 C108.763903,34.0178079 108.763903,33.8535973 108.763903,33.6811007 C108.763903,33.4862575 108.763903,33.3202892 108.780974,33.1879665 C108.789007,33.0471069 108.803065,32.9218146 108.82114,32.8356919 C108.851766,32.6948323 108.906241,32.6001726 108.97628,32.5456868 C108.992347,32.5374009 109.00766,32.5303705 109.022722,32.5223357 L109.031007,32.5223357 C109.061382,32.5075216 109.09477,32.4992358 109.125145,32.4992358 L109.132174,32.4992358 L109.922941,32.4992358 L109.922941,31.7708333 L109.039793,31.7708333 C108.906241,31.7708333 108.780974,31.7944355 108.67855,31.8421419 C108.569349,31.8883419 108.474206,31.9506114 108.398142,32.0452711 C108.294966,32.1544938 108.217897,32.3038903 108.154887,32.4909499 C108.146101,32.5303705 108.131039,32.56954 108.123759,32.6092117 C108.114721,32.6551606 108.108696,32.6948323 108.099659,32.7342529 L108.091375,32.7342529 L108.091375,32.7415344 C108.077066,32.8434756 108.060748,32.9609841 108.045686,33.0860253 C108.045686,33.1018438 108.036649,33.1251948 108.036649,33.1565807 C108.020833,33.3202892 108.020833,33.4862575 108.020833,33.6730659 L108.020833,33.6811007 C108.020833,34.0886144 108.052966,34.4328542 108.131039,34.7145735 C108.146101,34.7693103 108.161414,34.823294 108.179489,34.8707494 C108.192794,34.9177026 108.209864,34.965158 108.233211,35.0118601 C108.404167,35.3955205 108.67127,35.5833333 109.039793,35.5833333 L109.922941,35.5833333 L109.922941,34.8634678 Z" id="Fill-5" fill="#E20314"></path>
                <path d="M113.92543,31.7708333 L113.104167,31.7708333 L113.104167,34.5426006 C113.104167,34.8105193 113.190182,35.0249034 113.37811,35.1852617 C113.41246,35.215467 113.44908,35.2461634 113.492514,35.2778422 C113.536231,35.3082931 113.5808,35.3313768 113.633318,35.354215 C113.952682,35.5072061 114.412851,35.5833333 115.014107,35.5833333 C115.324387,35.5833333 115.590098,35.568599 115.818905,35.5295531 C116.051402,35.4991023 116.235924,35.4455676 116.384677,35.3768076 C116.741797,35.2078543 116.916667,34.932814 116.916667,34.5426006 L116.916667,31.7708333 L116.0937,31.7708333 L116.0937,34.4505113 C116.0937,34.5273752 116.067583,34.5887681 116.023014,34.6494243 C115.978445,34.6958374 115.908611,34.7417593 115.818905,34.7722101 C115.739987,34.8031522 115.624448,34.8257448 115.491876,34.8333575 C115.359021,34.8488285 115.200616,34.8564412 115.014107,34.8564412 C114.642225,34.8564412 114.36743,34.8257448 114.209309,34.7643519 C114.120171,34.7336554 114.048917,34.6958374 114.005484,34.6420572 C113.952682,34.5887681 113.92543,34.5192713 113.92543,34.4505113 L113.92543,31.7708333 Z" id="Fill-7" fill="#E20314"></path>
                <path d="M98.6609467,31.7708333 C98.4342751,31.7708333 98.2467628,31.8491724 98.090126,32.0053483 C98.0110545,32.0841895 97.9573361,32.1700611 97.9179259,32.2639676 C97.8775116,32.3581251 97.8541667,32.4673478 97.8541667,32.5770726 L97.8541667,34.7848777 C97.8541667,35.0048296 97.9322341,35.1996729 98.090126,35.3485673 C98.2467628,35.5049943 98.4342751,35.5833333 98.6609467,35.5833333 L101.666667,35.5833333 L101.666667,34.8634678 L98.7452896,34.8634678 C98.6996039,34.8634678 98.6609467,34.8471472 98.6295691,34.8157614 C98.6142569,34.8006962 98.5991956,34.7693103 98.5991956,34.7693103 C98.5991956,34.7693103 98.5831303,34.721855 98.5831303,34.698755 L98.5831303,34.6912224 L98.5831303,34.119247 C98.5831303,34.1169872 98.5838834,34.1154807 98.5841344,34.113472 L98.5841344,33.2409458 C98.5838834,33.2389371 98.5831303,33.2374306 98.5831303,33.2351708 L98.5831303,32.6631954 C98.5831303,32.6403465 98.5901589,32.624528 98.5991956,32.6001726 C98.5991956,32.5921378 98.6295691,32.5456868 98.6295691,32.5456868 C98.6609467,32.5145521 98.6996039,32.4994869 98.7452896,32.4994869 L101.666667,32.4994869 L101.666667,31.7708333 L98.6609467,31.7708333 Z" id="Fill-9" fill="#E20314"></path>
                <mask id="mask-2" fill="white">
                    <use xlink:href="#path-1"></use>
                </mask>
                <g id="Clip-12"></g>
                <polygon id="Fill-11" fill="#E20314" mask="url(#mask-2)" points="118.1875 35.5833333 119.458333 35.5833333 119.458333 31.7708333 118.1875 31.7708333"></polygon>
                <path d="M121.969474,33.4705032 C121.977598,33.4382481 121.983753,33.3986064 121.991876,33.3606882 C122,33.3203078 122,33.2821434 122,33.235115 L122,32.5772101 C122,32.3583188 121.921963,32.1633111 121.765888,32.0054828 C121.608337,31.8496243 121.420998,31.7708333 121.202149,31.7708333 L118.1875,31.7708333 L118.1875,32.4996502 L121.108849,32.4996502 L121.115988,32.4996502 C121.123127,32.4996502 121.139375,32.4996502 121.147499,32.5075293 C121.179009,32.5075293 121.202149,32.5223026 121.225536,32.5456937 C121.2568,32.5772101 121.272309,32.6168518 121.272309,32.6631415 L121.272309,33.1481987 C121.272309,33.1494298 121.271817,33.1506609 121.271817,33.1521382 C121.271817,33.1548467 121.273048,33.1565702 121.273048,33.1592787 L121.273048,34.2150782 C121.273048,34.217048 121.272309,34.2180329 121.272309,34.2200026 L121.272309,34.6912714 C121.272309,34.7459326 121.264185,34.7850819 121.232675,34.8161059 C121.209288,34.839497 121.179009,34.8552552 121.147499,34.8552552 C121.139375,34.8633805 121.123127,34.8633805 121.115988,34.8633805 L121.108849,34.8633805 L118.993967,34.8633805 C118.947686,34.8633805 118.91716,34.8237388 118.91716,34.7850819 L118.91716,34.1192979 C118.91716,34.111665 118.919622,34.1057557 118.921099,34.0993539 C118.918145,34.0877815 118.918145,34.0757166 118.921099,34.0643904 L118.921099,33.9378323 C118.907067,33.9173959 118.904113,33.8893266 118.921099,33.8679053 L118.921099,33.3414829 C118.920607,33.3358198 118.920853,33.3301567 118.920114,33.3247398 C118.919376,33.3208002 118.919622,33.3166145 118.919622,33.3126749 L118.1875,33.3126749 L118.1875,35.5833333 L121.202149,35.5833333 C121.358224,35.5833333 121.498789,35.5449227 121.623353,35.4661317 C121.656587,35.4501273 121.679974,35.42649 121.693267,35.4112242 C121.718623,35.395466 121.742009,35.3718287 121.765888,35.3484376 C121.843187,35.2708777 121.905961,35.1844538 121.944365,35.0903971 C121.983753,34.9960941 122,34.8948969 122,34.7850819 L122,34.1192979 C122,34.080641 122,34.0412455 121.991876,34.0023425 C121.983753,33.9631932 121.977598,33.9237977 121.961351,33.8925275 C121.952488,33.8538707 121.936487,33.8223543 121.921963,33.7989632 C121.905961,33.774341 121.890699,33.7514423 121.867312,33.7354379 L121.860173,33.727805 C121.827924,33.6884095 121.835063,33.6421198 121.867312,33.6184825 C121.914085,33.5874586 121.944365,33.5327973 121.969474,33.4705032" id="Fill-13" fill="#E20314" mask="url(#mask-2)"></path>
                <polygon id="Fill-14" fill="#E20314" mask="url(#mask-2)" points="121.936458 35.5833333 122.063542 35.5833333 122.063542 33.0416667 121.936458 33.0416667"></polygon>
                <path d="M104.351906,35.9295641 C104.279615,35.9295641 104.2183,35.9087665 104.168718,35.8683597 C104.144117,35.8487505 104.119894,35.8086408 104.119894,35.8086408 C104.119894,35.8086408 104.094156,35.7474364 104.094156,35.7180227 L104.094156,35.7082181 L104.094156,34.9737651 C104.094156,34.970794 104.09567,34.9687143 104.096049,34.9663374 L104.096049,33.8456431 C104.09567,33.8432662 104.094156,33.8408893 104.094156,33.8382153 L104.094156,33.1364444 C104.091885,33.1230745 104.089236,33.1097046 104.088479,33.0963347 C104.088479,33.0897983 104.088479,33.0829648 104.089236,33.0764284 C104.091129,33.0648412 104.092264,33.0526597 104.096427,33.0416667 C104.049116,33.042558 104.001806,33.0434493 103.954495,33.0437464 C103.61537,33.0470146 103.276624,33.0467175 102.9375,33.0470146 L102.9375,35.8288442 C102.9375,36.1108005 103.061265,36.3612632 103.311824,36.5523041 C103.56049,36.7531497 103.858359,36.8541667 104.2183,36.8541667 L106.720478,36.8541667 C106.714422,36.5454706 106.718964,36.2370717 106.75,35.9295641 L104.351906,35.9295641 Z" id="Fill-15" fill="#E20314" mask="url(#mask-2)"></path>
                <polygon id="Fill-16" fill="#E20314" mask="url(#mask-2)" points="102.9375 34.3125 104.208333 34.3125 104.208333 31.7708333 102.9375 31.7708333"></polygon>
                <polygon id="Fill-17" fill="#E20314" mask="url(#mask-2)" points="105.479167 36.8541667 108.020833 36.8541667 108.020833 35.5833333 105.479167 35.5833333"></polygon>
                <path d="M90.6789663,35.5833333 L91.5,35.5833333 L91.5,32.8118412 C91.5,32.5438076 91.4138189,32.3291337 91.2261293,32.1690547 C91.1920039,32.1386693 91.1555649,32.1080369 91.111896,32.0764163 C91.0682271,32.046031 91.0236905,32.0230567 90.9707673,32.0000823 C90.6514925,31.8469203 90.1916673,31.7708333 89.590135,31.7708333 C89.2798253,31.7708333 89.0143414,31.7856555 88.7852964,31.8246871 C88.5530702,31.8548254 88.3685618,31.9084321 88.2196247,31.9773551 C87.8627541,32.1465744 87.6875,32.421525 87.6875,32.8118412 L87.6875,35.5833333 L88.5105581,35.5833333 L88.5105581,32.9037385 C88.5105581,32.8266634 88.5368751,32.7656456 88.5814117,32.7048748 C88.6259482,32.6584321 88.6959342,32.6122365 88.7852964,32.5818511 C88.8642475,32.5512187 88.9799268,32.5284914 89.1126688,32.5210804 C89.2454108,32.5050231 89.4036022,32.497859 89.590135,32.497859 C89.9623331,32.497859 90.2367822,32.5284914 90.3949736,32.5897563 C90.4843359,32.6203887 90.5551894,32.6584321 90.5988584,32.7122859 C90.6514925,32.7656456 90.6789663,32.8350626 90.6789663,32.9037385 L90.6789663,35.5833333 Z" id="Fill-18" fill="#E20314" mask="url(#mask-2)"></path>
                <path d="M84.6815887,35.5833333 L87.6875,35.5833333 L87.6875,34.8632646 L84.7659814,34.8632646 C84.7202048,34.8632646 84.6815887,34.8471003 84.6501333,34.8160346 C84.6350449,34.800628 84.6260942,34.7849688 84.6197008,34.7693096 L84.6197008,34.7612275 L84.6197008,34.7539031 C84.6107501,34.7382439 84.6033338,34.7215745 84.6033338,34.6985909 L84.6033338,34.6912664 L84.6033338,34.119202 C84.6033338,34.0717194 84.6350449,34.0411588 84.6815887,34.0411588 L87.6875,34.0411588 L87.6875,33.3127553 L84.6897723,33.3127553 L84.6815887,33.3127553 C84.6350449,33.3127553 84.6033338,33.2821947 84.6033338,33.2352172 L84.6033338,32.6631528 C84.6033338,32.6404218 84.6107501,32.6247626 84.6197008,32.6005162 C84.6197008,32.592434 84.6260942,32.5851096 84.6260942,32.5770274 C84.6350449,32.5694504 84.6429727,32.5618734 84.6429727,32.5532861 C84.6501333,32.5532861 84.6501333,32.5532861 84.6501333,32.5457091 C84.6815887,32.5146434 84.7202048,32.4994893 84.7659814,32.4994893 L87.6875,32.4994893 L87.6875,31.7708333 L84.6815887,31.7708333 C84.4547516,31.7708333 84.2675535,31.8493817 84.1105321,32.0054681 C84.0317657,32.0842691 83.9780613,32.1698893 83.9384223,32.2640968 C83.8982719,32.3583044 83.875,32.4676659 83.875,32.5770274 L83.875,34.7849688 C83.875,35.0044496 83.9527435,35.1996839 84.1105321,35.348446 C84.2675535,35.5050375 84.4547516,35.5833333 84.6815887,35.5833333" id="Fill-19" fill="#E20314" mask="url(#mask-2)"></path>
                <path d="M82.3678875,35.348446 C82.5249798,35.1916018 82.6041667,35.0044496 82.6041667,34.7849688 L82.6041667,34.119202 C82.6041667,34.0022634 82.5869967,33.8999738 82.5485565,33.8067765 C82.5080661,33.7128216 82.4542498,33.6259385 82.3768569,33.5478953 C82.2179707,33.3915563 82.0239758,33.3127553 81.8038415,33.3127553 L79.6773291,33.3127553 C79.6550338,33.3127553 79.6378638,33.3127553 79.6145434,33.3051783 C79.6001924,33.2976013 79.5750781,33.2821947 79.5589333,33.2665356 C79.5281811,33.2352172 79.5130613,33.1948065 79.5130613,33.1483342 L79.5130613,32.6631528 C79.5130613,32.616933 79.5281811,32.5770274 79.5589333,32.5457091 C79.5922481,32.5148959 79.6306883,32.4994893 79.6773291,32.4994893 L82.6041667,32.4994893 L82.6041667,31.7708333 L79.5922481,31.7708333 C79.4346432,31.7708333 79.2847264,31.8180634 79.1599239,31.8961066 C79.1366035,31.9117658 79.1132831,31.9274249 79.0907315,31.9433366 C79.0656172,31.967078 79.0504974,31.9827371 79.0261519,32.0054681 L79.0200015,32.0054681 C78.8618841,32.1633226 78.7916667,32.3583044 78.7916667,32.5770274 L78.7916667,33.2352172 C78.7916667,33.3988807 78.8313882,33.5403183 78.9103188,33.6648338 C78.9246698,33.6883226 78.9408147,33.7128216 78.9569596,33.7355526 C78.9805362,33.7592939 78.994631,33.7830352 79.0200015,33.8067765 C79.1753,33.9631155 79.3728826,34.0411588 79.5922481,34.0411588 L81.7159416,34.0411588 C81.76412,34.0411588 81.8038415,34.0565654 81.8343374,34.0886414 C81.8648333,34.119202 81.8820033,34.1586025 81.8820033,34.213157 L81.8820033,34.6912664 C81.8820033,34.7458209 81.8648333,34.7849688 81.8343374,34.8160346 C81.8038415,34.8473529 81.76412,34.8635172 81.7159416,34.8635172 L78.7916667,34.8635172 L78.7916667,35.5833333 L81.8038415,35.5833333 C81.9135242,35.5833333 82.0147501,35.5676742 82.1090568,35.5295365 C82.2033634,35.4896309 82.2976701,35.4264892 82.3678875,35.348446" id="Fill-20" fill="#E20314" mask="url(#mask-2)"></path>
                <path d="M75.4986501,33.673042 C75.4986501,33.4932023 75.4986501,33.3287703 75.4833059,33.1946483 L75.4833059,33.1251877 C75.4664274,33.0158189 75.451339,32.9216052 75.4352277,32.8435568 C75.412723,32.7344406 75.3802447,32.6553818 75.3337009,32.6003186 C75.2799965,32.5301003 75.2152955,32.499285 75.1390864,32.499285 L74.3396582,32.499285 L74.3396582,31.7708333 L75.2242462,31.7708333 C75.3802447,31.7708333 75.5137384,31.8019011 75.6385372,31.8647945 C75.6699926,31.8802021 75.6940317,31.8961149 75.7183266,31.9117751 C75.8571908,32.0052311 75.9676684,32.1545081 76.0543626,32.3502606 C76.1154833,32.499285 76.1648402,32.6867022 76.1950169,32.9064501 C76.2264724,33.1251877 76.25,33.3835809 76.25,33.6811247 C76.25,34.2446392 76.1720008,34.6909547 76.0310907,35.0117362 L76.0310907,35.0198189 C76.0062844,35.067052 75.9837797,35.1216101 75.9523243,35.1680856 C75.9290524,35.2148136 75.896574,35.2544692 75.8661415,35.2938723 C75.7022153,35.4896247 75.4896993,35.5833333 75.2242462,35.5833333 L74.3396582,35.5833333 L74.3396582,34.8634695 L75.1390864,34.8634695 L75.1454798,34.8634695 C75.1787253,34.8551342 75.2091578,34.8551342 75.2314068,34.8397266 C75.249564,34.8313913 75.2638852,34.8233087 75.2799965,34.807901 L75.2879243,34.807901 C75.3498122,34.746018 75.4045395,34.6512991 75.4352277,34.5111151 C75.4431555,34.4795421 75.4431555,34.4482217 75.451339,34.4166487 C75.4592668,34.393411 75.4592668,34.3625958 75.4664274,34.322435 C75.4896993,34.1431005 75.5050434,33.9316878 75.5050434,33.6811247 L75.5050434,33.673042 L75.4986501,33.673042 Z M74.3396582,34.8634695 L73.5489251,34.8634695 C73.4397262,34.8634695 73.3614712,34.7929986 73.2988161,34.6682222 C73.2916555,34.6437216 73.283472,34.6202313 73.2752884,34.596741 C73.2683836,34.5737559 73.2594329,34.550013 73.2522723,34.5191977 L73.2522723,34.5111151 C73.2287446,34.4166487 73.2054727,34.290862 73.1975449,34.1585081 C73.1804107,34.0178189 73.1804107,33.8536394 73.1804107,33.6811247 C73.1804107,33.48613 73.1804107,33.3201824 73.1975449,33.1880811 C73.2054727,33.0471393 73.2197939,32.9216052 73.2376954,32.8357267 C73.2683836,32.6947849 73.3231109,32.6003186 73.3929266,32.5455079 C73.4090379,32.5374252 73.424382,32.5301003 73.4397262,32.5222702 L73.4476539,32.5222702 C73.4780864,32.5073677 73.511332,32.499285 73.5417645,32.499285 L73.5489251,32.499285 L74.3396582,32.499285 L74.3396582,31.7708333 L73.4566047,31.7708333 C73.3231109,31.7708333 73.1975449,31.7945762 73.0952509,31.842062 C72.9857962,31.8882848 72.8909185,31.9504204 72.8147094,32.0453919 C72.7116481,32.1545081 72.6344161,32.3040378 72.571761,32.4906972 C72.5628102,32.5301003 72.5477219,32.5692508 72.5405613,32.609159 C72.5313548,32.6553818 72.5252172,32.6947849 72.5162664,32.7344406 L72.5080829,32.7344406 L72.5080829,32.7415129 C72.4937617,32.8435568 72.4773947,32.9610082 72.4623063,33.0857846 C72.4623063,33.1016974 72.4533556,33.1251877 72.4533556,33.1567607 C72.4375,33.3201824 72.4375,33.48613 72.4375,33.673042 L72.4375,33.6811247 C72.4375,34.0885424 72.4694669,34.4328141 72.5477219,34.714445 C72.5628102,34.7692557 72.5781543,34.8233087 72.5960558,34.8705418 C72.6096098,34.9175224 72.6264883,34.9650082 72.6497602,35.0117362 C72.8211028,35.395411 73.0880903,35.5833333 73.4566047,35.5833333 L74.3396582,35.5833333 L74.3396582,34.8634695 Z" id="Fill-21" fill="#E20314" mask="url(#mask-2)"></path>
                <path d="M68.9899519,35.5833333 L72.4375,35.5833333 L70.5262455,32.1177179 C70.4626068,32.0021725 70.3714808,31.9176878 70.2707941,31.8560636 C70.1713026,31.8021424 70.0437262,31.7708333 69.8961321,31.7708333 C69.7491355,31.7708333 69.6215592,31.8021424 69.5220676,31.8560636 C69.4216797,31.9176878 69.3377243,32.0021725 69.2725917,32.1177179 L69.2654211,32.1177179 L67.3541667,35.5833333 L68.2872365,35.5833333 L69.7222459,32.9956142 C69.7491355,32.9255415 69.8047074,32.8954749 69.8961321,32.8954749 C69.9325825,32.8954749 69.9690329,32.9031779 69.9962212,32.918087 C70.0225133,32.934487 70.0520919,32.9573475 70.0688232,32.9881596 L71.0583613,34.7593582 C71.0583613,34.7673097 71.0667269,34.7824673 71.0667269,34.7978734 C71.0667269,34.835643 71.0290814,34.8749036 70.975601,34.8749036 L69.3929974,34.8749036 L68.9899519,35.5833333 Z" id="Fill-22" fill="#E20314" mask="url(#mask-2)"></path>
                <path d="M66.6263444,34.213157 L66.6263444,34.6910139 C66.6263444,34.7458209 66.6181608,34.7849688 66.5869611,34.8155294 C66.5636892,34.8397759 66.5332568,34.8551825 66.5018013,34.8551825 L66.5018013,35.5833333 L66.5565287,35.5833333 C66.7125271,35.5833333 66.8531815,35.5446906 66.9777245,35.4658896 C67.0109701,35.4502305 67.034242,35.4262366 67.0477959,35.4110826 C67.072858,35.3954234 67.0961299,35.3716821 67.120169,35.348446 C67.197401,35.2706553 67.2603119,35.1840248 67.2986721,35.0900698 C67.3380554,34.9958623 67.3541667,34.8945829 67.3541667,34.7849688 L67.3541667,34.119202 C67.3541667,34.0805592 67.3541667,34.0411588 67.3462389,34.0020109 C67.3380554,33.9631155 67.3319177,33.9237151 67.3158064,33.8921442 C67.3068557,33.853754 67.2907443,33.8221831 67.2764232,33.7989469 C67.2603119,33.7744479 67.2449677,33.7514643 67.2216958,33.7353 L67.2145353,33.727723 C67.1823126,33.6883226 67.1892175,33.6421028 67.2216958,33.6183615 C67.2684954,33.5875483 67.2986721,33.5327412 67.3237342,33.4706097 C67.3319177,33.4380286 67.3380554,33.3986281 67.3462389,33.3604905 C67.3541667,33.3203323 67.3541667,33.2821947 67.3541667,33.2349647 L67.3541667,32.5770274 C67.3541667,32.3583044 67.2764232,32.16307 67.120169,32.0054681 C66.9626361,31.8496343 66.7751822,31.7708333 66.5565287,31.7708333 L66.5018013,31.7708333 L66.5018013,32.5075715 C66.5332568,32.5075715 66.5565287,32.5224729 66.5798006,32.5457091 C66.6110002,32.5770274 66.6263444,32.616933 66.6263444,32.6631528 L66.6263444,33.1480816 C66.6263444,33.1945539 66.6110002,33.2349647 66.5798006,33.266283 C66.57264,33.27386 66.5636892,33.2821947 66.5475779,33.2897717 C66.5401616,33.2973487 66.5332568,33.2973487 66.5332568,33.3049257 C66.5171454,33.3049257 66.5089619,33.3127553 66.5018013,33.3127553 L66.5018013,34.0411588 C66.5332568,34.0487358 66.5565287,34.0638898 66.5798006,34.0886414 C66.6110002,34.119202 66.6263444,34.1586025 66.6263444,34.213157 L66.6263444,34.213157 Z M66.5018013,33.2349647 L66.5018013,33.2349647 L66.525329,33.2897717 L66.5332568,33.3049257 L66.5018013,33.2349647 Z M66.5018013,33.2119811 L66.5089619,33.2268825 L66.5332568,33.27386 L66.5475779,33.2897717 L66.5018013,33.2119811 Z M66.5018013,34.8551825 L66.5018013,35.5833333 L66.4703459,35.5833333 L66.4703459,34.8632646 C66.4775065,34.8632646 66.4938735,34.8632646 66.5018013,34.8551825 L66.5018013,34.8551825 Z M66.4703459,34.0411588 L66.4703459,33.3127553 L66.4775065,33.3127553 L66.5018013,33.3127553 L66.5018013,34.0411588 L66.4703459,34.0411588 Z M66.5018013,31.7708333 L66.4703459,31.7708333 L66.4703459,32.4994893 C66.4775065,32.4994893 66.4938735,32.4994893 66.5018013,32.5075715 L66.5018013,31.7708333 Z M66.5018013,33.2119811 L66.5018013,33.2119811 L66.4703459,33.164751 L66.4703459,33.1566689 L66.5018013,33.2349647 L66.4703459,33.1566689 L66.5018013,33.2119811 Z M66.4703459,34.8632646 L66.4631853,34.8632646 L64.3485111,34.8632646 C64.3017116,34.8632646 64.2715349,34.823359 64.2715349,34.7849688 L64.2715349,34.119202 C64.2715349,34.0714668 64.3017116,34.0411588 64.3485111,34.0411588 L66.4631853,34.0411588 L66.4703459,34.0411588 L66.4703459,33.3127553 L66.4631853,33.3127553 L63.5416667,33.3127553 L63.5416667,35.5833333 L66.4703459,35.5833333 L66.4703459,34.8632646 Z M66.4703459,31.7708333 L66.4703459,32.4994893 L66.4631853,32.4994893 L63.5416667,32.4994893 L63.5416667,31.7708333 L66.4703459,31.7708333 Z" id="Fill-23" fill="#E20314" mask="url(#mask-2)"></path>
                <path d="M112.260589,20.948273 C112.118144,22.1072705 111.745832,23.3450256 111.143959,24.6618534 C110.542085,25.9783662 109.750387,27.04821 108.768559,27.8716999 L117.605313,27.8716999 C118.223082,27.8716999 118.749454,27.7321414 119.185041,27.4523942 C119.620627,27.1729621 119.838268,26.8346193 119.838268,26.4383108 L119.838268,25.1876394 L121.952315,25.1876394 L121.952315,26.4383108 C121.952315,26.9467702 121.758517,27.4142755 121.370616,27.841142 C120.982409,28.2683234 120.456036,28.6063512 119.790888,28.8555404 C119.12574,29.1044146 118.397011,29.2291667 117.605313,29.2291667 L105.086401,29.2291667 L105.086401,27.8716999 C105.909889,27.8716999 106.685997,27.4980737 107.41442,26.7508211 C108.143149,26.0035686 108.748691,25.0861996 109.231963,23.998399 C109.714929,22.9105985 110.011739,21.8936798 110.122699,20.948273 L105.039021,20.948273 L105.039021,19.5911213 L122,19.5911213 L122,20.948273 L112.260589,20.948273 Z M105.632947,15.3363184 L121.453759,15.3363184 L121.453759,13.9791667 L105.632947,13.9791667 L105.632947,15.3363184 Z M100.010059,27.6889822 L100.010059,23.647455 L98.2285858,23.647455 L98.2285858,27.6889822 C98.2285858,28.1057676 98.4621214,28.4639574 98.9294982,28.7638665 C99.3965693,29.0637756 99.9547316,29.2137302 100.603985,29.2137302 L100.603985,28.0701692 C100.445645,28.0701692 100.307175,28.0345707 100.188267,27.9633738 C100.069665,27.8921769 100.010059,27.800503 100.010059,27.6889822 L100.010059,27.6889822 Z M93.0736855,23.647455 L93.0736855,27.6889822 C93.0736855,27.800503 93.0183584,27.8921769 92.9073984,27.9633738 C92.7967442,28.0345707 92.653994,28.0701692 92.4797594,28.0701692 L92.4797594,29.2137302 C93.1293184,29.2137302 93.6874806,29.0637756 94.1545517,28.7638665 C94.6216229,28.4639574 94.8554641,28.1057676 94.8554641,27.6889822 L94.8554641,23.647455 L93.0736855,23.647455 Z M91.1497682,27.6889822 L91.1497682,23.647455 L89.3918323,23.647455 L89.3918323,27.6889822 C89.3918323,28.1057676 89.6253678,28.4639574 90.092439,28.7638665 C90.5595101,29.0637756 91.117978,29.2137302 91.7672313,29.2137302 L91.7672313,28.0701692 C91.5929967,28.0701692 91.4465784,28.0320505 91.3276709,27.9558131 C91.2090691,27.8795757 91.1497682,27.790422 91.1497682,27.6889822 L91.1497682,27.6889822 Z M84.236932,23.647455 L84.236932,27.6889822 C84.236932,27.790422 84.1776311,27.8795757 84.0587236,27.9558131 C83.9401217,28.0320505 83.7933978,28.0701692 83.6194689,28.0701692 L83.6194689,29.2137302 C84.2846173,29.2137302 84.8467533,29.0637756 85.3058769,28.7638665 C85.7653061,28.4639574 85.9948679,28.1057676 85.9948679,27.6889822 L85.9948679,23.647455 L84.236932,23.647455 Z M97.610817,20.3229373 L97.610817,21.2837806 L100.627828,21.2837806 L100.627828,22.6409323 L97.610817,22.6409323 L97.610817,29.2291667 L95.4967699,29.2291667 L95.4967699,22.6409323 L92.4797594,22.6409323 L92.4797594,21.2837806 L95.4967699,21.2837806 L95.4967699,20.3229373 L97.610817,20.3229373 Z M86.6361737,20.3229373 L88.7740634,20.3229373 L88.7740634,21.2837806 L91.7672313,21.2837806 L91.7672313,22.6409323 L88.7740634,22.6409323 L88.7740634,29.2291667 L86.6361737,29.2291667 L86.6361737,22.6409323 L83.6430058,22.6409323 L83.6430058,21.2837806 L86.6361737,21.2837806 L86.6361737,20.3229373 Z M95.924409,16.2360457 L95.924409,17.3493637 C95.924409,17.8168691 96.1341019,18.2490911 96.5537934,18.6457146 C96.973485,19.042023 97.5395948,19.3570536 98.2524284,19.5911213 C98.9649565,19.824874 99.7410648,19.9417503 100.580142,19.9417503 L100.580142,18.5845986 C99.8835093,18.5845986 99.2856094,18.4626818 98.786748,18.2185331 C98.2878867,17.9743844 98.0384561,17.6848713 98.0384561,17.3493637 L98.0384561,16.2360457 L95.924409,16.2360457 Z M88.2752021,17.3493637 L88.2752021,16.2360457 L86.161155,16.2360457 L86.161155,17.3493637 C86.161155,17.6848713 85.9117244,17.9743844 85.4128631,18.2185331 C84.9140017,18.4626818 84.3240493,18.5845986 83.6430058,18.5845986 L83.6430058,19.9417503 C84.4823889,19.9417503 85.2584973,19.824874 85.9710253,19.5911213 C86.683859,19.3570536 87.245995,19.042023 87.657739,18.6457146 C88.069483,18.2490911 88.2752021,17.8168691 88.2752021,17.3493637 L88.2752021,17.3493637 Z M93.2164357,19.8503915 L91.1020829,19.8503915 L91.1020829,15.8699802 L84.3319969,15.8699802 L84.3319969,14.5128285 L91.1020829,14.5128285 L91.1020829,13.9791667 L93.2164357,13.9791667 L93.2164357,14.5128285 L99.9865217,14.5128285 L99.9865217,15.8699802 L93.2164357,15.8699802 L93.2164357,19.8503915 Z M78.2340898,25.9197705 L71.8204206,25.9197705 L71.8204206,27.8716999 L79.1605902,27.8716999 L79.1605902,29.2291667 L62.3658982,29.2291667 L62.3658982,27.8716999 L69.7060678,27.8716999 L69.7060678,25.9197705 L63.2923986,25.9197705 L63.2923986,24.5777402 L69.7060678,24.5777402 L69.7060678,23.4036213 L71.8204206,23.4036213 L71.8204206,24.5777402 L78.2340898,24.5777402 L78.2340898,25.9197705 Z M77.9015156,20.5365281 L77.9015156,20.0639822 L75.8110054,20.0639822 L75.8110054,20.5365281 C75.8110054,20.9227555 75.9613974,21.2837806 76.2624871,21.6192881 C76.5632712,21.9547957 76.9710414,22.2191063 77.4857978,22.4122201 C78.0005542,22.6053338 78.5587164,22.7020482 79.1605902,22.7020482 L79.1605902,21.3448965 C78.8121209,21.3448965 78.5153106,21.2661389 78.2698537,21.1083085 C78.0243968,20.9507933 77.9015156,20.7601998 77.9015156,20.5365281 L77.9015156,20.5365281 Z M69.9912624,20.5365281 L69.9912624,20.0639822 L67.8769096,20.0639822 L67.8769096,20.5365281 C67.8769096,20.7601998 67.754334,20.9507933 67.5088772,21.1083085 C67.2634203,21.2661389 66.96661,21.3448965 66.617835,21.3448965 L66.617835,22.7020482 C67.2197088,22.7020482 67.7818448,22.6053338 68.3045487,22.4122201 C68.8272527,22.2191063 69.2389967,21.9547957 69.5397807,21.6192881 C69.8408704,21.2837806 69.9912624,20.9227555 69.9912624,20.5365281 L69.9912624,20.5365281 Z M68.7795674,15.4125558 L68.7795674,16.5561168 L76.381089,16.5561168 C76.5553236,16.5561168 76.7096894,16.5154778 76.844492,16.4341999 C76.9789889,16.352922 77.0462374,16.2562077 77.0462374,16.1446868 L77.0462374,15.4125558 L68.7795674,15.4125558 Z M73.9583103,18.3861294 L79.1841271,18.3861294 L79.1841271,19.7281596 L73.9583103,19.7281596 L73.9583103,22.6258108 L71.8678002,22.6258108 L71.8678002,19.7281596 L66.6416777,19.7281596 L66.6416777,18.3861294 L71.8678002,18.3861294 L71.8678002,17.898462 L66.6893629,17.898462 L66.6893629,14.0705255 L79.1367475,14.0705255 L79.1367475,16.1446868 C79.1367475,16.6222732 78.867448,17.0340181 78.3291546,17.3799217 C77.7905556,17.7255102 77.1413023,17.898462 76.381089,17.898462 L73.9583103,17.898462 L73.9583103,18.3861294 Z M63.6723524,22.6714902 L63.6723524,17.5018385 C63.2447133,17.6237554 62.7776422,17.6848713 62.2708333,17.6848713 L62.2708333,16.3428411 C62.6666822,16.3428411 63.0032302,16.2540024 63.2804773,16.0756951 C63.5574187,15.8980179 63.696195,15.6819069 63.696195,15.4276772 L63.696195,14.0705255 L65.8102421,14.0705255 L65.8102421,15.4276772 C65.8102421,15.5495941 65.8026003,15.6362275 65.7867052,15.6869474 L65.7867052,22.6714902 L63.6723524,22.6714902 Z" id="Fill-24" fill="#006884" mask="url(#mask-2)"></path>
            </g>
        </g>
    </g>
</svg>